<mxfile host="Electron" agent="Mozilla/5.0 (Windows NT 10.0; Win64; x64) AppleWebKit/537.36 (KHTML, like Gecko) draw.io/26.2.15 Chrome/134.0.6998.205 Electron/35.2.1 Safari/537.36" version="26.2.15" pages="2">
  <diagram id="C5RBs43oDa-KdzZeNtuy" name="Page-1">
    <mxGraphModel dx="2893" dy="1201" grid="1" gridSize="10" guides="1" tooltips="1" connect="1" arrows="1" fold="1" page="1" pageScale="1" pageWidth="827" pageHeight="1169" math="0" shadow="0">
      <root>
        <mxCell id="WIyWlLk6GJQsqaUBKTNV-0" />
        <mxCell id="WIyWlLk6GJQsqaUBKTNV-1" parent="WIyWlLk6GJQsqaUBKTNV-0" />
        <mxCell id="9mYQ2G0g4DRSTcGuNHDm-41" value="Map Generator" style="swimlane;whiteSpace=wrap;html=1;" parent="WIyWlLk6GJQsqaUBKTNV-1" vertex="1">
          <mxGeometry x="-540" y="370" width="1807" height="1170" as="geometry" />
        </mxCell>
        <mxCell id="9mYQ2G0g4DRSTcGuNHDm-11" value="MapConfigSO" style="swimlane;fontStyle=0;childLayout=stackLayout;horizontal=1;startSize=30;horizontalStack=0;resizeParent=1;resizeParentMax=0;resizeLast=0;collapsible=1;marginBottom=0;whiteSpace=wrap;html=1;" parent="9mYQ2G0g4DRSTcGuNHDm-41" vertex="1">
          <mxGeometry x="100" y="70" width="140" height="150" as="geometry" />
        </mxCell>
        <mxCell id="9mYQ2G0g4DRSTcGuNHDm-12" value="RoomBlueprint 1" style="text;strokeColor=none;fillColor=none;align=left;verticalAlign=middle;spacingLeft=4;spacingRight=4;overflow=hidden;points=[[0,0.5],[1,0.5]];portConstraint=eastwest;rotatable=0;whiteSpace=wrap;html=1;" parent="9mYQ2G0g4DRSTcGuNHDm-11" vertex="1">
          <mxGeometry y="30" width="140" height="30" as="geometry" />
        </mxCell>
        <mxCell id="9mYQ2G0g4DRSTcGuNHDm-15" value="RoomBlueprint 2" style="text;strokeColor=none;fillColor=none;align=left;verticalAlign=middle;spacingLeft=4;spacingRight=4;overflow=hidden;points=[[0,0.5],[1,0.5]];portConstraint=eastwest;rotatable=0;whiteSpace=wrap;html=1;" parent="9mYQ2G0g4DRSTcGuNHDm-11" vertex="1">
          <mxGeometry y="60" width="140" height="30" as="geometry" />
        </mxCell>
        <mxCell id="9mYQ2G0g4DRSTcGuNHDm-16" value="RoomBlueprint 3" style="text;strokeColor=none;fillColor=none;align=left;verticalAlign=middle;spacingLeft=4;spacingRight=4;overflow=hidden;points=[[0,0.5],[1,0.5]];portConstraint=eastwest;rotatable=0;whiteSpace=wrap;html=1;" parent="9mYQ2G0g4DRSTcGuNHDm-11" vertex="1">
          <mxGeometry y="90" width="140" height="30" as="geometry" />
        </mxCell>
        <mxCell id="9mYQ2G0g4DRSTcGuNHDm-17" value="..." style="text;strokeColor=none;fillColor=none;align=left;verticalAlign=middle;spacingLeft=4;spacingRight=4;overflow=hidden;points=[[0,0.5],[1,0.5]];portConstraint=eastwest;rotatable=0;whiteSpace=wrap;html=1;" parent="9mYQ2G0g4DRSTcGuNHDm-11" vertex="1">
          <mxGeometry y="120" width="140" height="30" as="geometry" />
        </mxCell>
        <mxCell id="9mYQ2G0g4DRSTcGuNHDm-18" value="RoomPrefab" style="swimlane;fontStyle=0;childLayout=stackLayout;horizontal=1;startSize=30;horizontalStack=0;resizeParent=1;resizeParentMax=0;resizeLast=0;collapsible=1;marginBottom=0;whiteSpace=wrap;html=1;" parent="9mYQ2G0g4DRSTcGuNHDm-41" vertex="1">
          <mxGeometry x="740" y="80" width="140" height="210" as="geometry" />
        </mxCell>
        <mxCell id="9mYQ2G0g4DRSTcGuNHDm-19" value="column" style="text;strokeColor=none;fillColor=none;align=left;verticalAlign=middle;spacingLeft=4;spacingRight=4;overflow=hidden;points=[[0,0.5],[1,0.5]];portConstraint=eastwest;rotatable=0;whiteSpace=wrap;html=1;" parent="9mYQ2G0g4DRSTcGuNHDm-18" vertex="1">
          <mxGeometry y="30" width="140" height="30" as="geometry" />
        </mxCell>
        <mxCell id="9mYQ2G0g4DRSTcGuNHDm-20" value="row" style="text;strokeColor=none;fillColor=none;align=left;verticalAlign=middle;spacingLeft=4;spacingRight=4;overflow=hidden;points=[[0,0.5],[1,0.5]];portConstraint=eastwest;rotatable=0;whiteSpace=wrap;html=1;" parent="9mYQ2G0g4DRSTcGuNHDm-18" vertex="1">
          <mxGeometry y="60" width="140" height="30" as="geometry" />
        </mxCell>
        <mxCell id="9mYQ2G0g4DRSTcGuNHDm-21" value="RoomData" style="text;strokeColor=none;fillColor=none;align=left;verticalAlign=middle;spacingLeft=4;spacingRight=4;overflow=hidden;points=[[0,0.5],[1,0.5]];portConstraint=eastwest;rotatable=0;whiteSpace=wrap;html=1;" parent="9mYQ2G0g4DRSTcGuNHDm-18" vertex="1">
          <mxGeometry y="90" width="140" height="30" as="geometry" />
        </mxCell>
        <mxCell id="9mYQ2G0g4DRSTcGuNHDm-23" value="Load Room Event" style="text;strokeColor=none;fillColor=none;align=left;verticalAlign=middle;spacingLeft=4;spacingRight=4;overflow=hidden;points=[[0,0.5],[1,0.5]];portConstraint=eastwest;rotatable=0;whiteSpace=wrap;html=1;" parent="9mYQ2G0g4DRSTcGuNHDm-18" vertex="1">
          <mxGeometry y="120" width="140" height="30" as="geometry" />
        </mxCell>
        <mxCell id="BGNMVXmJKXSBRrtzB01C-0" value="+linkTo:List&amp;lt;Vector2Int&amp;gt;" style="text;strokeColor=none;fillColor=none;align=left;verticalAlign=middle;spacingLeft=4;spacingRight=4;overflow=hidden;points=[[0,0.5],[1,0.5]];portConstraint=eastwest;rotatable=0;whiteSpace=wrap;html=1;" vertex="1" parent="9mYQ2G0g4DRSTcGuNHDm-18">
          <mxGeometry y="150" width="140" height="30" as="geometry" />
        </mxCell>
        <mxCell id="BGNMVXmJKXSBRrtzB01C-1" value="+linkBy:List&amp;lt;Vector2Int&amp;gt;" style="text;strokeColor=none;fillColor=none;align=left;verticalAlign=middle;spacingLeft=4;spacingRight=4;overflow=hidden;points=[[0,0.5],[1,0.5]];portConstraint=eastwest;rotatable=0;whiteSpace=wrap;html=1;" vertex="1" parent="9mYQ2G0g4DRSTcGuNHDm-18">
          <mxGeometry y="180" width="140" height="30" as="geometry" />
        </mxCell>
        <mxCell id="9mYQ2G0g4DRSTcGuNHDm-32" value="&lt;span style=&quot;text-align: left;&quot;&gt;RoomData&lt;/span&gt;" style="swimlane;fontStyle=0;childLayout=stackLayout;horizontal=1;startSize=30;horizontalStack=0;resizeParent=1;resizeParentMax=0;resizeLast=0;collapsible=1;marginBottom=0;whiteSpace=wrap;html=1;" parent="9mYQ2G0g4DRSTcGuNHDm-41" vertex="1">
          <mxGeometry x="1000" y="80" width="140" height="150" as="geometry" />
        </mxCell>
        <mxCell id="9mYQ2G0g4DRSTcGuNHDm-33" value="MinorEnemy" style="text;strokeColor=none;fillColor=none;align=left;verticalAlign=middle;spacingLeft=4;spacingRight=4;overflow=hidden;points=[[0,0.5],[1,0.5]];portConstraint=eastwest;rotatable=0;whiteSpace=wrap;html=1;" parent="9mYQ2G0g4DRSTcGuNHDm-32" vertex="1">
          <mxGeometry y="30" width="140" height="30" as="geometry" />
        </mxCell>
        <mxCell id="9mYQ2G0g4DRSTcGuNHDm-34" value="Boss" style="text;strokeColor=none;fillColor=none;align=left;verticalAlign=middle;spacingLeft=4;spacingRight=4;overflow=hidden;points=[[0,0.5],[1,0.5]];portConstraint=eastwest;rotatable=0;whiteSpace=wrap;html=1;" parent="9mYQ2G0g4DRSTcGuNHDm-32" vertex="1">
          <mxGeometry y="60" width="140" height="30" as="geometry" />
        </mxCell>
        <mxCell id="9mYQ2G0g4DRSTcGuNHDm-35" value="Shop" style="text;strokeColor=none;fillColor=none;align=left;verticalAlign=middle;spacingLeft=4;spacingRight=4;overflow=hidden;points=[[0,0.5],[1,0.5]];portConstraint=eastwest;rotatable=0;whiteSpace=wrap;html=1;" parent="9mYQ2G0g4DRSTcGuNHDm-32" vertex="1">
          <mxGeometry y="90" width="140" height="30" as="geometry" />
        </mxCell>
        <mxCell id="9mYQ2G0g4DRSTcGuNHDm-36" value="..." style="text;strokeColor=none;fillColor=none;align=left;verticalAlign=middle;spacingLeft=4;spacingRight=4;overflow=hidden;points=[[0,0.5],[1,0.5]];portConstraint=eastwest;rotatable=0;whiteSpace=wrap;html=1;" parent="9mYQ2G0g4DRSTcGuNHDm-32" vertex="1">
          <mxGeometry y="120" width="140" height="30" as="geometry" />
        </mxCell>
        <mxCell id="9mYQ2G0g4DRSTcGuNHDm-40" style="edgeStyle=orthogonalEdgeStyle;rounded=0;orthogonalLoop=1;jettySize=auto;html=1;exitX=1;exitY=0.5;exitDx=0;exitDy=0;entryX=0.014;entryY=0.12;entryDx=0;entryDy=0;entryPerimeter=0;endArrow=open;endFill=0;" parent="9mYQ2G0g4DRSTcGuNHDm-41" source="9mYQ2G0g4DRSTcGuNHDm-21" target="9mYQ2G0g4DRSTcGuNHDm-32" edge="1">
          <mxGeometry relative="1" as="geometry">
            <Array as="points">
              <mxPoint x="940" y="185" />
              <mxPoint x="940" y="98" />
            </Array>
          </mxGeometry>
        </mxCell>
        <mxCell id="9mYQ2G0g4DRSTcGuNHDm-48" value="在MapGenerator中实现地图生成" style="text;html=1;align=center;verticalAlign=middle;resizable=0;points=[];autosize=1;strokeColor=none;fillColor=none;" parent="9mYQ2G0g4DRSTcGuNHDm-41" vertex="1">
          <mxGeometry x="60" y="450" width="200" height="30" as="geometry" />
        </mxCell>
        <mxCell id="9mYQ2G0g4DRSTcGuNHDm-73" style="edgeStyle=orthogonalEdgeStyle;rounded=0;orthogonalLoop=1;jettySize=auto;html=1;exitX=0.998;exitY=0.093;exitDx=0;exitDy=0;exitPerimeter=0;entryX=-0.002;entryY=0.132;entryDx=0;entryDy=0;entryPerimeter=0;endArrow=none;startFill=0;" parent="9mYQ2G0g4DRSTcGuNHDm-41" source="9mYQ2G0g4DRSTcGuNHDm-11" target="9mYQ2G0g4DRSTcGuNHDm-76" edge="1">
          <mxGeometry relative="1" as="geometry">
            <mxPoint x="480" y="140" as="targetPoint" />
            <Array as="points">
              <mxPoint x="240" y="86" />
            </Array>
          </mxGeometry>
        </mxCell>
        <mxCell id="9mYQ2G0g4DRSTcGuNHDm-74" value="1" style="edgeLabel;html=1;align=center;verticalAlign=middle;resizable=0;points=[];" parent="9mYQ2G0g4DRSTcGuNHDm-73" vertex="1" connectable="0">
          <mxGeometry x="-0.8689" y="-2" relative="1" as="geometry">
            <mxPoint x="2" y="6" as="offset" />
          </mxGeometry>
        </mxCell>
        <mxCell id="9mYQ2G0g4DRSTcGuNHDm-75" value="*" style="edgeLabel;html=1;align=center;verticalAlign=middle;resizable=0;points=[];" parent="9mYQ2G0g4DRSTcGuNHDm-73" vertex="1" connectable="0">
          <mxGeometry x="0.9011" relative="1" as="geometry">
            <mxPoint y="8" as="offset" />
          </mxGeometry>
        </mxCell>
        <mxCell id="9mYQ2G0g4DRSTcGuNHDm-76" value="RoomBlueprint" style="swimlane;fontStyle=0;childLayout=stackLayout;horizontal=1;startSize=30;horizontalStack=0;resizeParent=1;resizeParentMax=0;resizeLast=0;collapsible=1;marginBottom=0;whiteSpace=wrap;html=1;" parent="9mYQ2G0g4DRSTcGuNHDm-41" vertex="1">
          <mxGeometry x="370" y="70" width="140" height="120" as="geometry" />
        </mxCell>
        <mxCell id="9mYQ2G0g4DRSTcGuNHDm-77" value="min&lt;span style=&quot;white-space: pre;&quot;&gt;&#x9;&lt;/span&gt;" style="text;strokeColor=none;fillColor=none;align=left;verticalAlign=middle;spacingLeft=4;spacingRight=4;overflow=hidden;points=[[0,0.5],[1,0.5]];portConstraint=eastwest;rotatable=0;whiteSpace=wrap;html=1;" parent="9mYQ2G0g4DRSTcGuNHDm-76" vertex="1">
          <mxGeometry y="30" width="140" height="30" as="geometry" />
        </mxCell>
        <mxCell id="9mYQ2G0g4DRSTcGuNHDm-78" value="max" style="text;strokeColor=none;fillColor=none;align=left;verticalAlign=middle;spacingLeft=4;spacingRight=4;overflow=hidden;points=[[0,0.5],[1,0.5]];portConstraint=eastwest;rotatable=0;whiteSpace=wrap;html=1;" parent="9mYQ2G0g4DRSTcGuNHDm-76" vertex="1">
          <mxGeometry y="60" width="140" height="30" as="geometry" />
        </mxCell>
        <mxCell id="9mYQ2G0g4DRSTcGuNHDm-79" value="RoomType" style="text;strokeColor=none;fillColor=none;align=left;verticalAlign=middle;spacingLeft=4;spacingRight=4;overflow=hidden;points=[[0,0.5],[1,0.5]];portConstraint=eastwest;rotatable=0;whiteSpace=wrap;html=1;" parent="9mYQ2G0g4DRSTcGuNHDm-76" vertex="1">
          <mxGeometry y="90" width="140" height="30" as="geometry" />
        </mxCell>
        <mxCell id="9mYQ2G0g4DRSTcGuNHDm-80" style="edgeStyle=orthogonalEdgeStyle;rounded=0;orthogonalLoop=1;jettySize=auto;html=1;entryX=-0.034;entryY=0.126;entryDx=0;entryDy=0;entryPerimeter=0;endArrow=none;startFill=0;" parent="9mYQ2G0g4DRSTcGuNHDm-41" source="9mYQ2G0g4DRSTcGuNHDm-77" target="9mYQ2G0g4DRSTcGuNHDm-18" edge="1">
          <mxGeometry relative="1" as="geometry" />
        </mxCell>
        <mxCell id="9mYQ2G0g4DRSTcGuNHDm-81" value="1" style="edgeLabel;html=1;align=center;verticalAlign=middle;resizable=0;points=[];" parent="9mYQ2G0g4DRSTcGuNHDm-80" vertex="1" connectable="0">
          <mxGeometry x="-0.8919" y="-8" relative="1" as="geometry">
            <mxPoint as="offset" />
          </mxGeometry>
        </mxCell>
        <mxCell id="9mYQ2G0g4DRSTcGuNHDm-82" value="1" style="edgeLabel;html=1;align=center;verticalAlign=middle;resizable=0;points=[];" parent="9mYQ2G0g4DRSTcGuNHDm-80" vertex="1" connectable="0">
          <mxGeometry x="0.8629" y="-9" relative="1" as="geometry">
            <mxPoint as="offset" />
          </mxGeometry>
        </mxCell>
        <mxCell id="bwuRHdogZFhXZ-GJFVj6-0" value="&lt;span style=&quot;text-align: left;&quot;&gt;RoomDataSO&lt;/span&gt;" style="swimlane;fontStyle=0;childLayout=stackLayout;horizontal=1;startSize=30;horizontalStack=0;resizeParent=1;resizeParentMax=0;resizeLast=0;collapsible=1;marginBottom=0;whiteSpace=wrap;html=1;" parent="9mYQ2G0g4DRSTcGuNHDm-41" vertex="1">
          <mxGeometry x="1290" y="110" width="180" height="120" as="geometry" />
        </mxCell>
        <mxCell id="bwuRHdogZFhXZ-GJFVj6-1" value="+&amp;nbsp;roomIcon：Sprite" style="text;strokeColor=none;fillColor=none;align=left;verticalAlign=middle;spacingLeft=4;spacingRight=4;overflow=hidden;points=[[0,0.5],[1,0.5]];portConstraint=eastwest;rotatable=0;whiteSpace=wrap;html=1;" parent="bwuRHdogZFhXZ-GJFVj6-0" vertex="1">
          <mxGeometry y="30" width="180" height="30" as="geometry" />
        </mxCell>
        <mxCell id="bwuRHdogZFhXZ-GJFVj6-2" value="+&amp;nbsp;roomType:RoomType" style="text;strokeColor=none;fillColor=none;align=left;verticalAlign=middle;spacingLeft=4;spacingRight=4;overflow=hidden;points=[[0,0.5],[1,0.5]];portConstraint=eastwest;rotatable=0;whiteSpace=wrap;html=1;" parent="bwuRHdogZFhXZ-GJFVj6-0" vertex="1">
          <mxGeometry y="60" width="180" height="30" as="geometry" />
        </mxCell>
        <mxCell id="bwuRHdogZFhXZ-GJFVj6-3" value="+&amp;nbsp;sceneToLoad:AssetReference:挂载对应的房间Scene" style="text;strokeColor=none;fillColor=none;align=left;verticalAlign=middle;spacingLeft=4;spacingRight=4;overflow=hidden;points=[[0,0.5],[1,0.5]];portConstraint=eastwest;rotatable=0;whiteSpace=wrap;html=1;" parent="bwuRHdogZFhXZ-GJFVj6-0" vertex="1">
          <mxGeometry y="90" width="180" height="30" as="geometry" />
        </mxCell>
        <mxCell id="Qk1EgtEmgazbAcCYcNBb-1" value="MapLayoutSO" style="swimlane;fontStyle=0;childLayout=stackLayout;horizontal=1;startSize=30;horizontalStack=0;resizeParent=1;resizeParentMax=0;resizeLast=0;collapsible=1;marginBottom=0;whiteSpace=wrap;html=1;" parent="9mYQ2G0g4DRSTcGuNHDm-41" vertex="1">
          <mxGeometry x="1150" y="680" width="140" height="90" as="geometry" />
        </mxCell>
        <mxCell id="Qk1EgtEmgazbAcCYcNBb-2" value="mapRoomDataList" style="text;strokeColor=none;fillColor=none;align=left;verticalAlign=middle;spacingLeft=4;spacingRight=4;overflow=hidden;points=[[0,0.5],[1,0.5]];portConstraint=eastwest;rotatable=0;whiteSpace=wrap;html=1;" parent="Qk1EgtEmgazbAcCYcNBb-1" vertex="1">
          <mxGeometry y="30" width="140" height="30" as="geometry" />
        </mxCell>
        <mxCell id="Qk1EgtEmgazbAcCYcNBb-3" value="linePositionList" style="text;strokeColor=none;fillColor=none;align=left;verticalAlign=middle;spacingLeft=4;spacingRight=4;overflow=hidden;points=[[0,0.5],[1,0.5]];portConstraint=eastwest;rotatable=0;whiteSpace=wrap;html=1;" parent="Qk1EgtEmgazbAcCYcNBb-1" vertex="1">
          <mxGeometry y="60" width="140" height="30" as="geometry" />
        </mxCell>
        <mxCell id="Qk1EgtEmgazbAcCYcNBb-5" value="MapRoomData" style="swimlane;fontStyle=0;childLayout=stackLayout;horizontal=1;startSize=30;horizontalStack=0;resizeParent=1;resizeParentMax=0;resizeLast=0;collapsible=1;marginBottom=0;whiteSpace=wrap;html=1;" parent="9mYQ2G0g4DRSTcGuNHDm-41" vertex="1">
          <mxGeometry x="1490" y="590" width="140" height="210" as="geometry" />
        </mxCell>
        <mxCell id="Qk1EgtEmgazbAcCYcNBb-6" value="posX" style="text;strokeColor=none;fillColor=none;align=left;verticalAlign=middle;spacingLeft=4;spacingRight=4;overflow=hidden;points=[[0,0.5],[1,0.5]];portConstraint=eastwest;rotatable=0;whiteSpace=wrap;html=1;" parent="Qk1EgtEmgazbAcCYcNBb-5" vertex="1">
          <mxGeometry y="30" width="140" height="30" as="geometry" />
        </mxCell>
        <mxCell id="Qk1EgtEmgazbAcCYcNBb-7" value="posY" style="text;strokeColor=none;fillColor=none;align=left;verticalAlign=middle;spacingLeft=4;spacingRight=4;overflow=hidden;points=[[0,0.5],[1,0.5]];portConstraint=eastwest;rotatable=0;whiteSpace=wrap;html=1;" parent="Qk1EgtEmgazbAcCYcNBb-5" vertex="1">
          <mxGeometry y="60" width="140" height="30" as="geometry" />
        </mxCell>
        <mxCell id="Qk1EgtEmgazbAcCYcNBb-8" value="column" style="text;strokeColor=none;fillColor=none;align=left;verticalAlign=middle;spacingLeft=4;spacingRight=4;overflow=hidden;points=[[0,0.5],[1,0.5]];portConstraint=eastwest;rotatable=0;whiteSpace=wrap;html=1;" parent="Qk1EgtEmgazbAcCYcNBb-5" vertex="1">
          <mxGeometry y="90" width="140" height="30" as="geometry" />
        </mxCell>
        <mxCell id="Qk1EgtEmgazbAcCYcNBb-9" value="row" style="text;strokeColor=none;fillColor=none;align=left;verticalAlign=middle;spacingLeft=4;spacingRight=4;overflow=hidden;points=[[0,0.5],[1,0.5]];portConstraint=eastwest;rotatable=0;whiteSpace=wrap;html=1;" parent="Qk1EgtEmgazbAcCYcNBb-5" vertex="1">
          <mxGeometry y="120" width="140" height="30" as="geometry" />
        </mxCell>
        <mxCell id="Qk1EgtEmgazbAcCYcNBb-10" value="roomData" style="text;strokeColor=none;fillColor=none;align=left;verticalAlign=middle;spacingLeft=4;spacingRight=4;overflow=hidden;points=[[0,0.5],[1,0.5]];portConstraint=eastwest;rotatable=0;whiteSpace=wrap;html=1;" parent="Qk1EgtEmgazbAcCYcNBb-5" vertex="1">
          <mxGeometry y="150" width="140" height="30" as="geometry" />
        </mxCell>
        <mxCell id="Qk1EgtEmgazbAcCYcNBb-11" value="roomState" style="text;strokeColor=none;fillColor=none;align=left;verticalAlign=middle;spacingLeft=4;spacingRight=4;overflow=hidden;points=[[0,0.5],[1,0.5]];portConstraint=eastwest;rotatable=0;whiteSpace=wrap;html=1;" parent="Qk1EgtEmgazbAcCYcNBb-5" vertex="1">
          <mxGeometry y="180" width="140" height="30" as="geometry" />
        </mxCell>
        <mxCell id="Qk1EgtEmgazbAcCYcNBb-13" value="LinePosition" style="swimlane;fontStyle=0;childLayout=stackLayout;horizontal=1;startSize=30;horizontalStack=0;resizeParent=1;resizeParentMax=0;resizeLast=0;collapsible=1;marginBottom=0;whiteSpace=wrap;html=1;" parent="9mYQ2G0g4DRSTcGuNHDm-41" vertex="1">
          <mxGeometry x="1490" y="860" width="140" height="90" as="geometry" />
        </mxCell>
        <mxCell id="Qk1EgtEmgazbAcCYcNBb-14" value="startPos" style="text;strokeColor=none;fillColor=none;align=left;verticalAlign=middle;spacingLeft=4;spacingRight=4;overflow=hidden;points=[[0,0.5],[1,0.5]];portConstraint=eastwest;rotatable=0;whiteSpace=wrap;html=1;" parent="Qk1EgtEmgazbAcCYcNBb-13" vertex="1">
          <mxGeometry y="30" width="140" height="30" as="geometry" />
        </mxCell>
        <mxCell id="Qk1EgtEmgazbAcCYcNBb-15" value="endPos" style="text;strokeColor=none;fillColor=none;align=left;verticalAlign=middle;spacingLeft=4;spacingRight=4;overflow=hidden;points=[[0,0.5],[1,0.5]];portConstraint=eastwest;rotatable=0;whiteSpace=wrap;html=1;" parent="Qk1EgtEmgazbAcCYcNBb-13" vertex="1">
          <mxGeometry y="60" width="140" height="30" as="geometry" />
        </mxCell>
        <mxCell id="Qk1EgtEmgazbAcCYcNBb-20" value="" style="endArrow=none;html=1;rounded=0;exitX=1;exitY=0.5;exitDx=0;exitDy=0;entryX=0.02;entryY=0.067;entryDx=0;entryDy=0;entryPerimeter=0;" parent="9mYQ2G0g4DRSTcGuNHDm-41" source="Qk1EgtEmgazbAcCYcNBb-2" target="Qk1EgtEmgazbAcCYcNBb-5" edge="1">
          <mxGeometry relative="1" as="geometry">
            <mxPoint x="1140" y="970" as="sourcePoint" />
            <mxPoint x="1450" y="610" as="targetPoint" />
            <Array as="points">
              <mxPoint x="1360" y="725" />
              <mxPoint x="1360" y="604" />
            </Array>
          </mxGeometry>
        </mxCell>
        <mxCell id="Qk1EgtEmgazbAcCYcNBb-21" value="1" style="resizable=0;html=1;whiteSpace=wrap;align=left;verticalAlign=bottom;" parent="Qk1EgtEmgazbAcCYcNBb-20" connectable="0" vertex="1">
          <mxGeometry x="-1" relative="1" as="geometry" />
        </mxCell>
        <mxCell id="Qk1EgtEmgazbAcCYcNBb-22" value="*" style="resizable=0;html=1;whiteSpace=wrap;align=right;verticalAlign=bottom;" parent="Qk1EgtEmgazbAcCYcNBb-20" connectable="0" vertex="1">
          <mxGeometry x="1" relative="1" as="geometry">
            <mxPoint x="-10" as="offset" />
          </mxGeometry>
        </mxCell>
        <mxCell id="Qk1EgtEmgazbAcCYcNBb-24" value="" style="endArrow=none;html=1;rounded=0;exitX=1;exitY=0.5;exitDx=0;exitDy=0;entryX=-0.007;entryY=0.189;entryDx=0;entryDy=0;entryPerimeter=0;" parent="9mYQ2G0g4DRSTcGuNHDm-41" source="Qk1EgtEmgazbAcCYcNBb-3" target="Qk1EgtEmgazbAcCYcNBb-13" edge="1">
          <mxGeometry relative="1" as="geometry">
            <mxPoint x="1250" y="900" as="sourcePoint" />
            <mxPoint x="1410" y="900" as="targetPoint" />
            <Array as="points">
              <mxPoint x="1360" y="755" />
              <mxPoint x="1360" y="877" />
            </Array>
          </mxGeometry>
        </mxCell>
        <mxCell id="Qk1EgtEmgazbAcCYcNBb-25" value="1" style="resizable=0;html=1;whiteSpace=wrap;align=left;verticalAlign=bottom;" parent="Qk1EgtEmgazbAcCYcNBb-24" connectable="0" vertex="1">
          <mxGeometry x="-1" relative="1" as="geometry" />
        </mxCell>
        <mxCell id="Qk1EgtEmgazbAcCYcNBb-26" value="*" style="resizable=0;html=1;whiteSpace=wrap;align=right;verticalAlign=bottom;" parent="Qk1EgtEmgazbAcCYcNBb-24" connectable="0" vertex="1">
          <mxGeometry x="1" relative="1" as="geometry">
            <mxPoint x="-9" as="offset" />
          </mxGeometry>
        </mxCell>
        <mxCell id="Qk1EgtEmgazbAcCYcNBb-28" value="" style="shape=image;verticalLabelPosition=bottom;labelBackgroundColor=default;verticalAlign=top;aspect=fixed;imageAspect=0;image=data:image/png,iVBORw0KGgoAAAANSUhEUgAAAqMAAAIHCAIAAAAkcMLHAAAgAElEQVR4Aey92VNbSb6ou/+BG9HP56m8qzu8DOVC2KZYYCOBmBEzyCCDmMQkCywGMQgxGsQ8CMQkJoNBYIwZBAIxIwYxGNtlr7hn37vj7jh7x40+fWPvPt1P57EfrotfV/YqCWMbsI3NL6OCypUrM1eub5n8Vg4S//TfMCABJIAEkAASQALfLoF/4mJAAkgACSABJIAEvl0CaPpv99ninSEBJIAEkAAS4HLR9PivAAkgASSABJDAt0zgHEy/srLy13eE9vb2d8Gzs7P73e9+93+cGH73u9/Z2dm9qwZMRwJIAAkgASSABN5L4BxM/w7L/z25ra3t2EZ8//33V69etTsxXL169fvvvz+2OCZ+FAF3d3c/Pz8PD4+PKvWuzO7u7u86dWy6n5+fp6fnsacwEQkgASSABD41gU9u+r/+9a8ajcb2Nq5cuXKi5f9+8sqVK7Zls7KyGhsby8rK2Kd8fHwaGhoaGxuDgoLY6aeLC4XC4uLi9qNQXFx89+7d09VzxlIeHh4BAQF8Pv+M9ZSWls7Pzz948IDL5fr5+RUUFGg0ms7Ozurq6ri4uA+vPCAgQKvV9vf3C4XCE0p5eXkFBARABqFQODU11dra6uPjc0IRPIUEkAAS+OoIxMXF9fX1mY5CX1/fR3Wn7JsdOArslPfG+Xz+2FH4EEGcs+lf/t8vHbOc/uvP/2Unu/6v//GvZLhv2+iTTU/TNKj+WNPn5eUxDPPkyRO21GUy2d7e3sLCQmhoqO3lPiolPj5+ZGTkxYsXk5OTz549Ozw8HBsbS0xM/KhKziVzTk7O4uJiQUHBWWqLiYmZmZlpa2tzd3f38fFpbW09PDwcHx8fHh5eX183GAypqakfWH9wcLBerzcYDAkJCScUKS8vX1xclEqlkKesrMxiseTk5JxQBE8hASSABL4uAmVlZTs7O2azWafTdXZ2rq+v7+zslJaWnuIudo7CRxUMCQmBUsHBwe8teIzp4+PjM44L8fHxx1YHOv/LX/7yX3/+r7H1J0GVoXv/5/6NbKf//PN//uUvf4GztgVPMH1tbe2f/vQnkP27TP/69euXL1+y5aHRaHZ3d4npPT095XJ5VVVVZWVlRkYGNEAmk5WVlUkkkocPH1ZWVqalpdk2jMvlarVas9lcWFgYEBDg7+9fWFi4tbX19kFCZi8vr6ysLLVaXV5eLpFIIDEzM7O0tDQ5ORlqTklJITWHh4fn5eXV1NQolUoyFC4uLq6oqFAoFHV1dXK5nMvl3rt3r6ioqKampri4+N69e1wuVyaTVVRUHB4eVlRUlJeXQ4XR0dGQLScnhzzg8qOgVCrr6upstV1aWvr8+XNglZiYuLm5WVdX5+/v7+HhkZGRYTab6+vrrSpXKBQhISFcLjckJKSioqKwsLCioqK+vt7X17e4uLikpMTPzy8kJKSsrCw3N7ekpEStVmdlZcGrZV5eXmVl5e7ubkVFRUlJCZfLFYvF8/Pz3d3dH/LuSbhhBAkgASRwYQnEx8eDaNPT06OiokRHAVLeO7I3GAyQE35yuVxyaDAYPvyWk4/Ch+Q/xvTe3t4ymczK9TKZzNvb+9gaweWbrzevSu2s/jPuzn+s6UHztbW1J4/pDw8Pp6amenp6oElisXhpaUmr1YLpvby8mpubDw4OZo/C9vY2KCc/P//58+eTk5NGo9FkMm1sbBQWFlrdVGRk5MrKSmtrK0nn8Xgajaa7uzs4ONjb27uxsXFvb29mZsZkMi0tLeXn53O5XJVKtb+/bzQa5+bmNjY2FhcXZTIZl8uNjY0dHh62WCxTU1Pb29tjY2Pwj6Crq2tycnJnZ2d+fr6oqCglJWVqampra2tycnJjY+PJkycxMTH5+fkGg+HNmzcGg2F4eJjP56ekpExMTJjN5unpaYvFMjAwIBQKPTw8hoaGHj9+vL29vbCwAO8N7MbrdDqj0RgdHc3lcpOSkjY3N9va2sRisYeHh7u7e0JCAqxNSCSSiYmJzc3N6enpvb29vr6+sLAwoVC4vLw8ODi4srJiMBhCQ0MfPXo0OTkZHh4eFRW1vr7e1dW1tLQ0Ozt7cHDQ0NDA4/GqqqoMBsOLFy8MBgO8Hnl7e/f398/NzUVGRpKGYQQJIAEk8PUS6OvrAz1XVlbOzMxoNBo/Pz9I6evr+9j7Isr/qIJ+R+FDihxjei6XKxKJrEwvEoneVR24/M//68//8cf/SG+XZvfmZvXmpGjT/+OP//Hn//Xn95qex+OB1O3s7Kw0b2dn964x/eHhYXV19ebmJoyeHz58uLu729jYCKYPDw/XarVNTU2hoaFCoXB8fHxwcNDDwyM/P59hGK1WGx4eHhMTMzQ0NDk5GRgYyL61hISE58+fFxcXc7lcHo/H5uDt7Z2Zmbm3t1dVVRUcHBwbGzsyMqLX6319fVUqFcMwarU6NDQ0MzNza2ursbGRy+XW1dVtbGzI5fLAwEC5XA7jaS6X29XVtb29nZ2dHR4eDtMGQ0NDcrk8ICBAoVC8evXq7UQCn8/Pyck5PDwsKCgICgri8XgdHR1GozEtLS0oKKiwsPDg4KCsrAxMD7PlERERXl5e7Nvx8fGBiXqycF5XV7e1tbWysjI0NKRWq8k8fHt7++LiYkZGRmBgYHFx8dLSUnZ2NjF9bGysUCj08vKyMv34+HhcXFxoaGhDQ8P29nZaWpqvr295efnu7q5UKhUIBNCYpqamra2td00LsRuMcSSABJDAxSdgMpnIQHxubs7Pz0+j0UCKyWT62PYPDAz09/d/VCk/P7/1o/A28t6Cx5uez+dLpVIiOalUesK8K7gcfgpro0bXRh/0ZD8crWKn27YDZu9pmv7Tn/4EI3hbzZ9s+gcPHqytrTU0NISGho6Pj/f39xPTc7lciURSVVWl0+lGRkZWV1eHh4c9PT3z8/NfvHiRnZ0N7YH1Y7FYzG4e2/QREREwWj04OFhaWoqMjKyurjabzbB7An4uLS3dvXtXpVI9f/4cxtNRUVFGo1Gr1fL5/OGjQPJDO3k8XldXl8FgIGNcHx8fhUKh0WgGBgbGx8cZhlGpVFwul5iey+UGBQVNT0+TqgYGBoxGY1tbG5her9cf+7z9/f2npqb6+/vZu9/T0tKqq6sHBwfNZvP8/LxcLvfx8Zmamuru7gYUXl5eUVFR/v7+YPqmpiaSbmV6MvOflpa2u7sLa1TE9ARsTU3N3t5ecnIyScEIEkACSODrJcA2fWFhYWZmJhH/h5se+vPTQTgH03O53IiICGL6iIiIE5oCRk/RptvJrl+V2lH3f4CfwVVhRPa2xck6PQh+cXGRKJ8M8d9r+vb29rm5udzc3FevXuXn5xPTx8fHz87Omkymnp6exsZG0C0xfVZWFrSnpKTk1atXVmsqb5fS19fXW1pa2GP6trY2k8kUFhZWV1e3urra8dsQEhJyrOk9PT31ev3Q0BA7O3wSwcr0arX6+fPner2+ra3t4cOHz58/tzV9SEjIzMyMTqdj11ZTU3Oy6f38/J49ezY4OAiLL7GxsVKpNDw8nMvluru7p6WlGY3Gzs5OPz8/tum5XK6/vz+Px3uv6evq6gBmSkrKzs5ORUUFl8u1NX1dXZ3FYklKSrL9l4ApSAAJIIGvjgCZvd/Z2VlfXzebzcT0Hz57D0VOfe9nnb0HyaWmpmZkZKSmpvJ4vBOaAjr/9z/++4v/6+VVqd2rf331U67LrGXu3/7ff/sQ0x87aU9kf8Ls/YMHD+Ry+f7+fm9v77Nnz8LDw4npc3JyXrx4oVQqYaV8cnKSjOkZhmloaHB3d/f39+/q6jIajVbvMe7u7l1dXevr6wqFwtvbm8/nZ2ZmLi4u9vX1wfz/4eFhSUkJn8/39/fXaDT19fV+fn7Hmp7L5Wo0GpPJBFv/YmJi+vr6wIVWpu/p6Xn27FlYWBiPxyspKbEa0+fk5Hh5efH5/L6+vsnJSZhvl0gkPT09KpXqZNN7eHjAKDwsLIzL5RYVFb148aK4uNjHx8fDwyM9PR32N7i7u+t0urm5OZCxQqF49uxZYWHhe00/NDQEH3aorKw8PDyEWQ0wfWpqKkwFubu7d3Z2Li4uwl6BE/4t4SkkgASQwFdBIC4ujqhdfhTIodXo0fZ2YEceeyMeKfv5duSRZgUHB2dkZJAN3iTdKkJ0vvGz+XYB79//+O9X79v/8f/7I0n/61//alWEy+WSMT1IPS4ujtidHTnZ9AEBAY8fP2YYprKyksvlEtPHxcXNzMzMz8/39/dPTU0NHwUY0x8eHi4vLw8MDDx+/Pjw8FCtVtu2LSkp6enTp7u7u6Ojo8PDw5ubm7Ozs7CnPTAwsLu7e29vb3h4eHR09MWLF42Nje7u7u8yvUQimZ6ehk1t09PT6+vrsIPPyvTl5eUHBwcjIyMwo07G9Kmpqaurq9PT0/39/e7u7pmZmQsLC0ajcXBw0Gg0LiwsZGZmnmx62CsAK+hcLlcoFD5+/Pjg4ODJkycjIyNra2tGoxE2D8pkMlL52tqaXq+Pjo5+r+lHjkJ/f//u7m5PTw/sBsjNzd3b23v69ClM+9+9e3diYmJoaOjY9QVb/piCBJAAErj4BOBTdjs7O5qjALb+qE/ZQZHT3WlwcDAUf6+j386zHr9OTy78dn81ib8rQoy+9mq94Vkj8/8wBY+UJBEitmWtTM+2Ozt+rOmzsrK0Wu39+/dh07tWq4WtXlVVVVqtFm47NTW1qampu7u7qqpKrVbDLHd+fv7h4aFCoeg+CiqV6l0fKBCJRGq1uqenp6+vr7a2lmxbg/VylUql1Wrb2tqUSiXYS6FQaLVaUGZkZKRWqyXT2nFxcVVVVW1tbY2NjZABXkq0Wi2Ms7lcro+Pj0ql6ujo0Gq1OTk5dXV1ZDNBTk5Oe3u7RqOBpqakpNTV1bW3t5MP1Lm7u2u12paWFl9fX1vOXC43PT19fX2dvNMIhcKysrL29vbu7m61Ws2eUU9JSamvr29ra6uqqoqJieFyubC3saqqCmrm8/ltbW1arTY0NBT23tfU1Gg0mp6enqqqKvIZQnd3d6VS2dnZCav4ubm5BwcHH/ULcOyNYCISQAJI4EIROOM355xiIx65/S/5zTlWgieHpHEk8kW+DRdMT9bpSWO+7QiPx2tpaZmZmXnvnNJHcSCmP7lUYGBgf3//8PDwl/qewZObh2eRABJAAt88gfeM6T/k/k/4Czdg+pWVFdt6nJycvv/++ysnhu+//97Jycm27KlT8vPzl5aWLpvpuVxuTExMXl7e+X7NX1RUlMlkqqmpOflxBAUFKRSKd31J0cll8SwSQAJIAAmcncA5mP7sjfhsNXh6egYEBJzXH3r5bM2+sBcKCAh415LBhW0zNgwJIAEkcNkIXC7TX7ani/eLBJAAEkACSABNj/8GkAASQAJIAAl8ywT+iYMBCSABJIAEkAAS+HYJ/BONAQkgASSABJAAEvh2CaDpv91ni3eGBJAAEkACSICm0fT4rwAJIAEkgASQwLdMAE3/LT9dvLcvRcDR0dHe3p79bY8YRwJIAAl8BgL29vaOjo5WXR+a3goIHiKBsxJwdHT84Ycfvt3NPXhnSAAJfD4CNz8+3Lhxw0r2aPqzdutYHglYEbC3t/983QBeCQkggW+awMeL/pcS9vb27H4JTc+mgXEkcA4E7OzsSM/j4OBw49cAv7Hwuu3g4EDyYAQJIAEk8C4CpzO9nZ0duy87B9N7eHjweDx2pSfHb9++HRAQcHIePIsEvl4CbNPfuXOnuLi4lBWKi4vv37/v5ORkJfubN2/a/qrfvHnT0dHRNv1DUm7duuXq6vohOTEPEkACF5aArem9vLxSU1MVRyE1NdXLy8s2z3maPigoKC8vTy6X5+fnZ2ZmfqDvo6Ki8vLyTujHRSJRYGDgCRnwFBK4yATYpufz+S1Hoam5qbGpsbGpsam5qb6+PjMz08nJid25KBSKxMREdgqHw1GpVPfu3bNKfO/hTz/9JJVKi4uL8/LySkpKwsLC3lvkvDLcvXuXz+efV21YDxJAAlYWv3v3bm5ubmBgoOtRCAwMzM3NvXv3rlW28zR9YWGhr68v9LkikSg1NfVc+t/k5OSQkJBzqQorQQKfn4Ct6ZtbmivUFQGJgbnFuZKc5MbGxvr6eg8PD3YvplAoysvL2SN4gUBQUVFxCtNnZGTExMRA5Twer7CwUCAQsK91xji7kVZV3b9/38vLyyoRD5EAEjg1AbbCvby8cnNzaZpmJ9I0nZubazWyPzfT37lzp6ioyMXFhfSk7u7uEBcKhQUFBfn5+Wlpaa6urjRNp6SkhIaGFhQUxMbGBgQESKVSmqZDQkIkEolUKs3Pz8/OzoaXhsTExKKiIoVCkZ6eTmrGCBL4ighYmb65ubmsquye7B7vnntQUnBIcmjxw+Lm5marsa9CoUhKSmKPv2UymVAoJKZPSEhQKpVFRUWpqanQa8TGxoaGhmZnZxcWFkql0lu3bnE4HD6fr1Ao2N1KcHAwKRIaGlpYWFhQUCCVSp2dnTkcjkAggF9DpVIpl8tv374NZUNCQkhOmqY5HE5AQEBSUlJWVlZubi6Hw/Hz88vNzS0sLMzPz/f39+dwOCkpKWVlZfn5+QkJCRwO58aNG6mpqQUFBYWFhUKhEKqNi4sLCgoqLCyMj49nNxLjSAAJHEuALfXU1NTAwEBICToKEA8MDExNTWXnPDfT0zSdnJyclZUlFAo9PDxIRxwQEJCdnc3lcmmajo2NTUxMBNOnpqaC9dmmLywshDV7+CvmUAmO6QlMjHyNBKxM39TcVK6uiM0U+8T5+sT5xmaKK9QVTc1Ntqbn8/nZ2dnw23779u38/PzIyEgwfXh4eHp6OpySSCTh4eEcDic2NragoMDFxYXD4URFRaWkpHA4nMjIyLi4uGO7DD6fDwMCDocTHh6elpYGplepVG5ubhwOJyYmJikpCV4XSM6wsDCpVAqmJzk5HI5UKvXx8eFwOO7u7gUFBXBF9pheIpFERUVxOBwnJye5XA5vA3FxcTKZ7NhNCce2GRORwCUnwPa3QqFwdXW9efNmUFCQ6igEBQXdvHnT1dVVoVCwc56n6WmaDggISExMVCgUDx488PLyomk6KSkpMjKSdNBkTE8m5Nmmz8jIIDnlcrm3tze8QJDM5CxGkMDXQsDa9E1NxQ+LYzJjw1MjfOP9U3JTa+prjh3Tu7q6ZmVlwax+bGzs3bt3iemhs3N1dfXx8UlISBCJRGB6iHA4HEdHx+LiYlA+mQaIjIyU/ho4HE5cXFxISIjHr6GkpARMD8oHwWdkZHA4HLFYHBoa+mtGj9LSUjA9vEyQnvfWrVseHh4CgQAuzeFw2KYvLi4m8/xBQUHJycnQhtDQUFIDRpAAEjiZANvfX8z0pPONiIh48OABTdNpaWnBwcEkHSIpKSkkkW169tK+VCoVCARoeit0ePjVEbA2fXNTRmGmICkoODnkTjRX/CCupu6dpg8NDYVRdVFR0U8//URM7+XllZ+ff//+/fj4+KioKGJ6GNxDT6FSqW7evBkSEkJ87O7uzufzvby8YMydbBNu3LghEAhIfi8vLzC9RCJJSUlhZ79582ZAQADJyeFwJBJJfn4+DNxtTX/r1i2VSkW6MB8fH5lMhqYnQDCCBD6QANv0X2D2PigoKC0tjfTCnp6esKM+9ihAuo+PT1hYGMzeH2v6nJwcUkNeXh6fz0fTEyAY+UoJWJm+ubm5rqEuXp6Qpcr2jfevrKlsbm5uaWmxnb2HD8WVlpYGBQXByjoxvUQiCQ4Ohq7h3r17xPRktdvFxQV0S9N0aWkp+/N1UVFREomEw+GIRKLo6GjSv/z0008wpif+JqaPjo4mswUcDgdysk3P4/FgtR4m521Nz+FwlEolWfUXCoVisRhNT+BjBAl8IAG26b/AjjyapnNycuLj4wUCQWhoqFwuj4mJoWna3d1dqVSGh4cHBARkZGQIhcITTC+TyaKjo728vMRisUwmg549ISEhPj6evBl8pd09NvvSErA1fUNjQ35pfkllSUZhZkNjA3zu7l2mj4+PLyoq8vb2hkV3mIqPjo5OSUnx8PAICgq6f/8+Mb1EIhEIBDweLz09nUzawwdZg4ODvby8oqOji4uLYRmepmmlUhkaGsrn8xMSEsg6va3paZouLCwMCwvj8/nx8fGQk236GzduFBcXBwQEeHh4pKSkENMnJydHRUXBknxkZKRMJvPy8goKCiouLr5z5w6a/gM7d8yGBAgBtulv3rz5BT5l5+bmFhsbm5aWZrWHztPTMz4+Pjk5OTw8HLr7pKQkYu6AgACJRAJ771NTU6OiomQyWXx8PKzo0zTt6uqakJCQnJx8aVWBN/5VE2Cb/s6dOyqVqrS0tKS0BAJ8iQ4xH/l9lkgkMBDn8XgwBGebnsPh3L17Ny0tTSQSRUZGwk632NjY8PBwsVgslUrJ5nao0N/fPyUlRSaTicViMrDmcDi3b9+OjY2VSCQkv0AgIJ/j9/LyIpd2dXW1ygmbckiDIXNycrKXlxf5UN9PP/2UkJAACxAcDicwMFAikcTFxfF4PCgYFxeH6/SEIUaQwHsJWJn+5s2bn/ubc87YHYeEhLDX6c9YGxZHAheEANv08G24Vr+r5/WFuGD69/YUmAEJIIGvl4BV7/GBh+e89/4sfSua/iz0sOyFJWBvb2/1TbefqJdB038isFgtErg4BD5Q7VbZfvjhB3YPeQ7fe8+u7mPj7C/e+diymB8JXEwCjo6O169f/zyyvzj9EbYECSCBT0HASuEfcoh/tfZiqgFb9a0RcHR0tLe3t8OABJAAEvi8BOzt7a3+OD1N0194TP+tdfB4P0gACSABJIAELhgBNP0FeyDYHCSABJAAEkAC50oATX+uOLEyJIAEkAASQAIXjACa/oI9EGwOEkACSAAJIIFzJYCmP1ecWBkSQAJIAAkggQtGAE1/wR4INgcJIAEkgASQwLkSQNOfK06sDAkgASSABJDABSOApr9gDwSbgwSQABJAAkjgXAmg6c8VJ1aGBJAAEkACSOCCEUDTX7AHgs1BAkgACSABJHCuBND054oTK0MCSAAJIAEkcMEIoOkv2APB5iABJIAEkAASOFcCaPpzxYmVIQEkgASQABK4YATQ9BfsgWBzkAASQAJIAAmcKwE0/bnixMqQABJAAkgACVwwAmj6C/ZAsDlIAAkgASSABM6VwFlN7+Liwm5PSEiIt7c3O+WLx5OTkxMSEr54M7ABSAAJIAEkgAS+CIEzmb60tJRhmIqKCtL0V69emc1mckjTdFZW1pt3h59//tnb29vPz29vb2+HFfb29jY2NrZ+DRaLxd/fn6bpsbGxtbW11ePC2tqayWSCS7u7u3t7e3sehbGxMYZhoqKi4NDHx4fdPIwjASSABJAAEvi2CZzJ9EVFRQzDPHjwICUlhWEYjUazt7dnNBrZyLKyshiGqTwKXV1dg4ODEK+srGxoaGAYxtvbm8/nDw8PP378mDkKjx8/Hh4enpubmz0K8/PzkI2m6eHhYYZhqqurR0dHt7e3q6urV1dXnz17Vl1dvbe3R0zf398PVR378/79++wWYhwJIAEkgASQwDdM4PSmDwwMVCqVYHqpVMowTHFxscViMRqNarXaZDKp1WoY0zMMIxaLdTod27tms7m+vp4ovKurS6/XQwa9Xj84OEigw6AcFgXGxsZev3796tcA+eHo559/XlpaglL5+fnV1dWVR2FkZIS8alRVVVVXV0dHR5PKMYIEkAASQAJI4NsmcHrTT0xMEHNXVFQwDFNbW/v69Wt2IjH92toawzCvX7+WSqV1dXUMw6hUKrbpnzx5sr6+DmWNRyEwMDDgKBDTe3h4kMrfFRGLxTRNh4WFvSsDGfd/288V7w4JIAEkgASQABA4venz8/OrqqoYhmlqajKbzcSsRqPx/v37DMMolUpieplMFhsbazAYIFtNTQ1N02zTj42NLS0twdvAs2fPZmdnLRYLqZMM/cvKyoqPQmtra3NzM8MwzUdBcxTKysoCAgKioqJyc3Pz8/Pz8vIUCgWM6RVHIf8o5Obm4uNHAkgACSABJHBJCJze9DRNw+x9ZWUlSFqlUsHsfV5eHsMw2dnZxPSjo6MvX75kGMZgMDx//pxhmK2tLViYh2l5vV6/tLS0tbUFswIGg2Fra2tjY6OlpQXG9LAjr6ysjGGYkpIShmGesoLFYiFT9+Xl5exXhGPjISEhl+QB420iASSABJDAJSdwDqbPzs6G2XuVSrW7uzs/P//mzRvY7k5M39PT09jYCNkYhpmdne3s7GxsbCSDdTB9a2trVlbWs2fPDAbD5ubmxsYGTdN8Pt/X1xeeE+wBzM3NZRhmjRVevnxJpuW9vLzuHYWOjg6GYYxG49OnT2GvwPDw8NbWVlJS0iV/6nj7SAAJIAEkcHkInN70mZmZra2tMGImS+/7+/smk2lsbKypqQkgwt77+Pj4np4ehmFevHgxOjo6ODjI5/PZs/dkOx5UODs7S0wfEBBQUlIiEAhommab/tdteb/8n2EYYvrs7GyYsYeqiouLU1NT4c0A1hqsvgPg8jxsvFMkgASQABK4hAROb/pnz54xDDM5OSmXy2HvvUqlamhoqK2tpWkaxttkTJ+SkiKRSOLj4ysrK2Er3/3799mmh3V6WIN/9uzZ3NwcMX1CQgIYmpge3h5A5OQnmb2Pj49nGKa/v18ul8MnApKSkuBdxGw2y2SyS/iY8ZaRABJAAkjg0hI4velTU1MjIyMBHHyefmdnZ2FhYX5+fnV1lWEYvV5PTE98bBuBdfonT56wTxmNRtjlt7S0tLe3R1b9YUxvPC7Mz8+bTCYQeVhYWG9vL0zaQ7U///wz7B9kGGZjY+PBgweX9pHjjSMBJIAEkMClInB601tham9vN5lMm5ubW1tba2trw8PDIpGIpumMjAyDwSAWi0U2obq6+u3OOz6fT9P0k7/zQnkAACAASURBVCdPlpaWpEfh6dOnBoOhvLx8bm5ueXnZaDQ2NzfD5WAv3uA7wuPHj5OTk9/OKLi5ub169cpisYyPj9fV1d2/f9/T05Om6Xv37kFRq8bjIRJAAkgACSCBb5XAuZn+7IBu3779IZXAm8F7c/r5+b03D2ZAAkgACSABJPDNE7hApv/mWeMNIgEkgASQABL4/ATQ9J+fOV4RCSABJIAEkMDnI4Cm/3ys8UpIAAkgASSABD4/ATT952eOV/z2CdjZ2X2HAQkgASTw2QlcuXLFzs7OqpNF01sBwUMkcFYCdnZ2v//97ykMSAAJIIEzE3A+VbCSPZr+rN06lkcCVgS+++67M/92YwVIAAkggV8IOJ8qXLlyhd0voenZNDCOBM6BAJoee2gkgATOi4DzqcJ3333H7svOZHo3Nzd2XRB3c3NzdXW1Tf/YFIFAcJYvqE9NTVUoFLdv346Njf3AT+pDCwUCAY/Hs22tj48PfkbfFgum2BI41vQ5K/9W9i9/K/vvf3vX77+Dg4PtKQcHBzs7O9v0D0m5fv06l8v9kJzH5nFycsrKykpOTqYoKiYm5tg87MTbt2/fuXOHnQJxe3t7Ho9nm85OycvLg8N3QWBnPl3czs7uLDQcHR3lcnlqaipFUbGxsR/eBgcHBw8Pj2Pzc7ncH3/8kZy6du1aQUEBOcQIEgACzjZBJBLpdLqFo6DT6UQikU0W5/M0/dTUVGNjo1VPt7y8XF5ebpX4UYcFBQVra2vT09Pr6+tdXV3HevfkCpVK5eDgYElJCU3TCwsLOTk5J+eHs2+/SXdxcXF0dNRkMvX09Ny5cwfSw8LCRkdHFxYWZmdnp6enExMTP6Q2zHNpCViZPmVopexf/iH4vO3/qXz+V/gdZv80mUzNzc3sFIqidnd3y8vLrRLfe+jg4NDX13dwcLC4uPjixQvi0fcWZGeYnZ2tqqpSKpVCoZBhmB9++IF9lh0XCARGo3F2dtZoNM7PzwcEBMBZOzs7nU73/PlzaIZCoWCXIvGUlJSKigqKonx9fRmGEQqF5BRFUVFRUfAXL9mJHxW3t7eHZphMphcvXiiVyo8qDpknJyerq6tLSkpCQkLe/jXOGzdufEglzc3N29vbk5OTBwcHKpWKFJHJZHt7e8vLywcHBwMDA05OTnCqsrJSKpWSbBhBAraz9yqVam5uTiqV+hwFqVQ6NzdXVFTk/Ntwzqbf2tpij5jT0tJ2dnbOYvrMzMynT58GBgaCJyorK3t7ez/WGc3NzR/7l2w8PDzW1taCgoLgWjU1NWq1mqbpO3fuGI1G8j35cXFxa2troaGhH9skzH95CLBN78j394o7pu8u/vl/U78NJpPp9evX9vb2JDkxMZFhmFOY/vHjx9XV1VAPj8czGAwpKSmk2g+M7O7ukpzXr18ncdvI9PR0XFwcpCclJc3MzEC8v7+/vr4e4u7u7gaD4ViNTU9Pu7u7E9PrdDr2JXp7e89o+oGBAdIMNze3yclJmUzGvsSHxNk02APxE8pmZGT09vZCBicnp/X1dYFAQFGUWCxeXl729fWFU2VlZWNjYxD39vaem5s7oU48dQkJOLOCSCR6++ffPDw8WGnOHh4ec3NzViP7czZ9c3NzdnY26cQHBgYKCwuJ6evr69/+MdnFxcXOzk7Io1ar5XL5+Pj4/Px8T0+P7Xh9Zmbm3r17pEKapru7u2HaXCKRTE9Pz83NjYyMREREQJ75+XmlUrmwsGAymcDHWq12dXV1ZmZmbGyMpulHjx7dvXuXpmkvL6/e3t75+fmJiQmZTGY1GxESEmIwGMh1XV1dfX19aZrOy8trbW0l6TRNK5VK8jd52ekYRwJAgG36WwERARmFv4zpr12DTip37X8U7P4ne5QP6SaTSaPRZGZmwiFFUSMjI/n5+cT0DQ0NW1tb29vbPT09kEetVstkMoPBYDabHz165OjoSFHU27fVxcVFUgnMvQ8PD5Mi29vbFoulqakJUpKSklpaWoaGhjY3NycmJtzc3K5du7a0tMQwzNLSklwud3JyMplMkDkxMXFlZWVjY0Oj0ej1+pCQEIqiLBYLe37e1dX1baK3t/f6+jq7GbYNoyjKyclpb28Psvn6+k5NTVkslps3b0KKk5OTxWKZmZnx9vaGOsfGxnZ2djY3N8lExcrKSnp6+ubm5s7OTklJCfuK8PawtrbGTrx79+7Q0BCkVFRUbB+FlpYWSBGLxR0dHY8ePdrc3JyamoJXEEJDoVBwOJzl5WWSeXl5eWNjQ6vVPnr0KDIykn2hsrIymKuARFdX12tH/wYmJyetVkOmp6fJTIbZbGbDZFeI8ctJwJkVdDqdVCp1dnamaRr+TAxN087OzlKpVKfTsTKe9+x9dHT0+Pg4dHACgcBgMBQUFIDpc3NzdTodrLVrNJrc3FyaptVq9ezsLEhUpVK1t7ez9QADa3YKifP5/JWVFfjreYmJiTMzM3DKbDZnZWXRNC0SiTY2NiCRPaYnpu/p6SksLKRp2tvbe3Jy0sr08EoxNDT04MEDHx8fcl2tVms1PRAWFjYxMUEyYAQJWBGwMj10TxkzL39Zp/91Gp9E4OzbOTqTyQSvm5DC4/FWVlYUCgWYPisra2BgAFSh1WrlcjlFUWq1em1t7fbt2xRFKZXKrq4uiqJyc3MbGhpItexITk5Ob28vVKLRaMrKyiiKSkpKslgsnp6eUCE4z87Obnd3F7YIODk5ra6uUhTl5ua2v78P0k1MTHz58iWYXqVSraysFBQU+Pn5kctlZGS0traSQ4gcHBwQi0NKVFTU1NQUxMH0arWaTLAXFRVVVlYS08MvI7wfHBwc3Lp1i6Kozc1NWPVwdHQcHx8nswtQ54MHDzQaDcStfmZmZg4MDMAkSkNDQ2VlJQy49/b2fHx8KIoqLy9vb2+HUru7uzCxweFwNjc3KYpycXE5ODiAW46Lizs8PLQyvbu7+8bGRktLi0gkYk+KMAwDj4C0p7Kyktzy48ePrW6BZMPI5STgzAoLCws+Pj6g9p2jAOL38fF5O9xlZTxv0/v5+Y2OjsKguaqqqqioiJgeur+AgACxWFxfX19WVgamLy0thVMuLi6rq6vsXtLX13dhYYGdQuJyuZw9kh4bG4uOjqZp2mw2k+WD+fl5kLSt6V1dXVdWVkhtSqXS1vQ0TScmJjY1Nc3Pz/f29kJVOp0O/j4eKSsQCN7VSJIHI5eZwLGmpygK7O5z/Q9/y/xlshp+ks7LZDLduXNnamoqMDAQpKtUKonpIZubm5tQKGxsbARJq9VqMoq9du3a/v4+RVFFRUXsoSSpn6KoiYmJoKAgSPHw8ICxaVJSUnd3NyRGRESMjIxAnMxXE9NnZmaydxLAqwlkFggEVVVV80cBhqe5ubm1tbVwlvzc3NyE9xKSIpFI4AUFxt9TU1OkYRRFra6u8ng8YnqKoq5du+br6ysWi9fW1uCdY3Nzk2x5S0pK6ujoIJVTFJWXl1dTU8NOIfHR0dGwsDA4vHPnzsbGBpi+v78fEgUCwfj4OMTJew8xfVpamlarJbXNzc1ZmZ6iqB9//FEulw8ODh4cHDx8+JCiqOvXr798+ZKUgkhRURGZudFqtRkZGVYZ8PAyE3BmhS9perlc3tLS8nYOwWQy8fl8YvqYmBiDwdDf319XV1dSUkJMD4N7MMHy8jKXy2VbYXV1lWyFg3QvLy+YM4caILG7uxt2xpnNZrLV/wTTwysPudCDBw+ONT3JUFRUBCsODQ0N+fn5JJ2mabFYPDo6yk7BOBJgE2Cb/qbf311CTB/h8Pcv1SER6MXA9DKZrK2tjaKo7e3tW7duEdNHRESsrKwMDw/X19erVCpiehjcQw0Wi8XBwSE9Pd1qqRs29cC0AZkZdnR0fPXqFYzpOzs7oYbIyMgTTK9UKtnvEE+fPoUxPZSFn1FRUWazmaKoxMREMkkOp65du/bmzRur4ayt6SmK0uv1UVFRIpEIFh2I6cvKyjY3N/v7+ysqKubm5ojpYXBPUZRQKLS6qEQiefToEbuFhMbs7KyXlxec+uGHHxiGAdOTxfXg4OATTK9QKNjvEHq93tb05Lq3bt0aHx9PTEx8+0Kzt7f39u90k1MURWk0GvIcOzo6TrGNgF0bxr8xAs6s8MVm72EFfX19XSqVdnR00DRNTN/a2pqRkQE9YHl5OTF9XV0dJPr6+rLH2ZCo0+kKCgpIvykQCDY3N2maTk5O1ul0JH12djY4OBjG9B9i+rd761ZXVwUCAdTQ0NBgZfqsrCytVkvqj4mJgWX+uLi4Z8+ekXSapjs7O9ktZJ/COBKgaZptehB8SusvA2UY0/9jKH/16j/iR7P38Cm1w8NDiUQCtiam7+joSEtLgy4Mfptg3E8m6t/uLIEF759++unw8JAYnaKogoICeHsYGhqKj4+HSiIiIiYmJj7K9PHx8Xq9Horb2dkdHByEhIR4eHgQNcIo9vDw0N7ensPhvHz5EhYFoEh2djYZLkMKRVHh4eHEpjB7D28Jvb29AwMD0Fpievam9+XlZWL60NBQqDAnJ4cAgRRHR0erZuTk5MAcRm9vL3yGkKKo4OBg2EgoFovJ7Zxs+nv37gFAuND29raV6XU6XVJSErnTlpaWrKwsiqJaW1tLS0tJOk3Tz58/J1Mder3eahWf5MTI5STgzApfbEcemL6urs5kMsXGxrJNX1paqtVqhUKhVCrt7+8nptdoNGlpaeHh4TqdjuzdI4YIDAw0mUzl5eWxsbEymWxmZgYW12maHhsbKyoqioqKqq+vJwv8Hzimp2m6sLDwyZMnCoUCVsWsTP925mBxcbG0tFQsFsN15XI5tKq9vX1gYCApKenevXtarXZoaIi0FiNIwJaAlekpirp6pHkwPRnKkwj0XzCmpyiqoaGBaIOYvqSkpLOzUyAQSCSS4eFhMqbXarWJiYm+vr79/f1kBrigoGBpaSk1NTUiIqK0tJQswwuFwvX1dbFYfO/ePaPRCB5NSkr6wDH928nz8fHx5uZmuVw+MjJCxvTDw8NarVYkEonF4sHBQTKnnZ2dvbq6mp6ebtUMdn/N4XAsFgukENPDLr/t7W1IJ6afm5vLzMwUCASVlZUbGxvE9KOjo0FBQSKRyGKxkM/4kavk5OSQZqhUqv39fdj3HhYWtrm5GRcXJxKJDAaDRCL5qDE9zD20trY+ePDg8ePHtmP69PT0tbW11NRUoVBYUlKys7MDexVh1bKqqioyMlIikRiNRvYH8CwWC/nQHbkFjFxmAs6/DV/gU3atra1g+vDwcLJBnYzpaZqGOfCysrKCggKVSgXr9AqForq6ure3V6lU2vaSNE37+flVV1c/evSoo6OD/eF1Nze3srKy1tZW9nS6RqMhY3qNRgOL6/X19WQbnUajgW0EsGuvqKhIKpXK5XIr0799sw4ICKisrOzs7Gxubk5ISGC3TS6X63S6vr6+oqIidjrGkYAtAVvTs/upMIffj0W4UBT1l/TffK1Ne3s7jOn9/PzIRjCFQgFShz13vb29ZWVlCoUCNnCp1ers7OyampqhoSGrL12JiYnp7u4eGRmpqakh40WKosLCwpqbm1taWqKioqBVSUlJZPU9MjISRv8URRFhOzk5kThFUVKpVKlU+vj4ENNTFJWfn9/f39/Z2cn+7ABFUdHR0V1dXXq9vra2FjzHRgHx0dFR+PiZr68vufGKigpy4+3t7SB1Ho/X1NQEr90PHz6ECYPNzU1fX1/dUSA72K2uAs0YGRmpra11c3MjZ0NCQpqamjQajUgkgkSxWEx28AUHB5Mb12q1sD+Rw+GQRIqi0tPTlUqln5+frekpihKJRBqNpre3t7Kykn1dJyenqqqqkZGRnp4e9v67wMBA8ok70kiMXHICzjbhc39zjm0f994UtVqtUCjem+1TZJDL5UKhEGqura1lr/p/isthnZeWwMmmP8duC0x/jhWeXJW9vT2R3M2bN/f398/yrXPkWjExMVZT7uTUh0Q2Nze/1CCYvBM4ODhsbW2RVf8PafaxeZqbm8Vi8bGnMPHSEnA+VTjPz9Ofoiv/gqZPTk5eWloaHBx8+vTpo0ePbD/Kf4rbwSJIwJbAlStXrl69+hk6ps9seoqimpqaVldX9Xr98+fPybb/s9/pWfT2BU1fV1e3sbGh1+sPDg7YexVPDeQsHE59USx4wQk4nyr88z//M7trOtP33rMr+lriAoHA29v7a2kttvNrJGBnZ/eHP/zh88j+83dS165d8/DwsNpC//mbQa74xVvi4eHB/mZD0jCMIIFzIeB8qoB/tfZrdAe2+SsjYGdnd+XKle8wIAEkgAQ+L4ErV65YaZ6m6Us3pv/KjIHNRQJIAAkgASRwNgJo+rPxw9JIAAkgASSABC42ATT9xX4+2DokgASQABJAAmcjgKY/Gz8sjQSQABJAAkjgYhNA01/s54OtQwJIAAkgASRwNgJo+rPxw9JIAAkgASSABC42ATT9xX4+2DokgASQABJAAmcjgKY/Gz8sjQSQABJAAkjgYhNA01/s54OtQwJIAAkgASRwNgJo+rPxw9JIAAkgASSABC42ATT9xX4+2DokgASQABJAAmcjgKY/Gz8sjQSQABJAAkjgYhNA01/s54OtQwJIAAkgASRwNgJo+rPxw9JIAAkgASSABC42ATT9xX4+2DokgASQABJAAmcjgKY/Gz8sjQSQABJAAkjgYhM4q+ldXFzYNxgSEuLt7c1OOUU8KysrISHhFAWxCBJAAkgACSABJGBF4EymLy0tZRimoqKCVPrq1Suz2UwOaZrOysp68+7w888/274ZWCyWFy9e2KbTNB0SEmI2m9fX19d+G9bX181ms1AoZF8a40gACSABJIAEkMCZTF9UVMQwzIMHD1JSUhiG0Wg0e3t7RqORjTUrK4thmMqj0NXVNTg4CPHKysqGhgaGYby9vd3c3AYHBwcGBvqOAsMwECE/Hz16VFRURNN0cHAwwzBPnjzR/zaMjo4yDBMREcG+NMaRABJAAkgACSCB05s+MDBQqVSC6aVSKcMwxcXFFovFaDSq1WqTyaRWq2FMzzCMWCzW6XQMK5jN5vr6ejC9u7v7mzdvWCePicLMQVBQEMMwk5OT478NT58+RdPjv2YkgASQABJAArYETm/6iYkJIuSKigqGYWpra1+/fs1OJKZfW1tjGOb169dSqbSuro5hGJVKRUxP07SHhwePx0tLS4Mhu9Fo3Nvbi4qKcjsK7u7u0HQwvdFonPttMBqNCwsLkZGRtneIKUgACSABJIAELjOB05s+Pz+/qqqKYZimpiaz2UwEbzQa79+/zzCMUqkkppfJZLGxsQaDAbLV1NTQNM02PU3TIpFof3//zZs3Dx8+hNeIyqOgVquTk5PhIYWFhTEMs7q6umwTVldX19bWbt++fZkfJ947EkACSAAJIAErAqc3PU3TMHtfWVm5tLQEw3SYvc/Ly2MYJjs7m5h+dHT05cuXDMMYDIbnz58zDLO1tfX48WOYvadpOjMzEzKQNwZ2pKCgANotEokYhnn69OlvJ+9/OVpdXWUYBk1v9YDxEAkgASSABC45gXMwfXZ2Nszeq1Sq3d3d+fl5WHSPiooipu/p6WlsbIRsDMPMzs52dnY2NjaC6SMiIsDru7u7y8vLkZGRsO4eGRkJLxN5eXnwnGQyGcMwDQ0Nh4eH5FXgzZs37u7ua2trr169uuSPE28fCSABJIAEkIAVgdObPjMzs7W1FXRLlt739/dNJtPY2FhTUxNcCfbex8fH9/T0MAzz4sWL0dHRwcFBPp/Pnr3XarVisRhMT9M0mJ7P51uZHl4OsrKyDg4OxsfHHz58ODg4+ObNGzc3N4vFsr+/b3V7eIgEkAASQAJI4JITOL3pnz17Btvg5XI57L1XqVQNDQ21tbU0TcPH3cmYPiUlRSKRxMfHV1ZWwhr8/fv32aaHx7C7u7uyskJM39HRodVqyZI/VMswTHBw8PPnzy0Wy/b29s7Ozps3bzw9PRmGWVpauuSPE28fCSABJIAEkIAVgdObPjU1lex1h8/T7+zsLCwszM/Pw5K5Xq8npicz7bYR9jfkHBwcrK2t0TQNbwPl5eUMw+zt7d27d4+m6bKyMoZhRkZGaJp++fLlkydP2traBgcHGYbp7e1lGGZoaMjq9vAQCSABJIAEkMAlJ3B601uBa29vN5lMm5ubW1tba2trw8PDIpGIpumMjAyDwSAWi0U2obq62mAw8Pl8UlVISEhwcDBN05OTk7CEzz5L0/TAwEB8fDxN0zKZTCqVvh3lu7m5QWaz2ZyUlESqwggSQAJIAAkgASRA0/S5mf58abq5uZHP0H9Iza6urh+SDfMgASSABJAAErhsBC6o6S/bY8D7RQJIAAkgASTwiQig6T8RWKwWCSABJIAEkMCFIICmvxCPARuBBJAAEkACSOATEUDTfyKwWO2lJmBnZ/cdBiSABJDAZydw5coVOzs7q/4XTW8FBA+RwFkJ2NnZ/f73v6cwIAEkgATOTMD5VMFK9mj6s3brWB4JWBH47rvvzvzbjRUgASSABH4h4HyqcOXKFXa/hKZn08A4EjgHAmh67KGRABI4LwLOpwrfffcduy87k+nd3NzYdUHczc3tLJ9uP7ZO26t80pSgoKA7d+7YXsLPz4/9jX62GTAFCdA0fazpc1b+rexf/lb23//2rt9/BwcH21MODg52dna26SenHFvVyUXO5SyPx3N2dratytnZ2c3NzTadpNjb2+fl5cHhsY0/NpEUf2/kjMXfW/97M7i4uLyLAI/HYxdPTEyUy+XsFIxfcgLONkEkEul0uoWjoNPpRCKRTRbn8zT91NRUY2OjVee+vLxcXl5ulfjhh48ePfoMX3WnVCoTExNtW1VSUrK6uqrX65eXl9m3lpiYOD09PTs7azKZ9Hp9eHi4bVlMQQJAwMr0KUMrZf/yD8Hnbf9P5fO/2nZeJpOpubnZKn13d7e8vNwq8eRDZ2fnvb29k/Ocy1mlUknqSUhI2NjYmJqa2tzc1Ov1xPc8Hk+v1+/s7KysrKyvrycmJpIi7EhlZaVEIqEoKjk5mWEYUhzyKBSKN2/esPN/VDw0NHR6evqjipwis4uLCxsIqcHLy2tmZmZ+fn52dvbtX/cODw8np7Ra7eHhoclkevnypUqlIukrKyu3bt0ihxi55AScfxtUKtXc3JxUKvU5ClKpdG5urqio6Le5ztv0W1tb7D8Jn5aWtrOzc/FNr9FoUlNTrcwkEommpqZ4PB6kDwwMZGZm0jQdFha2trYWFxcH6ZmZmfPz8+y7tqoHDy85AbbpHfn+XnFSyiYU//y/rdJMJtPr16/t7e1JemJiIsMwF9b0u7u7pKkHBwcCgQAOS0pKtFotxOfm5rKzsyEeHBxssVhCQkJIKRIhryZg+uLiYnLq7TqlyWRiGIad8lHxz2N6Lpc7Pz9v2zC9Xp+amgrpIpFoaWkJ4h0dHW1tbfC4XV1dx8fHc3Nz4VRpaemxLw22lWPKZSDgzAoikWhubs7Dw4OV5uzh4TE3N2c1sj/nMX1zc3N2djbp2QcGBgoLC4np6+vrTSbT4uJiZ2cn5FGr1XK5fHx8fH5+vqenh2iV1HDsmL6goMBoNM7NzT1+/FggEHh6ek5MTJAiTU1NRUVFNE1LJJLp6em5ubmRkZGIiAjIwM45MTHh4uJSW1u7trY2MzPT3d1NKqFpOjU1VafTkZS3f/MelhKampqUSiVJp2lao9Hk5eWxUzCOBAgBtulvBUQEZBT+Mqa/dg16pdy1/1Gw+5/sUT6km0wmjUaTmZkJhxRFjYyM5OfnE9M3NDRsbW1tb2/39PRAHrVaLZPJDAaD2Wx+9OiRo6Mj7N8h4iRVOTg4vP112zgK9fX1FEXl5eW1traSDG/nq2AkrVart7e3LRZLU1MTnJVIJMTciYmJ7e3tFEUtLy8zDLO8vBwTE2M7i+Dq6kpRVEpKyuPHj8klKIq6f/9+X18fO4WiqMjISL1eD4nJycktLS1ra2skT3h4+MTExOHhIaRERUXNzc2tr6+vrKwkJCRQFOXo6LiyslJeXr6+vr6xsSGVWr9XHWt6Dw8PvV6/vb29ubkJWm1oaCB+5fF4s7OzcEWtVruxsbG5uVlWVgYpqqMA8aKiIpVKdevWLQLEw8MDTsHPlZUVX19fkgJkaJq2ekaenp7b29uQLTQ0dHJykhTByCUn4MwKOp1OKpU6OzvTNC09CjRNOzs7S6VSnU7HynjeY/ro6Ojx8XHo4wQCgcFgKCgoANPn5ubqdDoXFxdQY25uLk3TarV6dnbW19eXpmmVStXe3k76R4jYmv7u3bt6vd7Hx4emaYVC0dLSQtN0T09Peno6FFlZWfH29ubz+SsrK/Dn9RITE2dmZuDsxsYGuYTZbCbtsR3T3759W6/Xd3Z2pqWlsb9132AwWE3XS6VSrVZLqsUIEmATsDI99FMZMy9/Waf/dRqfROAsjFxDQkIMBgOk8Hi8lZUVhUIBps/KyhoYGLh29Lqg1WphKVetVq+trd2+fZuiKKVS2dXV9S7T19TUVFZWQs0GgyEsLOynn37a39+HlMTERFByTk5Ob28vXEWj0YDbjjU9RVHsMX1XV9fk5GRmZiY0Bqqtq6sj41RIuX379tbWFsTJz9zc3JqaGjgE0w8PD9+7dw9Suru7U1JSiOn7+/ujo6MpivL29t7Y2ADTMwyTlZVFUZS7u/tbeVu59ljTt7a2QpEbN24cHBy4uLgEBwcbjUa4qFKphPeh2tpaaNv169eHh4fhNcLW9BRFvWtMn5ubu7m5WVRUFBAQQG45MTGxt7eXHEJkY2ODy+VSFHXz5s2zzGFYVYuHXzsBZ1ZYWFjw8fEBte8cBRC/j4/PwsICK+N5m97Pz290dPTu3bs0TVdVVRUVFRHTQ98XEBAgFovr6+vLysrA9KWlpXDKxcVldXWV3UXSNG1resjgFNiwhwAAIABJREFU5uYmFApzc3P7+vpomk5LS4Pxt0Qi6e/vp2laLpc3NTWR2sbGxqKjo2ma/nDTQ1mZTNbe3r66ugqvFDRNGwyGwMBAUjNN08nJyezRP/sUxpHAsaanKArs7nP9D3/LdKcoCn6SbshkMt25c2dqaiowMJCiKLVarVQqiekhG/wWNDY2goPVanVJSQmcunbtGpjbdoRNLuHp6RkdHT08PAzr5UNDQ2KxmKKovr4+WCafmJgICgqC/B4eHsvLyxRFfYjpYWje0NCwsrIyNjYGrtVoNDKZjFydoqgbN268/XvT7BSKoioqKgoLCyERTC8Wix89egTOs1gs165dI6anKMrBwUEgECQmJh4cHIDp2WfZtUGdx5qeoqhr1675+PjExMQsLS35+/vDy5a3t/fb687NzcFixPb2Ntk0IBKJhoaGKIr6KNNTFOXr61tRUTE3N7e0tARvMDBUsOIwPz8PV6coan9/n8PhWGXAw8tJwJkVvqTp5XI5SNFkMvH5fGL6mJgYg8HQ399fV1dXUlJCTA+De/DB8vIyl8tlu8HW9N7e3nq9fmRkpKmpiZiepumVlRU3NzetVguDe6VSCZeA2rq7u2HP3ceanjRGo9GUlJTQND08PCwWi0k6TdP5+fn19fXsFIwjAUKAbfqbfmGkewLTRzj8/Ut1SAQygOllMllbWxtFUdvb27du3SKmj4iIWFlZGR4erq+vV6lUxPTsfdoWi8XBweFY06ekpGxtbfX391dXV3d1dYHpk5KSurq6fvzxRzKTbDKZyFZwR0fHV69efbjpyW1mZmaOjo7+8mZTVkaWHuCsj48PvD2QzGB6Mm0OpqcoamNjw83NraCgAIbUxOVtbW2rq6sdHR0qlQomFRwdHTc3N0mFOTk5ZPYCEo81fVFR0ebm5sDAwMOHD6empsD0KpWqvLwchkdQlv1e4u/vDyvxH2t60rbw8HB4GxMKhU+fPiXpEDk4OLh58yaJf/HPC1g1Dw+/FAFnVvhis/d+fn40Ta+vr0ul0o6ODpqmielbW1szMjKg+ysvLyemr6urg0RfX9+VlRXSP0LE1vQKhYIUSU5OhjE9TdMNDQ2ZmZnLy8tQ0GqcPTs7C3/qnszYu7m57ezsnDB7X1NTQ3YY0DSdl5cHOi8sLIRbI019+vRpfHw8OcQIEmATYJsehvIprSNkTP+PofzVq/+IH+07u3PnDkVRh4eHEolEp9NRFEVM39HRkZaWBn0N/DbBuL+hoQESXV1dQdjHmn5xcZHsmOvv7yd74Hd3d9PT08mS/NDQUHx8PFQYERExMTFBURS8EEBiZmYmrNOzZ+/j4+PZc9G+vr6w7ywgIGBjY+OHH36AshRFNTU1VVRUkEOIZGdnk7sgpi87CsvLyzA9AKb39PQkO9ocHBzAmo6OjgzDODk5QW2tra3svQ4URR1reoZhfvrpJygyPz8PpufxeKurq+Xl5fn5+XDKZDLBKdhkAPdeVFRE1uzVajVsmz929t7Z2ZlN5u34fm9vD/bV7+3tsefz09LSxsbG4KLXr18nbzaQgj8vMwFnVvhiO/LA9HV1dSaTKTY2lm360tJSrVYrFAqlUml/fz8xvUajSUtLCw8P1+l0bLNCX/no0aPk5OSkXwNM0z158iQ6OjohIWFgYICYXiQS6fX6hoYG0smOjY0VFRVFRUXV19eTHQBDQ0P19fXx8fE6nY6Yvrq6uqamJjk5mZSlaVokEpnNZoVCERsbm5ubu7q6CvP/NE0PDQ21tbWJxeLk5OT+/n6NRsMuiHEkwCZgZXqKoq4eTd1/yJieoqiGhobt7e3IyEi26UtKSjo7OwUCgUQiGR4eJmN6rVabmJjo6+vb398PA2gwfQwrUBTV1dVVVlYWGBiYnZ09Pj5OTN/U1DQxMUH2wwuFwvX1dbFYfO/ePaPRCNZ3d3dnGCYtLS05Obmjo4Nt+rcfruPxePb29ktLS1VVVUKhMCkpCTbrQNfc0NAAr8URERHNzc0Gg4EtfsgTFBQErxTwKbuWlhaKot4unL969Wpk5Jc3JHj7gfn2vb29hISEgICAjo4OMnu/v7/f1dXl6emZkpKys7MDOxOhIDE9i0fM2yWA6enprKwsgUBQVla2vLxMdD46OrqxsUFm7NPT0ycnJ6OiouLj43d2dmBp4+7duxaLJSEhITMzs6amBkwPCxOxsbHkuhDp7+/v7u6+d+9eTExM71GA9PT09O3t7YyMjPDwcKVSeXh4SF7FoqKiYFLEqio8vJwEnH8bvsCn7FpbW8H04eHhra2t0NmRMT1N00VFRZ2dnWVlZQUFBSqVCtbpFQpFdXV1b2+v1YZ2KN762xAVFUXTdGZmZk9PT319vVgsfvjwIelVp6eniYxpmnZzcysrK2ttbc3Pzyd5/P39m5ubtVptREREY2MjjOldXV1ra2tthX337t26urru7u66ujqhUEgqgXvp6+vT6XRZWVnsdIwjASsCtqanWCHM4fdjES4URf0l/ZftVyS83R0CY3o/Pz9iU4VCQYaPSqWyt7e3rKxMoVDAdLdarc7Ozq6pqRkaGiooKICqnJ2d238bKIq6fv16ZWVlb29vbm7uw4cPycD97da8hYUF0gaKosLCwpqbm1taWqKiokh6YmKiTqerqqpKTEwk4++7d+92dXXBSryzs3N5eXlvb69WqyWVQ/HU1NS+vr7h4eHS0lJbzUOejY0NmKxOTk4m9Xd0dJA3EgIkLCxMq9V2dnYKhcKHDx/COv3W1pZIJOrv7+/o6CBL3aTxoaGhbB7wOQI3N7eGhoaBgYGUlJSHDx/6+flB/vT0dNgiQIrHxMS0trY2NDSQHQxvn11mZmZvb69KpYK995A5KSlJp9OxPzEP6bDPsaurC/YAkprDw8M7OzthuOLu/svWDQjV1dVWOX89g/+/jAScbcLn/uYcqw7uQw7VarVCofiQnO/NExkZ+ezZs/dmwwxI4DMTONn059hXgenPUmFlZSVZIz9LPWcsm5eXx95w8FG1OTo62u7n/6ga2Jl7e3vJ6wU7/bPFr127trS0BB9/+GwXxQtdZALOpwrn+Xn6U3Sg52X6jo4Ok8mUkJBwijZgESTwSQlcuXLl6tWrn6HvOIvpHR0dLRbLyMjIBZEKfArgFNDOy/Rvv+vaYrHAJxVP0YzzKhIZGcmeTTmvarGer5eA86nCP//zP7N7uTN97z27IowjASQABOzs7P7whz98Htl/vf3XObb8grysnOMdYVVIgBBwPlXAv1qLPkICn5yAnZ3dlStXvsOABJAAEvi8BK5cuWKleZqmcUz/yTt9vAASQAJIAAkggS9IAE3/BeHjpZEAEkACSAAJfHICaPpPjhgvgASQABJAAkjgCxJA039B+HhpJIAEkAASQAKfnACa/pMjxgsgASSABJAAEviCBND0XxA+XhoJIAEkgASQwCcngKb/5IjxAkgACSABJIAEviABNP0XhI+XRgJIAAkgASTwyQmg6T85YrwAEkACSAAJIIEvSABN/wXh46WRABJAAkgACXxyAmj6T44YL4AEkAASQAJI4AsSQNN/Qfh4aSSABJAAEkACn5wAmv6TI8YLIAEkgASQABL4ggTQ9F8QPl4aCSABJIAEkMAnJ4Cm/+SI8QJIAAkgASSABL4gATT9F4SPl0YCSAAJIAEk8MkJfCbTu7u7BwYGuri4sG/Iy8vLw8ODnZKens7lciElKSkpKiqKfRbjSAAJIAEkgASQwMcSOL3pS0pKdlihra3N/NvQ399P07S7u/vc3Fx1dTXDMA0NDdC+uLi48PDw4eFhhmFSU1Mh0cXF5eDg4NWrV76+vjRNb2xsvH792upV4GNvD/MjASSABJAAErjkBE5v+pycnPZfA8MwNTU1cMQwDETA62lpaQzDgNSHh4f1er1arX7z5o3RaOzr62MYJiIiAp6BTCZjGKalpQUOFxcX9/f3L/njwdtHAkgACSABJHBGAqc3PU3TBoOBOQqPHz8WCARTR4FhGIjAYH1sbIxhmPX1dfi5sbHR1NT04sWLmZkZK9PPzs4yDGMymZaWlhYXF3d2dt68ebN4FJaWlmpra894q1gcCSABJIAEkMAlJHB603t7e4eFhY2OjjIM8/Dhw7CwMIZhJn4NDMNIpVI3N7f29va+vr62tjaGYbRHoaOjw9b0arWaYZitra2lpaXl5eXFxUV4hwDTLy8vo+kv4b9OvGUkgASQABI4O4HTm76rqwtkzP6pVCoZhsnLywPT8/l89lmIv3792sr0mZmZcGpra4umaTc3N7PZvLa2xjDMwcGBv7//2e8Ta0ACSAAJIAEkcDkJnN70ycnJWVlZsNVuZGTEbDYzDAOmz8nJAdPTNK1QKGpqamDIXltbW1NTU1VVZWV6Lpd7cHBgNpvB9BqNhmGYubm57e1thmGGhoYu57PBu0YCSAAJIAEkcHYCpzc9XBtMv7W1BXvuwPT3798npm9oaLAa1j958uTVq1dknT4sLIymaT6fD6avqKhgGEan0xmNxp2dnfr6eoZhuru7z36rWAMSQAJIAAkggUtI4HxM/+DBg4KCAoZhGhsbGYZJT08npq+rqyMp5eXlP//889jY2N7e3tzcHOzIi4yMBO5geoZhlpeXJyYmlpaWXrx4MTExAXv6njx5cgkfD94yEkACSAAJIIEzEjgf0wcEBNA0nZWVxTDMwMAAwzCtra3QMjB9UlISwzAajebNmzdPnz6FU2B68vU4YHqTydTc3Ly1tbW3t8cwjNlsfvz4sV6vT0xMPOOtYnEkgASQABJAApeQwJlMbzabLRYLwzB+fn6Dg4MMwxiNRh8fH5ix7+rqomkaRvkwn9/a2grfn5OcnLyxsbG/v88wDBnTb25u7uzskGewsbHx/PlzcogRJIAEkAASQAJI4BQEzmR6rVbb1dVVWFhI03R6enptbe3t27ehEbW1tQkJCRDn8XjwrTiVlZVubm6QuL6+vrGxodVqSaO3t7ctFgs5NJvNh4eHrq6uJAUjSAAJIAEkgASQwMcSOJPpP+piVl96b1v29lEg6a6uruS9gSRiBAkgASSABJAAEvgoAp/P9B/VLMyMBJAAEkACSAAJnAsBNP25YMRKkAASQAJIAAlcUAJo+gv6YLBZXzUBOzu77zAgASSABD47gStXrtjZ2Vn1n2h6KyB4iATOSsDOzu4Pf/gDhQEJIAEkcGYCzqcKVrJH05+1W8fySMCKwJUrV878240VIAEkgAR+IeB8qnDlyhV2v4SmZ9PAOBI4BwLfffcd6aKuXr36448/OrDCjz/+aG9vf/XqVZIHI0gACSCBdxFwPlX47rvv2H3ZmUzv9mv4DJ96//VSf/84Pvse3hvPysqSy+Xvysbj/f/svelXU1u673//gVP1ft8atbfWue4JiIjNzkJEQGSBQgSklx6kifQKhtBFQAwQukAChh7pwRBCQiBAgEAQ0XLvbcY9NX7j/s6oO8at3zm3TlXtenVe1ouf8hynywQQMNg+z9gjPmuu2X6ymd81m6zpudMtDEcCByDAVfpLly49fvz4Gcc2NjYePnx45swZK7GnDwNOTk47/c2/T7iDgwMU4ezsvN98fH19b9++HRkZuW3C48ePOzo6bnuLG1hYWAiXtKXcu/byb9++HR8fb6/cMB8k8NEJ8GwsOjpaqVTqt0ypVEZHR9tE4dlT6VUqFRQ2Pz8/ODgYFBR0gG5xL0n8/f3NZjOUZTQa93VWvVKpbGxsrK6u3raggIAAlUq17S0MRAIHI8BV+uDg4L9v2V//9tc//+XPf/7Ln//6t7/+6U9/Gh0dPX36NLcT0ev1pi1bX1+fmJjw8fHh3n1/v6ysbGNjA4pYWFhISEjYY548Hu/58+elpaUhISHbJhGLxUKhcNtbNFAsFqenpxNCEhMTnz9/DtV4/PhxeXk5jWMXx9XV1WAw2CUrzAQJfAoEeG9bSUmJVqsVCATslgkEAq1WW1xc/HYseyt9eHg49Ib5+fmDg4MH6xnfmcrf339ubg6iubm59fT07DJGt8pNrVazLGsVSC9R6SkKdOxFwFbpf/n7Ly/+3xc3WtJnNvTt2gd//o8//+lPf+Lz+YRjer0+ICAAArKzsycmJjg37eCWlZVVVlZCRnw+/6effnJxcdlLvoGBgePj47vE3IvSP3nyxMHBAZS+r68Pcjt79qzBYIiIiNgl8wPcam9vT0pKOkBCTIIEPkECPI5FR0drtVpvb29OGM/b21ur1VqN7O08pqdK7+XltbKyAn1lUVGRXq/X6XStra30PXc3b97UarXT09M9PT1wIo6np6dGo6mtrdXr9SMjI3w+f3h4eG5uTi6XW/W5XKWHo3QaGxsZhpHL5RkZGXq9vry8nGGYlJQUtVo9PT09ODh47do1hmFUKpXZbJ6ampJIJAzD5OfnT2/Z8PAwRACll0qlWq1Wp9MJBAKrovESCeyXgJXS/+2Xvz3/f55XDd+7WhUsUGTmKPM2/ueTv/3yt+DgYG63wlV6V1fX58+fw907d+6YTKalpaX29nY6sZ+ammrcssHBwQsXLhBCXF1dFxYWpFKpyWRSq9UXL16cnJw0m80PHjyAfLhKTwhRqVTBwcEODg5Go1Emk62trbm7uxNCJBLJ2pbV19cTQq5du2YwGF68eGEwGPz8/Aghcrl8bW1teXlZJpNBzqD0U1NTS0tLQ0NDbm5u3HYRQkJCQsbGxiAwMTGRKj0UB/MBnp6eIyMj0KiUlBSI7OzsrFQql5aWVlZW7ty5A4H379/PzMycm5szm80ikai8vBxerX39+nWIIBAI5HI5+PiJBD53AjyOKZVKgUDA4/EYhhFsGcMwPB5PIBAolUpOxEMb08fFxanVapDbgYEBWPwuLy9vbm5mGObq1auzs7OBgYEMw2RmZr5UdIZhPD09zWZzcnIywzCVlZVTU1Pe3t7nzp0bHh6Ojo7mdq9WSl+5ZaD0crkcHiZYltXr9Xw+H+owNjYGOajVaniw4PP5g4ODUIesrCylUskwTEBAgNlsBoHn8/kLCwu7TABwq4Q+EtiJgJXS/+Vvf/n5f72oHZfGNsTH1MfVjktf/K8Xf/nbX3dR+pcP0HNzc4SQuLi48fFxV1dXQkhZWVlrayshxMfHZ3V11cvLixCSmpo6OTkJSm+xWGJiYgghlZWV8/Pzp0+fdnJyUqlUMOtupfQbGxuenp4ODg4Wi4XO5AuFQqrfLS0toMGBgYFUpysqKhobG8mWDQ0NxcXFEULEYrHJZDp37hwhJC8vjyvkEDMvL08qlYJvpfRDQ0Og6yqVKi0tjRDi7e398kkDFi9aW1tLSkoIIadPn1apVFDc/fv3R0dHHR0dL1y48OLFi9zcXEJIQkKCSqWCIgICAoxGI/j4iQQ+dwI8jun1epZlQdrNWwbCD/LHiWhvpe/Ysp6ensXFxRs3bjAM09rampGRAZ2gu7u70WhkGKasrEwsFtOeUafTBQQEeHp6GgwGCBQIBPS0m6amppfP7DQywzCg9KItezk6n5ubCwgIAKWHQhmGKSgoqKysjHhtMzMzIPBU6SFDLy+v8PDw3NzcoaEhUPrZ2VlallQqzcvLo5foIIEDELBW+r/+ZeN/PpGM1RR034lvSurUd//v/+9//+1v24zpe7dscHDwyZMnoGrt7e3JycnQVTk5OW1ubhJCSktLxWIxBBJCXo5oX06Pubq6rq+vQ+CNGzfa29vBb2lpSU1NhQeF6upqoVBYVFT08OHDjo4OQoiDg8PGxgbNampq6urVq4FbFh4ePjIyQgjhKj3E9Pb2joyM7OzszM7OBqWn6wKEEKgkzZMQUl5eDoINs/cajQZaOjs729vbSwhxd3fnLq5XVFSIRCJCyMbGBncaQ6FQEELu37+fn58P+c/Pz58/fx5yWFxchEAej7e6usqtAPpI4PMlwOPYR1P6uLi469evSySShoYG6BO7urpiY2Np/7iwsHDhwgWJRHLr1i0aODQ0FBYW9nLcT1ff36n0BoMBlD4vL8/b2xuyksvlKSkp4JeXlz948EDGseDgYIZhqNJ7eHj09fUNDw83NjYWFhZSpX/06BGt2N27d0UiEb1EBwkcgICV0v/1b38dWR5LkwuyHuRcFgdKJxr++Kc//vLLL7Zj+vDw8JCQkJqamqamJrJlDx8+DAsLAx+Uz8XFRSKRwEAWwlUq1ZUrV1xdXc1mM4TspPT3798Xbhk8Rtgq/eLiouJts1L6+Pj45eXl3t5eiUQilUqp0tN99YSQ5eVlHo9H6wwPGWVlZRACY/qQLXvx4oWnpycUwd0KkJ+fX11dzX12IYREREQMDg7aKr23t7eV0ru6uppMJm4F0EcCny8BHsc+8uy9j4/PyspKSEgIwzA1NTVCoRD6x4CAAL1ezzDMrVu36uvraadpNBq9vb33pfT0mYBmAmN6qvSZmZl0VoBhmMuXL0NMqvTcCDExMVTpzWYzPUu3o6MjLS2NWwT6SGC/BKyU/pdffvk///5/miZlU+ua+MakP/zxD7/88svf//53W6WHHXlnz559/vw5LIrX1tYWFBRAJ+Xp6QkClpOTQ6fQYQx9+vTpvSg9d+QNeVqN6UdGRsLDw+HWhQsXYMsed0w/PDxMN9DJZDKq9DDaJoS4ubnZjumzs7Nphbmz91VVVW1tbTA5z03V3NwMOa+ursIuBELInTt3JBLJXpQ+MDBwZmYGWoGfSOBzJ8Dj2MffkVdeXt7e3g5L8gaDQSAQxMfH9/X1FRYWMgzj7u4+NTV1+/btiIiIlpaW2tpaWKen+v3OMT2Nye12uWN6hmHGx8eLi4ujo6PLysps1+kjIyOnpqZit6ynp4cqvUajaW1tjYqKEolE3PE9tyD0kcDeCdgq/b//+d8Xfr/49A9PR5fH/u9//N+/b9lOSg+D4M7OTliSX19fT0lJiYiIGB4evn37NiHEyclpfn4+NzeXz+crFApYAreL0sfExBgMhoSEhPDw8MHBQZhC5yp9fX19TU1NYGBgZmbm0NAQVfrq6uqcnJygoKC+vr67d+9a9a1XrlxRq9UQyFV6FxeXZ8+eXb58mRDS0NAgl8uDgoLy8/MXFhZg0v727duwuzY1NXVjY+PixYt7Ufrc3Fz6YGFVE7xEAp8dAd7b9hF+ZSeTyeje+3PnzslkMthJd+3atZqamubm5vT0dNo/sixbVVUlk8noNL6npyfs14NthHT+XyqV2q7Ty2QymhV1Ghoa6JgeHh3ggaO8vJy+D6e5uRkW7BmGycjIaGtra2hoiIiIqKysZBjmypUrd+/ejYuLa25uvnfv3qVLl2jm6CCBgxHgKj19c87m080nm0+ebD55+uzp73//+42NjUuXLnE7HblcTn9l5+TkJJfLYSedn59fbW1ta2sr95djbm5uVVVVCoUiJycHMnF1dYX9eoSQGzdu0Pn/hoYGWKcvLS3ddkxPU0E+ISEh9fX1ra2tkAqm1rlxxGJxZ2enUCgsKyu7efMmIaSoqEggEIhEora2NlofbtMIIUaj8dSpU7BO39LSQu8KhUKaeW5urlwur6io4E7+Jycnw9gAJjkIIdXV1XSdvrW1lc7e03z6+vp2eskPLRcdJPC5EODZ2Id+c87B+kFMhQS+bAJcpYe34Z48edLFxeXklrls2fHjx63ekfe59DsHq+etLTtY2n2l8vDwoJvw95UQIyOBT5MA70Bmz9/Tf9n9NbYOCRyMAJ5ws22PSbcBbnvXXoExMTGwHGCvDDEfJPBxCfAOZHjCzcF6b0yFBPZKAE6t/aqG7B+3K8TSkcAXTIB3IMNTa/faX2M8JHBgAo6OjkeOHPkODQkgASTwYQkcOXLE0dER3qNHe7D3OsuO5oIOEkACSAAJIAEk8GkSQKX/NL8XrBUSQAJIAAkgAfsQQKW3D0fMBQlwCTg6On7YGTssDQkgASTwigDM3nO7I4ZhUOmtgOAlEnhfArAj7wveIoRNQwJI4IMR4B3IcEfe+/bjmB4J7E4Af2X3wTpBLAgJfPEEeAcy/JXd7r003kUC70uA++acL74bwgYiASRwqAR4BzJ7vjmHHgxDu8ZLly5FRUXRy/06Hq/Nzc1tv2nT0tIKCgroS3Ctku8UbhUNL5HA+xPgKr34D/8Q/+EfZ66EWv13ws3DqneA42S4gT/88ENQUBA3ZC++y2vbS2RunFOnTuXm5tKX4HJvgX/y5EnbQKuQwsJCeJetbXMCAgLgDHurJHu8fN0slz3G3z3aXtqyew70rlAoxHf1UBro2J0Az8Y+9Ntwp6am4GRY2jmKxeLx8XF6uV9nenpav2ULCwtdXV17fwt9YWHhw4cPy8rKdipRp9P5+vrudBfDkYAdCdgqve0fv19yppXYGwwGX19fbkyxWKzVarkh7/SDg4MtFotpyzY3N8vLy9+ZhEaYnJysrq4uLS2lIVwnNDR0YGCAG2Lrh4eHw8vnf/jhhydPnlhFGBsbq62ttQrc4yWPx6Ptevr0aXt7+x4Tbhvt5YECo6Oj2946QKCfn9/Q0NABEmISJLAXAry37SOccGOr9O/ZXU5PT1+9ehUyKS8vl8vl3Ax3GehLpdKcnBxuZCsfld4KCF4eHgGu0u/yl3zmSij3rq3Sc+/u0Q8ODp6amoLIp0+fnp2d3ftZL48fP96llL0ofXd3d2joq0Ztq/S7ZP7OWzwej/voIJfLxWLxO1PtFGGPSu/g4LBTDlbhKpUKh/VWTPDSXgR4HPs4p9baKn1aWhocT5eTkyORSHp7e2dnZ/v7++novKCgYGZmRqvVtre3286oc5X+0qVLi4uLDMPk5OTcu3dvYmJiYGCAYZjAwMD+/n6tVqvRaAQCAcMwTU1Ni4uLU1NTcFJtTEzMyMiITqebnp6mZ+LpdLrs7OyZmZm5uTk4xe7wOnrM+SsnsFelv3yN2xfYKn1iYiIMkQUCQU1NzdDQ0Orq6ujoKD3qLT8/f3naZVFDAAAgAElEQVR52Wg0dnZ2urq6EkK4Sk8IEYvFZWVlhBCVSpWVlfX48eOMjAxCSEZGxtLSktFofPjwIcyoGwwGi8ViMBjgYNzi4uLl5eWlpaXh4WE3NzdCCCj9gwcPjEajwWCgx9hzm/DTTz/B5bZKX1dXl56eTghpaWlJTEw0GAxms5keQAcH166srKytrd2/f5+bLSHESunj4uL6+vogTlNT0/Lysslkoif1KRSKhISEhYUFs9ksk8loVgqFYnl5eXFxMTo6mo7p4+LiDAaD0WgcHx+H4/L8/f1HRkYGBgZe0iaEODo6trW1LS0traysFBUVQW6jo6MZGRnr6+v03N59TZ/QKqGDBN5JgMcxpVIpEAjg/XeCLWMYhsfjCQQCpVLJiciz5zr97kqv1+sDAgIYhqmrq5NIJAzDJCQkDA0NeXt7MwwjEolaWlqsJIGr9PHx8aOjo6D0Op2Onjw7OjqamprKMAyfz5+dnWVZlmEY7pi+ra0tOTkZIiwsLEAROp1OKpUyDHP+/Pne3l54RLAqHS+RgF0IWCm9cOMvsFpv9Wn1F7670ptMJk9PT0JIfX29RCIhhERGRqpUqtOnTxNChEKhQqGwVXp6jKxKpaLyGRAQMDs76+7uTgjJzMzs7++Hmjx+/Pj48eOEkPDw8ImJibNnzxJCRCIRTLmHhob+/PPPUVFRhJCrV68+fvzYasjr4+NjNBohq3cqfW9vr5OTk7Oz8/T0NJx8IxaL6dx+Z2cnKChFZKX0ZWVl9fX1hJB79+5VV1cTQhwcHPr6+uBJQqFQdHd3Ozg4uLi4zMzMvNR1Qkhtba1UKqUxQenPnTtnMpng2Pu4uDiYDvH397dYLHw+H0qXyWQikYgQcvLkSZVKBbmNjo7S2hJCkpKSenp6aG3RQQJ2JMDjmF6vZ1kWpN28ZSD8LMvq9XpOxA+o9I2NjdBvJicnK5VKhmEaGxvT09MjXpvBYLDqWKenp0VbJhaLZ2dn4Xj7nJyc2tpaiBkQEDA8PPw6g4iGhobs7GwrpQc5Dw8PT0tLW1paOn/+PMMwOp0uKCgIMrlx44ZCobAqGi+RgL0IcJX+lC//+7390e+u9HRsGhMT093dTQiRyWRJSUmBr219fR2UXqPRCLessbFxdnbW2dkZxvR0erm6ujonJ+d1usDnz5+DZluJt6ur65UrVwoLC5VKJYzp1Wo1bUp/f7/VugB3SvydSg+SDIfNwyyCwWDg8/lQq5iYGCvhhHX63i1Tq9UzMzMeHq+2NC4vL9NUiYmJDx48IIQoFIobN25AVWtqavLy8iAmJCGEvHy2AKXPz8+vqKigKFZWVjw8PPz9/bnn3prNZhohOzu7rq7uZc6jo6P0UYAQcu3atYmJCQoHHSRgRwI8jn2KSt/Q0ABdJ1V6pVIpe9us+laq9IWFhdeuXYO7XKW/fv36o0ePuHkUFBRYKb1UKtXpdC0tLeXl5QaDgSo9XUGIjY3t7u62KhovkYC9CHCV/nJehZOTE9mymZmZ1dXV0tLS1dVVnU4HgfRzd6VvamqCmFTpu7u7FW+bldILBAIYo4PS+/v7Qw4ymay9vZ2bFDaiU6X39PTUaDRjY2NNTU25ublU6R8+fEhr29rampKSQi+h6LGxMQh5p9LTHf5VVVWg9Ovr69wqcWf16ex9yJZptdq0tDQo6NmzZ7apFApFUlISRJBIJKD0GxsbdL99cHAwKH15eXlXVxc3B19fX39//0ePHkFyV1fXH3/8kRuhoaHh5a3R0dHAwECIQwgJCgpCpac00LEvAR7HPsXZe1ulv3fvnlAopP0pTOPTS4ZhuLP3NJyr9CzLvlxrp7fCw8PBp7P3fn5+s7OzNMLi4iJV+ri4OAgvLCysq6ujcdBBAvYlwFV6mLEnhLycJYZ1X+gFVldXTSYTt0fYr9JXV1cXFhbSHGAa32qdnt5VqVRU6UUiUUVFBb115swZ8KnSi0QiuuadlpZGlX5lZYWm0mq1XKkjhHh5ee199t5W6dVqNc3w0qVL9PEISuTO3sfExCwuLkK4TqeDxXVCCHW2VXqtVvty1gFS5ebmgtKnpaXBqgeEw6Cfq/TwxcFKByGEzotYKX1aWprVJARkiJ9I4P0J8Dj20XbkJXPM3d2duyPPVukDAwNnZ2ezs7MjIyObmppkMplVD/tOpYf9d83NzREREVlZWUajkc/nW43p5+bmBAJBaGhoY2Pjyw04VOkfPnyYmJiYnp6+sLAQFhZmVTReIgF7EeAqvejpL9m9M3tU+hiOHT9+nLsjz3ZM7+3tvba2JhAIrl692tLSIpfLbdfpaS/DVfqzZ88uLy/n5uYGBQXV1tb29vZCNKr0ycnJY2NjfD4/JiZmcHCQKv3IyMj9+/eDg4Orqqq2/V3Z5uYmKDSM6TmtiSGEcHfk2Sp9cnKyVquNi4uLioqamJiAgTitP1fpXwaOjo7CTEB6erparY6JiYmOjlar1Tdv3oTZe9sxfWZm5vT0dHR0dGJiYldXFyg9IUSr1QqFwpCQkNLSUo1GQwixUvrbt28PDw9HR0fHxMTMzc3BrgIrpa+urqab9Wid0UECdiHAe9s+wq/sZG+br69vWloabHzjDsSTk5ObmpqgG7169Wp1dbVMJissLLTtWGUyGf2VHb0L2/jpJcMwt27dam5ulkgkoaGhEC6RSOiv7CIiIpqamuRyeWJiYmVlJSj93bt3r1y5IpVK6+vr3+fdPtxqoI8EtiXAVXrCMZ1OR2fvZ2ZeyT/X5G8bj8dLTEyEuWKBQADLw4SQmJgYumbv4+Nz//59uVwOsgdKbzXvDUW0trbSMT0h5Pz581VVVQqFQigU0jq0trbSTXbZ2dm9vb21tbVxcXEwvg8ODhaLxSkpKQqFory83GrMDZkoFIqYmFei/sMPP7zdmldPIbW1tbA839DQYKv0hJCwsLDGxkbYf0BrBQ6Px4NHGbgMCQmhl3TY8HIPL9xtbGykSl9dXU0fGuDJqbq6+sqVK/RHeq6urmVlZZ2dnWVlZTC97+/vb8UwISFBJpM1NTXRrQmtra10BoIQotPpvL29reqMl0jALgR4Nvah35yzbTeHgUjgKyewk9Lb5c/+U84kICDgK5zEDgkJgWmPT/mrwbp9vgR4BzJ7/sruK+/QsflIYFsCX/MJN3FxcbBj4PPtWPdb87i4OLqQv9+0GB8JvJMA70CGJ9xs2zljIBKwGwE4tfb77/f487p3/qVjBCSABL5eArwDGZ5aa7cOHTNCAjsRcHR0PHLkyHdoSAAJIIEPS+DIkSOOjo7wHj3aQf036qGDBJAAEkACSAAJfHkEUOm/vO8UW4QEkAASQAJI4A0BVPo3LNBDAkgACSABJPDlEUCl//K+U2wREkACSAAJIIE3BFDp37BADwkgASSABJDAl0cAlf7L+06xRUgACSABJIAE3hBApX/DAj0kgASQABJAAl8eAVT6L+87xRYhASSABJAAEnhDAJX+DQv0kAASQAJIAAl8eQRQ6b+87xRbhASQABJAAkjgDQFU+jcs0EMCSAAJIAEk8OURQKX/8r5TbBESQAJIAAkggTcEUOnfsEAPCSABJIAEkMCXRwCV/sv7TrFFSAAJIAEkgATeEEClf8MCPSSABJAAEkACXx4BVPov7zvFFiEBJIAEkAASeEPgfZXe29s7JCTk0qVLkOXVq1cDAgLc3NzelLDlXb16lRvi7u7OvUQfCSABJIAEkAASOCQC76v0N2/etFgs9fX1UL+6ujqLxZKTk2NV3fHx8R9//DE2NpZhmLKyMovFUl1dbRUHL5EAEkACSAAJIAG7Ezi40ufn509OTqpUKovFouIYXE5OTopEIqhuSEiIxWKZmJjQ6XQqlaq4uNhisdy6dcvujcEMkQASQAJIAAkgASsCB1f6wsLCubk5vV5vsVj0HIPL2dnZ8vJyKKy1tdViseTl5RmNRrPZLBKJLBbL7du3ZTLZ2tqar6+vVZ3wEgkgASSABJAAErAXgYMrPdQgPT3dYrHMccxisaSmptL6ZWRkWLYsODgYlL63txdC4NPb25tGRgcJIAEkgASQABKwLwH7KH13d3fXlnV3d3OVPiAg4Pe//z0o+tTUFFfgi4qKJiYmXrx4Yd/2YG5IAAkgASSABJAAl4B9lJ4r4VylZxhmfn6+o6PDYrHMz8+vrKzQ2ftbt27pdLonT55wa4M+EkACSAAJIAEkYF8CB1f6gICA4OBgmL2vq6ur2DLYe5+amhocHBwUFMQwTGhoKCg9nb2Hdfr5+XmLxaLT6ezbHswNCSABJIAEkAAS4BI4uNLrdDqrobzV5dLSEpRkpfSlpaUWi0Uul2u12urq6uDgYG6F0EcCSAAJIAEkgATsSODgSi8UCktKSkQiUVtbm0qlEm1ZX19fW1ubSCQqKSkpLi6GilopfXJycllZWUxMTFRUlMViefjwoR3bg1khASSABJAAEkACXAIHV/rk5OT29nYYx/f19YWGhnp4eHR2dkJIb29vbm4ulARKf+3aNZixn5+f1+l0s7OzELOyspJbIfSRABJAAkgACSABOxI4uNIHBwc/f/58ZmYmLy+PW6GcnBytVmuxWMLDwyEcNuSHhYXl5uaq1erl5eXV1dWVlZWZmZnGxsZz585xk6OPBJAAEkACSAAJ2JHAwZWeYRgvL6+dqnLx4kV66+LFi/7+/vQSHSSABJAAEkACSOCDEXgvpf9gtcSCkAASQAJIAAkggYMRQKU/GDdMhQSQABJAAkjg8yCASv95fE9Yy8+LwLfffvurX/3qn9CQABJAAh+WwK9//etvv/3WqsNEpbcCgpdI4H0JODo6/va3v3VEQwJIAAl8cAIODg7fffedo6MjtyNDpefSQB8J2IHAkSNHPvhfNxaIBJAAEvgvAg4ODkePHuX2Zaj0XBroIwE7EEClxx4XCSCBj0vgyJEj3L7svZTe47Vxc9yX7+HhsUt8T09Pq7u2IdwIKSkp3Etbf/fibOPvN+Sw899vfTD+RyGwk9J7eHicOnXq4/79Y+lIAAl8DQTsqfSTk5P6LTMajf39/VFRUfvqWFNTU+Vy+S5JOjs709PTaYSLFy8uLi7SSysnNDTUbDb7+voyDFNcXBwREWEVITw8fGJiwirw/S+Li4vPnz8P+czNze3yjoH3Lwtz+CwI2Cq9n5/fzMzM1NTU6uqqTCb7GjoabCMSQAIfkYCdlf7atWvQ+aalpS0uLgYEBOy9L7av0jMMQ4fUXV1d169ft6rJISn97OwsVXdUeivmX+elrdKPjo4mJyfDn/3k5GRkZORH7AKwaCSABL54Aoel9AzDlJWV1dbWQufe0NAwNzen1+tbWloghM/n9/f3azSa6enpxMREhmFA6R88eDA7Ozs8PBwYGGglDLuM6XU6nVAo1Ov1c3Nz8DpeNzc3jUbDMIxCoTCZTFNTU1KplJvhTkpfV1en1+tnZ2clEgmtfEZGxuTk5NzcnEwmo5k0NDTo9XqNRpOcnDwyMsIwjFqtNpvNU1NT+fn5L6PNzc3l5ubOzs7Oz88XFBTQhOh8VQRsld7b25v2LAqFIi0tjV6igwSQABKwO4FDVPqQkBDQP5FIRKfl29vbs7KyQIBv3rzJMMy1a9daW1tB6efm5kJCQhiGKS8vh0CuJOyi9EtLS7du3WIYJjIycmVlhWEYNzc3g8EAyfc+pheLxfTpRKFQQJ4NDQ1dXV3nz593d3cfGRlJS0tjGKayshJU/9y5c0qlElrKMIzVmF4kEkEbTSbThQsXuM1B/yshYKv08GccGRl5+/ZtnU534sQJu/9hY4ZIAAkgAUrgEJU+KChIpVLR3jwgICA+Pl4mkxUVFTEMU1dXJ5PJwsLCaITU1NT29na4DA8PHxwcpLfA2V3p6Vy9Vqv19/d3O5DSq9XqiNeWlJTU0dHBMExDQwM9iK+yshLEW61WBwUFQcXi4+N3Unp3d3eIMz4+HhwcDD5+flUEdlL6Bw8ejI+Pt7e3u7i40D9IdJAAEkACdidwiEqfnJzc09PDMExCQsL09HRXV1dNTU1lZSUoPcMwIpGor69vYWEBtJO7Th8WFrZfpaf74Kanpw+s9DA/L+MYKH12djaI0927d6G2s7OzsN2PYZjQ0NCdlJ6u2Y+NjaHSf1UCTxu7k9LDH3NlZWVdXZ3d/7AxQySABJAAJXCISt/V1QWz3w8ePIAZb4ZhJBIJKD2VST8/P7PZ7Obm9k6ll0qlYrGYdqDx8fFqtRoul5aW7KL0w8PDdJd+UFAQjMgbGhpslX5gYID+ii8vLw+Vnn4v6FgRsFJ6Z2fne/fu0b/AhISE7u5ueokOEkACSMDuBOys9MlblpWV1dnZqVQqocurqqpqbGyMiIjIysrq6uoCpe/o6BCLxZGRkUVFRfBrt3cqPZ/Pn5+fr6qqSk5OLigomJ+fh5V+hmF2V/rW1tbS0tLk5GRuFww78qDC8MkwTHp6+sTEREpKSmJi4sDAAGyj21bpk5KS5ubmioqKSkpKmpubqdKrVKqsrKzIyMiXZXH33uOYngv/q/KtlN7R0XF4eLixsZHP50dFRc3MzKSkpNj9DxszRAJIAAlQAvZUejrnXVdXx/3hO+zDb29vLysrKy0tLSwshI6+rKxMoVDcvXsXTq9PTU19uUUfboWFhXF3uVNh8Pf3v3v3bltbW11dXXR0NA1vbm6mY/rm5maYvW9uboYIPj4+UqmUZg6B4eHhtMLgQHhsbKxUKm1qasrIyICQuro62zE97LMTiUT5+flhYWFU6cPDw1taWsrLyxmGkclkdPZeJpPh7D3w/No+bZXeycmpvLx8cHCws7MzISGB/jWigwSQABI4DAL2VPqvqgePj4+nTzO5ubmdnZ1fVfOxsXsnYKv0h/GXjHkiASSABHYigEq/9x77rZhhYWGPHj0aHBwcGhpSqVShoaFv3cYLJPCawNGjRx0cHHb6C8RwJIAEkMChEnBwcPjd7373ukN69e97vfeem9FX4l++fNnf3/8raSw282AEnJycjh07hmJ/qH0ZZo4EkMBOBI4dO+bk5MTtvlDpuTTQRwL2IeDo6Hj06NEjaEgACSCBD0vg6NGjVjKPY3r7dOuYCxJAAkgACSCBT5YAjuk/2a8GK4YEkAASQAJIwA4EUOntABGzQAJWBL799ttf/epX/4SGBJAAEviwBH79619/++23Vj0SKr0VELxEAu9LwNHR8be//e1Om2UwHAkgASRweAQcHBy+++47R0dHbkeGSs+lgT4SsAMB/D394fVimDMSQALvJODg4HD06FFuX4ZKz6WBPhKwAwFU+nf2RBgBCSCBQyVgzzfneLy2c+fOvU8H6enp+T7JMS0S+KQI7KT0J0+ePNS/bcwcCSABJAAE7Kn0arVav2UGg6Gvr49l2QN0uMHBwXDgzQHSYhIk8AkSsFX6ixcvDgwMPH36FLshJIAEkMAHIGBnpb927Rp0tcXFxY2NjQfodveo9G5ubgfIHJMggQ9PwErpAwMDV1ZWUlJSnjx58gH+wrEIJIAEkMBhKX1UVFRvby/0qunp6RqNRqvV9vf3BwUFMQzj5uam1WpfPgrMzc35+fkxDNPQ0KDX66enp2/cuEHH9PHx8Y8ePdJqtSMjI1FRUQzD+Pv7j4+Pt7W1zc3Nodh/eNHCEg9AwErpWZb94YcfeDweKj32v0gACXwYAnZW+uvXr0dGRsbHxw8ODgoEAtDmxcVFOLA1NTX10aNHoPRmszktLQ36zfLycnpGrVwuB6V/uVo/NzcHkwTx8fEajQZyM5vNCQkJB+hwMQkS+CgErJQe/rBR6T9MB4elIAEk4OjoaGelf7BlHR0dExMTKSkpDMPcuXPn/v37tIdVqVQhISFubm4LCws0cHx8nE77R0dHg9JnZGRIpdKI1zYxMREaGurv7z81NUUTooMEPn0CqPTY1SIBJPBxCdhZ6algh4SEzM/Pv3yT/t27d0UiEe2Oe3t7r1+/7ubmBnchfHp6mp4IFxQUBEpfUFDQ2dkp49j169f9/f3VajXNDR0k8OkTQKX/uH0clo4EkMBhKT3DMIuLi15eXpmZma2trbQ7hoV5K6V/+PAhTAAwDCMQCEDpExMTe3p6aEI+nw+z96j0lAk6nwUBVHrsZ5EAEvi4BOys9MlblpKSUlNT8/DhQ+iIHz16dOfOncjIyKYtg3V67pg+LS1No9EkJyenpKT09PSA0jMMMzAwIBaLo6KiioqKYNIex/SfhbZhJbkEUOk/bh+HpSMBJGBPpacT7U1NTSKRiO6Nv3jxYkVFhUwmKygogB7Qzc2tubmZ2xsmJSU1NTXV1NQEBgbevXuX3iouLpbL5ZWVlb6+vjCmt0pIY6KDBD5NAjspvUKhwA4ICSABJPABCNhT6T/NfhZrhQQ+LoFtlf4D/G1jEUgACSABIIBK/3FVAEv/8gkcPXrUwcEBexwkgASQwEch4ODg8Lvf/Y7b1eIJN1wa6CMBOxBwcnI6duwYiv1H6eOwUCSABI4dO+bk5MTty1DpuTTQRwL2IeDo6Hj06NEjaEgACSCBD0vg6NGjVjL/8tfvqPT26dkxFySABJAAEkACnyYBVPpP83vBWiEBJIAEkAASsA8BVHr7cMRckAASQAJIAAkcBoFvv/32V7/61T+9y379619/++2321YAlX5bLBiIBJAAEkACSODjE3B0dPztb3+7l22GDg4O3333naOjo22lUeltmWAIEkACSAAJIIFPgsC+3s/h4OBw9OhR23qj0tsywRAkgASQABJAAp8EgX0pve15tdCGQ1f6C6/t3Llzh43tdVEX7F7QhQvWeSYkJHh4eNi9IMwQCSABJIAEkAAl8HkovcFgWN2yjY0NtVodEhJCG2Bf58qVKxaLBcra3NxUKpXe3t67FFFUVHTnzp1dItBb169f1+l09BKclZWV4uJiq0C49PHxqaio2PYWBiIBJIAEkAAS2DsBK6XPyspSv20Mw3BX8a3egwsFHWRMHxMTk7GdxcTE2NbeYDBERkZC+J07dw7vCNorV66sr6/TCty7d29ycpJe2jpVVVXck3VsI9CQbZWe3rV1/P39FxcXbcMxBAkgASSABJDAvghYKb2bm5vXa7t06ZLZbObKvD1n7z09PbcT+gxPT0/bBnCV3svL68cff4Q4YrF4bW1tZWWlq6vL3d0dAnNzc5e3bHR0NDAwkGEYLy8vo9Eok8lWV1e1Wm1wcLBGo1lfX+/u7rYqy0rpGYaZnJxMT09nGCY4OHh8fHx9fX1tbQ3UvbS01Gw2r66u6vV6hmG8vb37+vpWVlZWV1dtj87bVulHR0evX7/OMExiYuLs7KzRaNTpdKGhoZ6enouLixaLZXFxMTQ01KqSeIkEkAASQAJIYO8ErJSeq+stLS0FBQXcEHsqPcMwYWFhVmIfFha2bdW5Sp+YmAin1GdkZExOTnp5eTEMU11drVQqQY/NZvPVq1cZhsnLy9NoNKD0FosFBLuurm5xcfHixYvnzp3TaDRxcXHcEm2VvqqqSiKRMAzz4MGDoqIihmEuXrz49OlTlmUZhuGO6Zubm2tqaiA3vV5vNTmxu9LPz89D/IyMjLa2NjhpF8f03K8GfSSABJAAEjgYgZ2UnmXZ1dVVK5m3s9KfP38+LS2Nin1aWtr58+e3bYbBYBjcstHR0c3NzYyMDIZhurq6srOzIb67u/vTp08Zhrl37x4IM4SvrKzw+XwvL6/Hjx9DSE5OTldXF/gPHjzIy8sDHz5tlb60tLShoQHuurm5hYWFpaenLy4uhoeHWyk9xAkODr5x48b4+LhAIODmvLvSP3r0SCKRcIfvOHvPpYc+EkACSAAJHJjATkrf2tpaWFh4uErPMMzVq1ep0sNAfNuWGAyGxMTEuLi4pqYmGPIyDDMyMpKYmEjjP3nyxNPTs7GxEUbeED41NRUZGenl5UVX3/er9DKZrKysDER9dXV1YGCgrq5Oq9XaKn1+fv7a2trDhw8bGhp6e3v3pfQXL16sq6ubnp42mUzw+IJKT79ZdJAAEkACSOB9CGyr9N7e3o8fP7aVeTuP6RmGcXNzS05OzsjISE5OdnNz26kldPb+0qVLz58/h0n+5uZm0GCGYfh8/urqKsMwQqFQLpfTfJ4+fXrx4sUDK72vr++TJ0/4fD7DMBaLxcfHB3I2GAy2Sr+8vAyBDMMMDg7uS+mvXbsGOcfGxi4vL+PsPf0G0UECSAAJIIH3JLCt0re0tBQVFX0IpWcY5vLlyxkZGZcvX96lJVTpYUm+r68PluQfP36ck5OTnJw8Pj5eWlrKMIy7u/vi4qJIJIqOju7s7JTJZLBOv68xffqWFRcXLywsVFZWQsW0Wq1IJIqKiqqpqTEajSDqIpGor68PdgD09fVVV1dHR0eXlJRMTk5uq/SQM3wyDEN35M3PzwuFwpiYGJlM1tPTwzCMh4fHjz/+mJ6e/gFeIbALebyFBJAAEkACnzsBW6W/ePHi+vr68ePHP5DSvxwu0xHtTjQ7Ojror+zOnTvX0dEBO+nCwsKam5uVSmVWVhZN6+fnV1dX19HRIRQKIdDLywv26zEMk5OTQ+f/W1tbbdfpO7ass7Ozrq4uNjaWZhsQENDS0jIwMJCbm1tXV0c3D9bW1sLCv6enZ319fV9fX3FxcV1dHcg/TX79+nXIGT6hPkqlEvbeBwQE1NfXd3Z2isVimiQzM7Onpyc5OZmGoIMEkAASQAJIYL8EbJV+lwG9/Wfv91tdjI8EkAASQAJIAAnsi4Ct0m87lKeBdntzzr5qiZGRABJAAkgACSCBgxE4evSog4MDFfLdHQcHh9/97ne2BR3kHXm2uWAIEkACSAAJIAEkYHcCTk5Ox44d26PYHzt2zMnJybYOqPS2TDAECSABJIAEkMCnQsDR0fHo0aNH3mVHjx7dVuYZhtm30h87duw3v/nNN2hIAAkgASSABJDAJ0PgN7/5zbFjx+1XwBIAACAASURBVJjtbH9Kf+zYMUKIr68vi4YEkAASQAJIAAl8MgR8fX0dHBy2Ffv9Kf0333yDMv/JfK1YESSABJAAEkACbwj4+Pj89//+321H9ftW+jdZoocEkAASQAJIAAl8SgS++eYbVPpP6QvBuiABJIAEkAASsCsBVHq74sTMkMDOBFxcXL5DQwJIAAkcMoEjR46cPHmS2xWh0nNpoI8EDouAi4sL7F0laEgACSCB/RDgHci4Yo9Kz6IhgQ9A4MiRIwQNCSABJLB/ArwD2ZEjR9jXhkr/mgT+iwQOk8B3331H0JAAEkAC+yfAO5B999137Gv7bJQ+4G2D+gcEBLxuyEf7NzQ0NCQk5KMVjwV/JgS2VfpbC/8q/sM/xP/yD7KDubi42N5xcXFxdHQkhHh4eLAsaxth7yEub5uDg8Pe09olZn5+fnR0NCGEVgSaZpfMd8qElrVThPcJd3Z29vb23pakh4eHq6srN3OhUMi9RB8JbEuAZ2PR0dFKpVK/ZUqlMjo62iYK7xCVPmFXY9/D1Gr1LMfy8vJYltXpdFevXn2PXPeUNCwsrLKyctuoPT09k5OT09PTHR0d20bAQCQABKyUPrV/QfyHNwJfuPZvoqd/JzY2Ozvb2NhoFfz48eO7d+8SQhobG4eGhqzu7uuys7PTxLGysrJ9JX/PyDweT6vVQiZGoxEqsrGxMTo66unp+Z6Z75Tcx8fHYrHQspqbm52dnXeKTAgpKChIT0/fJQL3llQqNZvNKpVqc3OzvLyc3kpPT9/Y2Jifn9/Y2Ojr6+PxeHCrvLw8OzubRkMHCWxLgPe2lZSUaLVagUDAbplAINBqtcXFxW/HOkylh4IP41OtVickJFjl/GGUPioqSqVSWRXNsqxEIpHL5RDe1dVVVlZmGwdDkAAQ4Cq968XLl+IFxMZKf/pPq7DZ2dmff/7ZycmJhiclJVksFlB6GngABwadnZ2daWlpB0hulyQlJSV0UGs0Gn18fCDb27dvDw4O2qUI20x8fHyMRiOEHz9+vLKycvenpaqqqvz8fNt8bEPS09P7+vog/PTp0/Pz8yEhIYSQ6OjopaWlgIAAuFVSUvLo0SPwvb295+bmbLPCECTAJcDjWHR0tFar9fb25oTxvL29tVqt1cj+EMf07KHZ7kofGxs7PDw8MzOj0WhycnKgFnq9XiKR6PV6jUYTExMzODhoMBh6e3tpHevr6w0Gw9zcnEwmg0CpVCoSiVQqlcFg6OzsZFk2ODh4enrabDZPT09HRkbStCzLarXamJgYCElLSxsbG+PeRR8JcAlwlf7MldArWUWvxvSvZ8tvG/8ofPwf3FE+2bLZ2dnm5mbusG9wcPDOnTug9Dk5Offu3SOE3Llzp6SkZGJiYm1tbWBg4Pjx45C8vLx8bW3NZDLJZDIIiY6OVigUjx49WlhYIIRsq/QKhSIhIWF+ft5sNtOEMIWwvLy8urpaXV0NubW0tCQmJs7Nza2vr2dnZ0skkqWlJaPReO3aNUKIVqulQ/OioqKmpiZIRT81Go2/vz9ccpXezc1tfX0dwktKSlZXV1dWVlpbW2lCgUCwvLxsNBr7+/vd3NwIIQzDGAyGpqYmk8k0MTHh5+en0WjMZjM3FSTnKj2ETE9Ph4WFEUL8/PxGR0fX1tZWVlZu3bpFCCkuLt7Y2DAajSqVihDC4/F6e3sBQlVVFa0POMXFxZQMIeTcuXOwEjEyMpKYmMiNPD4+HhMTAyELCwv0EYcbB30kQAnwOKZUKgUCAY/HYxhGsGUMw/B4PIFAoFQqOREPc0y/6+S99Yic3Y+p1eqUlJS41wZJ6Zh+amoqKyuLZdnY2NiFhQWY0l9ZWSksLGRZtry83GAwhIeHsyzb09NTUFDAsqxYLFYoFJCPXC6vqKhgWVYqlY6MjPD5fJZlBwYGhEIhy7Lbjun9/PzMZjNtQXBw8Pz8PL1EBwlYEbBSerJlWVPPX63Tv57Gpw7cfSkts7OzQUFBGo0GQjw9PRcWFgoKCmyVfnZ2lmEYQohSqRSJRISQ9PT0/v5+mJqurq6ura2F8eXTp0+ptIDS+702WEVWKBTd3d2Ojo4uLi4zMzOwjl5RUSGRSKAa3d3dmZmZhJCWlpbu7m5CCMuyFoslNTWVEJKRkfHw4UNCiEQiKSkpgSRarTYoKIi2C5ynT5/ShxKu0l+/fh2afOPGjcHBwRMnThBCqqqq6uvrCSGXL19eWFhwd3cnhGRlZY2MjIDSWyyWyMhIQkhtba1erz958qSLi4tOp7t8+TK3XFulr6qqKioqIoTI5fKMjAxQ9KdPnwIN7pi+oaEBWuTg4LCwsPDyyYCbs4eHx+Liokwmi4mJ4a4IWCwWq/0W5VsGabu7u1NSUrj5oI8ErAjwOKbX61mWBWk3bxkIP8uyer2eE/EwlZ49NFOr1UMcAzEGpY+NjR0YGEh6bR0dHbCKv7Ky4u/vz7JsWlra4OAgVK22tlYsFrMsOz4+npKSAonS09OHhoZA6eEuy7J3796tqanZSekDAgJMJhNtbmBgoNFopJfoIAErAtsqPSEE1J11/h//yPYihMAneW2zs7Pnz5+fnJwMDAwkhFRXV4tEom2Vng4xBQIBjJ77+/sjIiIgpx9++GFtbQ2Uvqur63X2r8b0YxwDMVYoFKDZoNYwd724uMjn8wO3LC4urrOzE5SermGvr6+Dnvn5+U1NTYEk63Q6QoiPjw9MIdByYQve5uYmDTEajb1bNjIysrGxAY8XPT09169fhzinT5+GgX5VVRWd8yeEmM1mGN+srKxAzMzMTDp/oFQq4+PjaSlQGTp7D+HFxcVisRh8R0dHPz+/uLi4lZUVb29veMKwmr2/dOlSdHT0o0eP4MGCm/nx48ezs7N7e3s3Nzfp+P7Zs2fcOISQwsJCerexsdEqf6vIeIkEeBz78pV+p3X6zMzM8fHxdo7BWHx3pddqtZwUr1xQerrcvrvSsyy7srLCvraIiIilpaXXV/gvErAmwFX60/6vlm/BQOlDXf4ZLqkDl6D0mZmZLS0tL1VqbW3tzJkz2yp9RUUFJMnIyACde7kvjDuc/fnnn0HpQaQh8k6z98nJyRBBIpGADj158kTBMZgVb2lpoc8E6+vrZ8+ehTlwUHpCiE6n8/PzE4vFdHAP2RJCnJ2drZT+2rVrISEhTU1NNTU1EG1sbIzP59Mkz58/J4Q0NTXRxwsowsfHh2GY5eVliLlfpZfJZLA+UlVVZTKZurq6KioqZmdnbZU+KyvLZDJ1d3ffu3evv7/fVulpVU+dOjU0NARwTCaTh4cHvUUIkUqlhYWFENLU1JSXl8e9iz4SsCLA49gnMXvPHprtsk4fFRU1PT1NS6YPBLsr/cDAQEZGBqSKiIgIDAzcr9IPDw9nZ2dDDkKhENb1aTXQQQJcAlylh6F8quzVpjNQ+jdD+e+/f+Nvzd6fP3+eEPLs2bOUlBSlUgm7wW1n722VXqFQCAT/te/v8uXLer3+fZReo9HQ5waWZWFD3zuVvrCwsKKiYn5+/sKFC8TGnj59Sqe16ey9u7v7zz//DCpLNRgWCAwGAwyI6TqCk5PT5uamk5PTgZXew8Pj+fPnsPDBnWZ/+VsAW6Xf3NyEQELIyMiIldIrlUruIwiV8/r6ejrj8vLR5MyZM48fP6b59PX1JSUl2bDBACTwhgCPY1/+jrwsjiUlJXF/ZadUKltaWpKSkoRC4eLiIizJ7670mZmZ09PTubm5sJxZVVW1k9IHBQWZTCYq6uxry8nJmZ6eTk1NzczMnJubS0tLe30H/0UC1gSslP6lVHy/JfN7GdPDKHBtbQ02ju1xTB8YGLi+vp6YmBgdHa1SqWAFOjo62mpMn56eHsMxQohCobAd09+4cUOj0cTGxsK2FRgEv1PpeTze0tLSTpvbuUN2qvSwSCGXy2H+f319PSkpKSoqamJiAjYHnDp1anl5OSsri8/nK5VK2JO4X6WHFt++fdtoNNLh9ezsbFZWVkBAQHV19erqKohxUVGRQqGIi4sjhPT39xcVFQUEBNy5c2dqaspK6W/cuLGyspKRkREeHl5SUrKxsQHPN2fPnjUYDBKJJDw8PDk5WaPRcH86sby8DJsKCRoS2IEA7237kn9l1/a2FRUVsSzb1tZGf09fWlra1tZWX19P98O3tbXRdXq6+a6mpoauxN+4caO5uVmhUMAePZZl6+rquLP3EomE3bJbt251dHTcuHEDLulnfn5+95bBfkAajg4SsCJgq/SEYyEu/zwS+moP+S8Zb4195XI5jOn9/f1B/GBMD+vKOTk5lZWVsPeeikdGRkZdXR3kzefz6+vrZTJZbGwshERHR9M1bEKITCaTcwzGyo2NjVTpq6ur6SpyeHh4Y2OjTCajO8kbGhro7H1rayudvefueO/r6+OOdDmNJrdu3aK/4JfL5XSfoKurq1wuhymEgIAAqVQqk8lAayH5+fPnq6ur5XI5aD/syKOFZmZmwt49mOq3XaeHFre2tlZWVtIfvxFCvL29Gxoauru7ExMTKysrvbxe7ZyAJ4+2tjZCyNmzZyUSSWdnJ5APDw+HCPQzMjKyqamps7Pz3r179HcHhJBTp05VVlYODAx0dnZyR/B+fn70F3c0E3SQgBUBno195DfnsGhIAAlsR2B3pSdfqDEMs7m5ue0L4wghx48fhwn5L7T1725WbW0tV/jfnQBjfJUEeAeyz/L39CwaEvicCXyFJ9zcvXt3Y2MjNzeX7GwxMTG2v77bOfqXdoc7UfGltQ3bYz8CvAMZnnDDoiGBD0zg5MmT328ZQUMCSAAJ7IcA70CGp9ayaEjgwxM4efLkkSNHvkNDAkgACRwmgSNHjpw8edLX15f2cp/NWXa0xuggASSABJAAEkACeyeASr93VhgTCSABJIAEkMDnRwCV/vP7zrDGSAAJIAEkgAT2TgCVfu+sMCYSQAJIAAkggc+PACr95/edYY0/UwIuLi6HuQsH80YCSAAJvCIAO/K4/SQqPZcG+kjgsAi4uLgcO3aMoCEBJIAE9kmAdyDDX9mxaEjgAxP4Ct+cQ9CQABKwBwHegQzfnMOiIYEPTODrfBsuQUMCSOC9CfAOZJ/l23AD3jZ2ywICAsD5iJ+fQh0+YvOx6D0S2Fbpby38q/gP/xD/yz/IDubytkEsetIrPbdmh9Rvgt/OxsXJyenNvQ/iZWZmwqk5tCYfoA60rMNoopOTk7e397at8PDwgMN+aLlCoZD66CCB/RLg2dhHPuEmYVdj38PUavUsx/Ly8rin1r5Hxu9OGhYWVllZaRvv8uXLcrncbDZHR0fb3sUQJMAlYKX0qf0LcF4t2bLCtX8TPf07+NxPvV5v4hgcIre4uHj69Gk+n2+xWE6fPk0IEYlEfn5+3IRWvkwm42Rjoue7W0U7pEtnZ2d6ko1Wq4WarK+vq1QqX1/fQyrUzc3NYrFAWZubmwqF4syZM7uUlZ2dvfsr+rlpq6urNzY2Hj169OTJEzg2F+4mJiaaTKaFhYX19fXh4WEPDw8ILywsRLHnAkR/XwR4b9uXfGqtWq1OSEhg3zadTkdPrX37jj2v4EBuqxz9/Pz0en15ebler0elt4KDl7YEuErvevHypXgBsbHSn/7TKkyv11+5csUqEJSeEHLixAm4NTIywufzraJxL2Uy2d5ljJvQLn5+fn5FRQVkpdVqaVVv3rw5OTlplyJsM3Fzc9vY2KDhxcXFKpWKXto6IpGopKTENtw2JC4ubmxsDA7oc3Z21mg0MTExhJCQkJD19XV6YM/t27dnZmYgOY/HM5lMtllhCBLYCwEex6Kjo18+Lnt7e3PCeN7e3lqtNjo6mhv4Wc7e7670sbGxw8PDMzMzGo0mJyeH3TK9Xi+RSPR6PfwpDg4OGgyG3t5euMuybH19vcFgmJubk8lkECiVSkUikUqlMhgMnZ2dLMsGBwdPT0+bzebp6enIyEialmXZ69evsyyLSs9lgv5OBLhKf+ZK6JWsoldjegcHsmW3jX8UPv4P7igfwndR+hMnTiwsLBBCuru7X7x4MT8/X1NTQwhxdnZWKpVLS0vLy8uFhYWQz7ZKL5VK09PTZ2Zm1tbW2tvbISYhpKamZnV1dW1tTSqVQqBEIrl58+bc3JzZbBYKhWKxGPKPjo5+efj69PQ0nCVPCMnJyeno6KBZgTMyMhIaGgo+V+ldXFx+/vlnCC8oKDCZTEtLSw8ePHB2dobAlJQU45YNDQ3Bce/Q6tra2pWVFY1G4+XlpVKpzGazbaFWSk8IGRkZgbPqvby8hoaG1tbWTCZTcXExISQvL89kMq2tren1ekLIyZMnOzo6lresrq4OKkM/8/Lympqa6OW5c+dgDr+7u1sgeOsBrr+/PzU1FWJqNBr6iEPTooME9kKAxzGlUikQCHg8HsMwgi1jGIbH4wkEAqVSyYnIO0Sl33Xy3npEzu7H1Gp1SkpK3GuDpHRMPzU1lZWVxbJsbGzswsICDPRXVlYKCwtZli0vLzcYDOHh4SzL9vT0FBQUsCwrFosVCgXkI5fLKyoqWJaVSqUwPGJZdmBgQCgUsiy77Zie1h2VnqJAZxcCVkpPtixr6vmrdfo//Nc6PXXgLiFEr9cHBQX5vTYIhzH9iRMn6DAR/qeFuwqFAgT+1KlTGo0mPDycEAJK/zobPx6PRwiRSqXDw8MuLi6Ojo4TExOgSSKRiMqYXC6HrCQSycjIiIODg6enp8VigemBxMTER48eEULKysroDPbY2Nj169dp/cFZX1//4YcfwOcqfWhoKDysREdHq1QqV1dXQkhxcXFbWxshxMvLy2w2e3t7E0JSUlI0Gg1MY1gsFjjsVSwWLy4unj171sHBYWJiAlpKi7ZVepFIVFlZCTTy8/MJIa6urpubm+7u7rACQsf0NTU1VVVVkJVGowkJCaHZEkJ4PJ5er1coFAkJCXTPBCHk2bNnDMNwY96+fRsevwghra2t2dnZ3LvoI4E9EuBxTK/XsywL0m7eMhB+GHZyIh6m0rOHZmq1eohjfD6frtPHxsYODAwkvbaOjg5YxV9ZWfH392dZNi0tbXBwEKpWW1srFotZlh0fH09JSYFE6enpQ0NDoPRwl2XZu3fv1tTUoNIf2lf6dWW8rdITQkDdWef/8Y9sL0IIfJLXptfrX04UUzt16hQhZHelX1tbC3xtt27dqq6uBm2jmYyNjcFYXCqV0in9srIy0Lnp6emrV69CBpGRkUNDQ4QQiUSSl5cHlVpYWABp9PDwAJ329PQ0Go2EEIZh1tbWXtf9zb8vXrygF1qttnfLBgcHNzc3ExISCCFyuZyOfR0cHJ49ewbSS+f8odXe3t4nTpx4/Pgx5JaUlESH8k1NTRkZGbQUQoit0ufl5dXW1tI4LMvGxMTMzs4GBARYKT3E8fHxiYqKgr6FpqLOzZs3u7q6Njc36czH48eP4QuicTIzM5ubm+Hy3r179EmCRkAHCeyFAI9jX77S77ROn5mZOT4+3s4xGIvvrvRarZaT4pULSl9WVsZuGSo9cMBPuxDgKv1p/zdjRFD6UJd/JltGHbjcffbedkz/ww8/PHv2TMExmHzeafY+KysLCiotLQUdWlpa4qR+5YLS02eChYUFmEinSk8IGRsbCwkJKSwshAcLyJN+Wil9RERESEhIdXV1S0sLxOnt7Y2MjKTx19fXT506VV1dDSNvCB8fH+fz+SdOnFhfX4eQ/Sq9RCKBbXEikchkMnV3d1dWVqpUKlulT01NXV1d7e7uvn///oMHD5KSkmjdrBxnZ+fu7m6AMzs7a7UvsqKiory8HJJUV1fDSoFVDniJBN5JgMexT2L2nj0022WdPioqanp6mpZMHwh2V/qBgYGMjAxIFRERERgYiEpPGaJjdwJcpYehfKpskI7p3wzlv//+jb81e7/TjrydZu/X19dhcp4QQtPuXenHxsbomrqnpyds+pNIJLsrfVZWllQq1Wg0VlJHtmx1ddXNzQ18Ont/+vTpZ8+ewQI/1eCXY/fz58/DxEBmZqZMJoNUhJDNzc2zZ88eWOnPnj27vr7u4+NDCLFYLBSRTqezVXqDwUDRdXd3Wyl9e3s79xGEynlVVVV9fT2tsJOT09LSEs2nra0tMzOT3kUHCeydAI9jX/6OvCyOJSUl0dl7lmWVSmVLS0tSUpJQKFxcXAzfWpLfXekzMzOnp6dzc3PT09P7+/urqqp2UvqgoCCTyZSdnc1uZ7hOvx0VDLMmYKX0LzeIfb81df/OMX0Mx2BLl+3sfVdXl1AohAVyoVA4MDAQFRUVFxe3sLAAE/Wg9JycXu0Vl0qltmP6uLi42dnZ+Ph4mLqHQfA7ld7Z2XltbU2tVpPtrK+vLyoqCu5QpSeElJSU9PT00CX51NTU8PDwwcFB2Bzg4OAwNzeXn5/P5/PlcnlDQwOs0+9rTA9Nzs3NnZubKy0thTqoVKr8/PyAgADYwQNKn52d3d3dDbvoHzx4IBaLAwMD8/Pzx8bGrJQ+Njb28ePHmZmZYWFhd+7cefbsGfxW0NnZWavVNjQ0hIeHJyYmjo+Pc3/NqNfrL126tB0eDEMC7yDAe9u+5F/Ztb1tRUVFLMu2tbXRX9mVlpa2tbXV19fHxMSwW9bW1kbX6enmu5qaGvHWOj3Lsjdu3GhublYoFLBHj2XZuro67uy9RCKBrG7dutXR0XHjxg245H62tbXhr+y4QNDfloCt0hOOhbj880joq1HvLxkXOMGvFrC5BoNCuVx++vTpEydOtLa2QmQ3N7empibQQkJIUlKSTCZrbGwMCwuDCA0NDdx8IGZtbS1X6encckhISENDQ2trK1075yp9a2srnb2nFSCEWI10ua3IyMigmieXy+kWdAcHB7lcDlMIvr6+tbW1ra2tKSkpNC2Px6usrFQoFHRGgdtqaCZElkqltuv00OS2traqqqrg4GCa7fnz56VSaXd3d3p6emVlJf3hQEVFBfwGwdnZ+d69e52dnbdu3aqsrITNBDQ5ISQ0NLShoaGzs1MikVy8eJHeOn78eHl5+cDAQFdXV1paGg13d3env7ijgegggT0S4NnYR35zDouGBJDAdgR2V3rymZurq+vq6ipsnt+2KbB3b9tbX0Pg3bt3b968+TW0FNt4GAR4B7JD/JUdi4YEkMB2BL7gE26EQuHm5ib97T7ZzqKjo+ny/3b3v/Aw+FngF95IbN6hEeAdyPCEGxYNCXxgAidPnvx+ywgaEkACSGA/BHgHMjy1lkVDAh+ewMmTJ48cOfIdGhJAAkjgMAkcOXLk5MmTvr6+tJf75ptvGBv7bzYhuwV88803NDt0kAASQAJIAAkggU+KACr9J/V1YGWQABJAAkgACdiZACq9nYFidkgACSABJIAEPikCqPSf1NeBlUECSAAJIAEkYGcCqPR2BorZIYGdCLi4uBzmLhzMGwkgASTwigDsyON2RKj0XBroI4HDIuDi4nLs2DGChgSQABLYJwHegQx/ZceiIYEPTOALfnMOQUMCSOAwCfAOZPjmHBYNCXxgAl/223AJGhJAAodGgHcg+yzfhhvwtrFbFhAQAM5H/AwPD4dzdD5iHbDoT5/Atkp/a+FfxX/4h/hf/kF2MBcb2yHixwym78Gllf0AtYGynJ2dD6Oss2fPwik+Vpk7ODh4eno6ODjQ8PDw8Dt37tBLdJDAYRDg2dhHPuEmYVdj38PUavUsx/Ly8rin1r5Hxu9OGhYWVllZaRvv2rVro6Oj4+PjRqOxvr7eNgKGIAFKwErpU/sX4LxasmWFa/8mevp38OlnZmamacueP38OjslkOnXqFI3wKTgpKSlVVVWEEF9fX4vFAvV8+vRpU1PT4VWvsLBwc3PTZDKtra0tLS3RR42dShSJRG5ur44KfKedO3dueHjYYDCo1Wqj0QiH2EKqurq6n376Sa/X//jjj9XV1TQrtVq97WMBjYAOEnhPAry37Us+tVatVickJLBvm06no6fWvn3HnldRUVEqlco2x/b29pKSEggfGxtLSUmxjYMhSAAIcJXe9eLlS/ECYmOlP/2nTdirgO7ubnqA7LYRPmKgSqXy9vYGpV9cXKQ16e3tzc/Pp5f2dQoLC6VSKeTp4eExPDxcUlKySxEzMzMXLrx1HPBOkR88eHD79m24GxgYuL6+Dn5NTU1nZyc8Zp05c6a/v7+iogJu5eXl0TN5d8oWw5HA+xDgcSw6Olqr1Xp7e3PCeN7e3lqtNjo6mhv4Wc7e7670sbGxw8PDMzMzGo0mJyeH3TK9Xi+RSPR6vUajiYmJGRwcNBgMvb29cJdl2fr6eoPBMDc3J5PJIFAqlYpEIpVKZTAYOjs7WZYNDg6enp42m83T09ORkZE0LcuyxcXFUVFRECKXy/Pz87l30UcCXAJcpT9zJfRKVtGrMf3reeDbxj8KH/8Hd5RPOGal9CaTSSqVrq2tXbp0iRBSUVGxtra2srIik8kg0alTp7q6upaXl00mU01NDQSGhIRotdqFhQWtVgsnsguFQrFYDHfv3LkDfllZWX5+/tLSEpzUfvXq1cnJyaWlJZ1OFxERwanUK/f06dMbGxsQ6Ovry1X6zMxMOL3++PHjSqVyaWlpZWWFO9EtlUpNJpPZbK6trYUcbt68KZFIxsfHzWZzY2Njenq60Wjc3NzMzs62Kper9IQQd3f3zc1NiJOWljY/P280GmdmZuBMepVKZbFY5ufnRSIRISQqKkqr1S4tLS0sLNgePK9Sqbhn7p07d44Q4uzsbLFYzpw5Q6vh5ub2+9//Hi59fHy+8jN5KRZ0DokAj2NKpVIgEPB4PIZhBFvGMAyPxxMIBEqlkhORd4hKv+vkvfWInN2PqdXqlJSUuNcGSemYfmpqKisri2XZ2NjYhYUFGOivrKwUFhayLFteXm4wGMLDw1mW7enpKSgoYFlWLBYrFArIRy6XV1RUsCwrlUpHRkb4fD7LsgMDA0KhkGXZncb0tPrX02QAkgAAIABJREFUrl1bXFwMDg6mIeggASsCVkpPtixr6vmrdfo//Nc6PXXgLv20UvqffvqJDvGzs7OVSqWTkxMhpLa29u7du+DQEefMzMzVq1dfqrJWq3253kQIiYmJgWeCnZRerVafOnUKVqOXl5dB+fh8/sbGhqOjI60VISQ8PFytVkOIldLX1dXBo0NraysMuE+dOvXo0aP4+HhCSHFxsUKhgIRKpVIoFBJCbt68ubi4yDDMiRMnDAbD/9/euX01laxrf/0djl5jLMfo1ZZt24CHDgrdNCITFSJEBIIJh8ghQDgjhLRCOIicIhBCghBOIcE00CESIBBOIUYEpBHbMfa66rEv9jf2xb7Y62pf9sWneZvqSQIoCBrwfS5CzZo1a9b8JeSZb1XNFNwBhIeHLy8vs09KCHFzekLIxMQEwzDfffed0WiE+xihUDg0NAQHsmP67u7uuLg4QkhYWNj8/LxbzWKxeHV1tby8nMvl0l3R0dGDg4N0ExKjo6MRERGQXl9f9/PzcyuAm0hgvwhwWLJarQzDgLU/cwmM/83n32q1sgoepNMzByaz2TzAEpgxOL1QKNTr9aINdXZ2wij+wsICzJVLT083GAzQtPr6erlczjDM0NBQSkoKHCQWiwcGBsDpYS/DMBUVFXV1de/j9AaDoaSk5MAuHSs+CgS2dHpCCLg7c/qff+T8SAiBV7JZbk6/trZG9xuNxqioqAiXIiMjR0dH6a6QkJD4+PjHjx/D4ugGgwGmm9AC2zk9+C4hhMfjdXR0QOURERFGo9EtrBeJRI8ePYIKQ0NDl5aWel0aHR01mUxnz559Y6hLS0vffPMNlElLSwODHx8fZxgGMsPDw6HZWVlZTU1NkEn9mBCytrbmdofh6fQmk4l689mzZyMiItLT0202G9TGdnpCiI+PT3h4uEgkoj0BUAxeg4KCysrKRkZGHA5HSkoKIeTWrVs6nY5dhhBiNBpv3rwJmXa7HYfq3fjg5j4S4LB09J1+u3F6iUQyNDTUzhLE4js7/djYGOuIt0lw+rKyMsal93R6rVYLNwRwFL4igS0JsJ3+7BUe2RA4fbTPl5BBExv73/7dwenHxsbUm0UIEYvFDoeju7u7pqZGq9WC0/v5+VVWVppMpoWFBegSeKfTp6amGo1GdvUQkdO2iUSijo4O2ISYnufS/Px8fHw8IeTN0pl0qJsQEhsbOzAwQAix2+3fffcdHBgQEABDAG5OT8/1Pk6/uroaEBBACNHpdGNjY62trcXFxVs6vUqlmpmZUavVbybZPH/+nF6LZyI8PPzFixd+fn6XLl2amJhwK/BmcAQmKBBCFhYW0Ond+ODmPhLgsOQVvffMgWmHcXo+n2+xWOiZ6Q3Bzk6v1+szMjLgqNjY2IiIiD04vVKpbG1tpafGBBLYjgDb6SGUT1MaaEz/Vyh/4sRfafKndnD6rq4u6oj+/v7Qhzw/Px8WFgYH9/X1gdOHhIRATkREhNPpJISUlJTAtHkY7Kfj9DSmj4iIePLkyUYr3nZ30zQkoqKihoeHIc3uvc/IyKC9Cw6Hg7pgcXExzBsYGhqi3QMCgUCv10PvPTump9f1Tqe/ffs2DCLEx8f39/dDe8LCwjyd/vLly1NTU1DAz8/Pc1xAq9VCVwSUmZmZuXTp0pupADMzMzExMZAJIyBs719dXf3222/pXkwggf0lwGHp6M/Iy2ZJJBKxn7Lr6OhobW0ViURSqXR2dhaG5Hd2eolEYrFY8vLyxGKxTqerrq7ezukjIyMdDkdOTg6zWffv39dqtbRR9L5hcyncQgJvCbg5/Zvu3xOurvsPjOmjo6PtdrtIJLpx40Z3dzcMz2u12rKysvDw8KKiouHhYXD6sbGx/Pz8yMjIBw8edHd3Q+f80tKSSCSSSCTV1dWeTk8I6evrq62t5XK5eXl5DofDbTT622+/pWEx2+lh4Bx6DoqKigYGBm7cuJGWlra0tATGmZCQMDU1JRAIhEKhzWaDDoDdxvQCgSAhIaG6unp5eRm67oODgxcXF+Pi4iIjI2EGLnFpeHg4JycnJibm66+/XlpaSkpKunbtmkaj8ey9VyqVOp1OKBTGx8erVCrogQBrX11dLSgo4PF4RUVF6+vr9E7l6tWrbNeHM+IrEthHApzNOspP2Wk2q7S0lGEYjUZDn7K7d++eRqNRKBQCgYBxSaPR0HF69cbku7q6OjoSn5qa2tLSolarYY4ewzANDQ3s3vva2lqoqrCwsLOzMzU1FTZp/exGPXjwgL0X00iATcDT6QlLPJ8vjdFvH/j+34wtHgZrbW2lU/AIITCnnR59/fr1xsZGlUqVlZUFmb6+vtBvX1BQUFVVBQ+FX7x4sbq6ur29nYbshBCJRAK3BSUlJeXl5YSQsrIydgGY/tbW1nb//n0amtNTE0IGBgbAZUNDQ9va2uiuhIQEunn79u3W1tb6+np2r0B0dHRzc3NTUxMd7c7KyqLz8JVKJY3pVSqV2zj9nTt32lxqaWmRSqV0IADG1Nvb25VKZUhISFVVFbTn8uXLKpUKnoXj8XgqlUqtVkdHR9MCtNmEkNzc3Pb29q6uLrfH9CMiIpRK5cDAQHNzM0z6g6NKS0vLysrYNWAaCewvAY6HPvEv5zAoJIAEtiKws9OTQ6v4+PiHDx8e2ubvQ8OtViv7VmMfasQqkMBmApw96QCfsmNQSAAJbEXgCK9wA6MD5LPUtWvXPufL/yzf809w0Zw9CVe4YVBI4CMT8PX1PeESQSEBJIAEdkOAsyfhqrUMCgl8fAK+vr7Hjx//BwoJIAEkcJAEjh8//uYB19DQUPotd+zYMX8P/c0jZ6eMY8eO0eowgQSQABJAAkgACXgVAXR6r3o7sDFIAAkgASSABPaZADr9PgPF6pAAEkACSAAJeBUBdHqvejuwMUgACSABJIAE9pkAOv0+A8XqkMB2BHx8fA5yFg7WjQSQABJ4SwBm5LG/iNDp2TQwjQQOioCPj89XX31FUEgACSCBXRLg7En4lB2DQgIfmcAR/uUcgkICSOAgCXD2JPzlHAaFBD4ygaP6a7gEhQSQwAET4OxJh/LXcMM3i3EpPDwcEp/wlcfjRUdHf8IG4KkPBYEtnb5w5nf5v/6Q/8cfZBv5bNY2pfYtu7i4GFaro6fdt6q3rwjOdfr06e2L7H2Pn5/flgvznDx5Migo6NSpU7RqLpfrtrQP3YUJJPBpCXA89IlXuEnaUcwHyGw2T7KUn5/PXrX2Ayp+96E3b96sqqryLHft2rW+vj6z2TwyMtLf3+9ZAHOQACXg5vRpuhlYr5a4VOz8b9mLf0Oa/Wq1Wh0sJScns/fuLS2TybY8UCAQNDY2EkICAwNfv34Np33x4oVard6y/L5kSiSSFy9eOByOpy7dvXt352plMllwcPDOZWDv2bNndTrd/Pz8yMiIw+FISkqiR92/f//Vq1eTk5Pr6+sNDQ0032g0slfbo/mYQAKflgBns47yqrVmszkpKYnZrPHxcbpq7eY9+7nF5/NNJpNnjQqFgi5rq1QqKysrPctgDhIAAmyn97t09XJiJvHQvfX/c8uzWq3Xrl1zy/zATbqivFs9BoMhIiICnH5xcZHubW9vf6cB08K7TUgkErq47cWLF3U6XXV19Q6V/PLLL+9pxi0tLffu3YOqrl69ura2BumKigqdTgerz/n5+XV1ddGlcsVicXNz8w5nx11I4JMQ4LAUHx8/NjYWHBzMyuMEBwePjY3Fx8ezMw9l7/3OTi8UCh8/fjwxMTE6Opqbm8u4ZLVaa2trrVbr6OioQCAwGAw2m623txf2MgyjUChsNtvU1JRSqYTMxsZGmUxmMplsNptWq2UYJioqymKxPHv2zGKxxMXF0WMZhomLi+NyuZBTXl7e2NjI3otpJMAmwHb6c9eir2WXvo3pT54kLhXN/af0+f+wo3zI93T6hIQEo9EIewkho6Oj169fJ4QUFBTY7fa5uTmtVgs98GKxuLGx0WAwPH36dHBw8MKFC4SQ6enp169fT09Ps2NcQsipU6d+/fVXqDYwMJDt9CKRqKurC3apVCq73e5wONgrstfU1DidzsXFRbp87e3bt1taWoxGo9PpbGtrE4lENpttZWXFbcV3Qgjb6Qkh586d+/XXX0+6sIhEosnJybm5ucnJydjYWEKIXq+HxsO68tHR0WazGa46LS2NMoHE48ePhUIhzbx48SKk19bWAgMDaf6ZM2dWV1d9fHwIIQEBAc+ePaO7MIEEvIQAh6WOjo7MzEwOh+Pv75/pkr+/P4fDyczM7OjoYBXkHKDT79h57x6RM7uR2WxOSUlJ2BAcSmP6J0+eZGdnMwwjFApnZmYg0F9YWCguLmYYpry83GazxcTEMAzT09Nz584dhmHkcrlarYZ62traICJvbGw0Go3g33q9XiqVMgyzXUwPx2ZmZt65c2diYkIgEOzmgrDs50XAzemJS9lP1t6O0//rz3F6moC9hBCr1RoZGRm2Ich/9uzZ999/TwgJCwubnJwkhMTFxZlMprNnzxJCpFIp9LeLxeKnT5/++OOPhJD6+nraTb1lTB8eHg5Vecb0lZWVEPU2NDTcv3+fEPLtt98ODAyIxWJCSGFhoVarBW9uaWmRy+WEkNu3bzscju+///7kyZNms7m1tZUQcvny5dXVVXppkHBz+jf3HMPDw1wu9/Tp0waDITIykhASHR1tsVigPDum7+zsFAgEhJDg4GDPi0pOTl5bW6usrIRK4PBr166Njo66tWFwcDAmJgYyFxcX6T2BWzHcRAKfigCHJavVyjAMWPszl8D4GYaxWq2sggfp9MyByWw2D7AEZgxOLxQK9Xq9aEOdnZ0wir+wsHDlyhWGYdLT0w0GAzStvr5eLpczDDM0NJSSkgIHicXigYEBhmEaGxthL8MwFRUVdXV173T6R48e9fX19ff3C4XCA7t6rPjQE9jS6Qkh4O7M6X/+kfPWkuGVbMhqtQ6ydObMGbBtCI6rq6uhX12pVIpEoogNQUQuFotVKhXUFB8f39vbC2lPUySE8Pl8nU4HBQIDA9fX13tdMpvNY2NjYH7Pnz8/f/48lBEIBFAhGDNkBgcHT09Pg9O3t7dDpkqlSk1NhbTT6Tx37hyk4dXT6fV6PUTwhJAzZ85wudzU1FSHwwHl2U5PCDl9+nR4eHhycvLq6qrnnL6AgIC7d+8ODw87nc6srCxCCI/HGxwcZDeAENLb20vXmJ+cnLxy5YpbAdxEAp+WAIelo+/0243TSySSoaGhdpYgFt/Z6cfGxlhHvE2C05eVlTEuvafTQ+H8/PzHjx9DGl+RgCcBttOfvcIjGwKnj/b5EjJoAjY9e+8JIdeuXTOZTISQubk5mFje3d2t3ixCiFgsViqVUM87nT4uLq6/vx8KQ+89z6XJyUmRSAT56+vrkCCEREREQJw9OTlJJ7f7+fm9fPnS0+kh+ieEvI/TP336NCQkhBDS1dVltVpVKpVUKt3S6R8+fDg/P69Wq8vKyhYXFz2dnrb2TZ/I0tLSxYsXz58/Pzc3R/MhMTExQSdDTE5Ovuc8ALdKcBMJHBwBDkte0XvPHJh2GKfn8/kWi4Wemd4Q7Oz0er0+IyMDjoqNjY2IiNit0zc0NPD5fFrDxMQEbQMmkIAbAbbTQyifpjTQmP6vUP7Eib/Srt57akKEJavVyuPx6IB9TU0NewgcuvF35fRhYWETExNwBvY4fVJSks1mg3ybzUZdMCcnB24jdDodHfKPjo4eHh7+EKcXCAQwiMDj8aAqQsgPP/zg6fQBAQFOp5MiWVlZcXN6rVYbEBBAC1gslvDwcELI2NgYe/z+5s2bbO9fWlricDj0KEwgAW8gwGHp6M/Iy2ZJJBKxn7Lr6OhobW0ViURSqXR2dhaG5Hd2eolEYrFY8vLyxGIxzPjdzukjIyMdDkdOTg6zWfX19X19fenp6ampqd3d3fX19Zv34xYS+IuAm9MTQk64uu7fGdMLWOJyucQlqVTa1dWVmfnnBP7g4GCn05mZmXn9+vXW1laYzb6d0zudTpFIBHEz1Aavy8vLkGA7PSHkl19+ycvLI4RkZWUNDw/HxMS8+e97/vw53ILExMTMz88nJCTcunVrfHwcXP/27dvs3vt3xvQCgSAhIaGiomJtbS06OpoQwuFwlpeXBQJBREREb28vdXq9Xl9UVMTn898M/D979iw1NfXq1atKpdKz976+vt5oNCYmJsbFxTU3N9P7hujo6PX19eLiYh6Pl5+fv7a2BoP9hJCgoCC73c5mgmkk4A0EOJt1lJ+y02xWaWkpwzAajYY+ZXfv3j2NRqNQKOjMOI1GQ8fp6eS7uro6OhKfmpra0tKiVqthjh7DMA0NDezee/oQXWFhYWdnZ2pqKrNZP/30U49LMpls8x7cQgKbCHg6PWGJ5/OlMfrt3Pj/zfiBlU3aNksikcBeDoejVqvZP/wSEhLy4MGDtra2oqIiKCMWixUKBaTj4+NpT350dHR7e3t+fj77RNBbDhPTAgMD6ZNvhJCYmBi6mZCQoFQqGxsbIT6GGng8XlNTU3Nzc1xcHOTcvn2bPq728OFD6vQqlWrLcfq2tjalUimTyeABAagkJiZGrVarVKqrV6/CZHuI76EBhBAul6tUKtvb2/l8flVV1TfffON2RVlZWWq1ure3t7S0lM3q6tWrzc3NAwMDLS0t9OaJEJKXl/fgwQO3SnATCXxyAhwPfeJfzmFQSAAJbEVgZ6cnXiAej0cDcS9ozidogtlshocaPsG58ZRIYHsCnD3pAJ+yY1BIAAlsReBQrHCTkJDgNtpNPhuFhITQGfifzUXjhR4OApw9CVe4YVBI4CMT8PX1PeESQSEBJIAEdkOAsyfhqrUMCgl8fAK+vr7Hjx//BwoJIAEkcJAEjh8/7uvrGxoaSr/ljh075u+hv3nk7JRx7NgxWh0mkAASQAJIAAkgAa8igE7vVW8HNgYJIAEkgASQwD4TQKffZ6BYHRJAAkgACSABryKATu9Vbwc2BgkgASSABJDAPhNAp99noFgdEtiOgI+Pz0HOwsG6kQASQAJvCcCMPPYXETo9mwamkcBBEfDx8fnqq68ICgkgASSwSwKcPQmfsmNQSOAjEzgUv5xDUEgACXgfAc6ehL+cw6CQwEcm4P2/hktQSAAJeCUBzp50KH8NN3yzGJfCw8Mh8clfvaclnxwFNmBLAls6feHM7/J//SH/jz/INvLZEHuBlm3KviN7oyafj/N7t2FhYbCQ7qlTp+DUH+G89BrfwWKvu4OCgmBFYLcKLly44PaD+VKp9MqVK27FcBMJ7I0Ax0OfeIWbpB3FfIDMZvMkS/n5+exVaz+g4ncfevPmzaqqqh3KqdXqhYWFHQrgLiTg5vRpuhlYr5a4VOz8b9mLf0Oa/Wq1Wh0uLS4uDg8Pey41yy7smZbJZHRF+ZaWFqjK4XDYbLaD/o33vr4+hmEIIdXV1YuLi3Bqu92emprq2c79yhkbG4MTraysDA0N3bhxY4eag4ODZTLZDgXYu1JSUpxO58jIiNPp7O/v9/Pzg70hISHDw8NPnz6dnZ2dmZmhVK9cuTIwMMCuAdNIYM8EOJt1lFetNZvNSUlJzGaNj4/TVWs379nPLT6fbzKZtqsxMzNzYGBgdnZ2uwKYjwQYhmE7vd+lq5cT/1xanrB0b/3/WFtvk1arla4Pm5OTQxdZdyu23abRaIyIiIC9LS0tBQUFkH7TQba6uvrh/QTbnffHH38cHx+HvdXV1WVlZZAOCwt79eoVh8PZ7sAPzB8bG6PXm5CQ8OLFix3ujcLCwkwm0/uc0cfHZ2VlJTQ0FArfv3+/sbER0jabLScnB9LR0dEvXry4evUqbI6MjNA05OArEtgbAQ5L8fHxb+5og4ODWXmc4ODgsbGx+Ph4duah7L3f2emFQuHjx48nJiZGR0dzc3MZl6xWa21trdVqHR0dFQgEBoPBZrP19vbCXoZhFAqFzWabmppSKpWQ2djYKJPJTCaTzWbTarUMw0RFRVkslmfPnlkslri4OHosTYyOjgqFQnR6CgQTWxJgO/25a9HXskvfxvQnTxKXiub+U/r8f9hRPuSznd7Pz29tbe3P8kVFdrt9bm6us7PTx8cHMh89ejQzM+NwOAoLCwkhPT09v/322/T0dG1tLSGE7fSEkImJCeheTkxMtNlsc3Nzg4ODtAOAy+WOjIzMzc1NTEzQVecnJyezs7PtLsXGxnZ1dTkcjjf/LOxF5WnzampqIM12ekLI4ODgzZs3CSFxcXETExNzc3NmszkyMhIKh4aGDg4Ozs3NsePjoaEhkUg0Nze3uLiYlJQEXWjj4+PBwcFwFH1lOz0hRCqVNjc3w96HDx86nc6nT58+evSIEPL9999PT0+/fv16enoa2i+Xy+HSDAaDWxd9UFCQ3W6nZzl58uTFixcJITk5OZ2dnTSfEFJUVKRWqyGnoqKC3uKwy2AaCeyWAIeljo6OzMxMDofj7++f6ZK/vz+Hw8nMzOzo6GAV5Byg0+/Yee8ekTO7kdlsTklJSdgQHEpj+idPnmRnZzMMIxQKZ2ZmINBfWFgoLi5mGKa8vNxms8XExDAM09PTc+fOHYZh5HK5Wq2Getra2iorKxmGaWxsNBqNXC6XYRi9Xi+VShmG2SGmf/DgQX19/ZUrV9Dpd/Nmfo5l3ZyeuJT9ZO3tOP2//hynpwnY6xbTx8TETE1NEUJu3bo1PDwMHcgymUylUhFCSkpKwNH9/Pz0ev358+cJIdvF9BwOZ21tzc/Pz9/ff3l5GSxfKBROTk7Cqefn58Hgr1+/vry8DDcTk5OTYF0JCQmrq6twW1BfXy+Xy2mDIdHW1iYWiyHNdvrTp08vLy8HBQV9++23z58/B4OPjY2lPjoxMZGUlEQIYRhmZWUlICCAEDI0NASXFhsb+/Lly6ioKEJIWVkZDazp2d2cHgIdMOCuri4o1t7enp2dTQhhx/QJCQlDQ0OAtKKioqqqitYJCa1WOzQ0JJFI2Lc1SqVSIpGwS166dGl6ehpybt++3d3dzd6LaSSwNwIclqxWK8MwYO3PXALjZxjGarWyCh6k0zMHJrPZPMASmDE4vVAo1Ov1og11dnbCKP7CwsKVK1cYhklPTzcYDNA0+GJiGGZoaCglJQUOEovFAwMD4PRyuRxKVlRU1NXV7eD0iYmJT548YRgGnf7A3vajU/GWTk8IAXdnTv/zj5wfCSHwSjZktVp7XTIYDMvLyzAMrFKpkpKSIjbkdDoJIZmZmYODg3Fxcd98883G0e5O39fX19vbq9PpFhcXwbPz8vLYfmmxWMLDw69fv84eY9ZoNGlpaYSQyclJ6AwPCAig3iyRSBQKBT0jJHQ6HZ/Ph3R1dbVer+/t7e3r61tYWHjw4AEhJDk5ub29nR5lNBrj4uJCQkJGR0dpZn19PQw3DA0NwT2Bj4/P6uoqFEhKSuro6KCFIeHm9EFBQTMzM7TMDz/8EBMT09zcfPfuXTenhzLfffddRESETCZrbW2lR9FEXFzcw4cP5+fn9Xo93II8evQoJSWFFiCEXLx4cXFxEXKio6N3O9rCrgrTSIAS4LB09J1+u3F6iUQyNDTUzhLE4js7/djYGOuIt0lw+rKyMsaldzq9wWDIzs6Oiori8Xizs7NRUVFwIL4iAU8CbKc/e4VHNgROH+3zJWTQBGxardaYmBgej1dXV0c7ovv6+tSbBYWzsrJ6enqcTmdTUxPkeMb0PB4vJSVlYmICCtx1CdKEkL6+vtjY2OTkZI1GQzNramrAcScnJy9dukQIeafT9/X1xcfHQw0Q0/N4vFu3bs3Pz0NmXl4ehOmw2dbWdvv27Zs3b/b399PzymQyuB0ZGhricrmEkN06fWxs7ODgICEkJiZmZmamv7+/oaGhvLzc0+lDQ0MnJiaMRuPDhw/z8vK2dHrasDt37vT09BBCamtr3eb0RUVFjY2NQcmoqCh0egoNEx9CgMOSV/TeMwemHcbp+Xy+xWKhZ6Y3BDs7vV6vz8jIgKNiY2MjIiJ25fQ8Hs/CEgzkx8fH02ZgAgmwCbCdHkL5NKWBxvR/hfInTvyVZs3IO3/+/NraGnSY19bWwkj8m2HvkydPwqDyuXPnaMfy5OQkTEzzdHrikslkgm5nkUik1WohkxDyZqA6KCgoLCwMhgkgf2BgAGz7/Z1eqVRmZWXB4eze+/7+fqlUSgiJjY01Go30vGNjY+Hh4QEBAUtLSzSzo6MD+hL27PTd3d1FRUWEkEePHtE5/9XV1Z5OX1lZCZnENfru5vRisZjdAxEZGWmxWAghPB7PZrPRBhNC1Go19X6xWIy992w4mN4zAQ5LR39GXjZLIpGI/ZRdR0dHa2urSCSSSqWzs7MwJL+z00skEovFkpeXJxaLdTpddXX1dk4fGRnpcDhycnKYbYS999uAwey/CLg5/ZtB9BOurvt3xvR07n1ZWRm4ckhIiNPpFIvF169fV6lUYEtyuby9vZ3L5aalpS0vL8OQc3d3t1QqvXXrltuMPD6fT7vfR0dHS0pKuFxuU1MTnU3W3d1dW1t748aNu3fv0gnq7+/0OTk5dFCA7fTh4eErKysw6v/zzz+XlZVFRkbW1NT09vYSl9RqdXNzc1RUVHFxMZ00sCunFwqFAoEgPT0dRj2gWrlc3tbWFh4enpaW1t/fD6YeEBCwuroqFAph7EOv10dERCQkJOj1ejenP3PmjN1ul8vlMTExaWlpVqs1Pz8falapVI8fP05ISLhx44ZKpWIH8Q8ePIDbGiiJr0hgzwQ4m3WUn7LTbFZpaSnDMBqNhj5ld+/ePY1Go1AoBAIB45JGo6Hj9HTyXV1dHR2JT01NbWlpUavVMEePYZiGhgZ2731tbS1UVVhY2NnZmZqaCptur1euXNFoNG6ZuIkE2AQ8nZ6wxPP50hh94U1A+b8ZP7CyCfgT5Jw6daqtrY3He9vzHxoaWltbq1J/7Vb0AAAgAElEQVSp6INzhJD8/Py2tra6ujo6hf7ixYvNzc0PHz4khCgUCnbhtrY28CE/Pz+YnQrhLz17SUmJRqO5e/cuHfhXqVS09x6mARJCJBJJfX09PQoSFy5coBPT2E5PCGltba2oqIBid+/eVavVbnZYUFCgVqvlcjmdAK9SqWjvPT1vUlISHc6gZ2/bkEKhcBtB/+mnn7RabVlZmVQqLSkpgUPEYnFnZ+e1a9cIIQUFBd3d3Q8ePEhNTa2srKR1QiIgIKC6ulqr1SqVSoFAwN6bmZnZ3d1NbyDori2fDqB7MYEE3p8Ax0Of+JdzGBQSQAJbEdjZ6cmRk1qthpuSI3dl73VBPB7Pc8Lgex2JhZCABwHOnnSAT9kxKCSABLYi8LmtcHPhwgX6g3Hk81NCQgI8c//5XTpe8f4T4OxJuMINg0ICH5mAr6/vCZcICgkgASSwGwKcPQlXrWVQSODjE/D19T1+/Pg/UEgACSCBgyRw/PhxX1/f0NBQ+i137Ngxfw/9zSNnp4xjx47R6jCBBJAAEkACSAAJeBUBdHqvejuwMUgACSABJIAE9pkAOv0+A8XqkAASQAJIAAl4FQF0eq96O7AxSAAJIAEkgAT2mQA6/T4DxeqQwHYEfHx8DnIWDtaNBJAAEnhLAGbksb+I0OnZNDCNBA6KgI+Pz1dffUVQSAAJIIFdEuDsSfiUHYNCAh+ZwOf2yzkEhQSQwD4R4OxJ+Ms5DAoJfGQCn9uv4RIUEkAC+0SAsycdyl/DDd8sxqXw8HBIfKpXdqM+VRvwvIeCwJZOXzjzu/xff8j/4w+yo4KCgjgcDrsILAfHzvmQdGFhYWxsLCwA7+PSyZMnP6TC9zkWTrS/F0LP6+PjExwcTDfZiR9++MHtpG5L7LALYxoJeAMBjoc+8Qo3STuK+QCZzeZJlvLz89mr1n5Axe8+9ObNm1VVVZ7lEhMTnU4nbVRubq5nGcxBAkDAzenTdDOwXi1xqdj537IX/4Y0+zUhIWFubm5kZMRutxuNRvgpdZFIpNFo2MU+JH3x4sUnT55ADY4NLS0tGY3G77///kNq3uHYsLCw169fw9meP3/e1NR06tSpHcoXFxfDWvU7lKG7Hj586HQ6TSbTysoKXXWeEJKVlbW0tDQ9Pb28vNzb2/vdd9/BIZWVlVlZWfRwTCABbyPA2ayjvGqt2WxOSkpiNmt8fJyuWrt5z35u8fl8k8nkWWNubm5XV5dnPuYgAU8CbKf3u3T1cmIm8dC99f9zy1tcXIQFWwkhMpns0aNHhJD9dfry8nK6Xq3D4QgKCoI2SKVSnU7n1p792gwLC6PL2p4+ffr+/ft6vX6Hymtra3NycnYoQHdJJJLu7m7YPH/+/NzcHAAUCoUzMzNXr16FXWVlZYODg5C+fPnyxMQErQETSMDbCHBYio+PHxsbCw4OZuVxgoODx8bG4uPj2ZmHsvd+Z6cXCoWPHz+emJgYHR2lsbXVaq2trbVaraOjowKBwGAw2Gy23t5eZkMKhcJms01NTSmVSshrbGyUyWQmk8lms2m1WoZhoqKiLBbLs2fPLBZLXFzcxqFv/5aVlTU2NrJzMI0EtiPAdvpz16KvZZe+jek3OsmL5v5T+vx/2FE+IeTMmTPLy8tff/012RA7pu/p6YHIlXqzWCyec0mv1wcGBhJCzp8/b7PZqqqq5l0Si8UbNf31d2Ji4vLly7DNdvrvv//+6dOnkF9eXu50Oh0Oh1KppEdKJBK73T43N9fb2wuDC4GBgRMTE0ql0uFwDA4OXr16dWxs7NmzZ+yj4HC200POxMQErHJ79erVwcFBp9Npt9vz8/MJIWVlZcvLyzMzM+DNFy5c0Ol0CwsLTqfTcyH5srKyqqoq2siLFy/CSMTw8LDb2nomkykuLg5Kzs/P//jjj/QoTCABryLAYamjoyMzM5PD4fj7+2e65O/vz+FwMjMzOzo6WAU5B+j0O3beu0fkzG5kNptTUlISNgSH0pj+yZMn2dnZDMPAnTsE+gsLC8XFxQzDlJeX22y2mJgYhmF6enru3LnDMIxcLler1VBPW1tbZWUlwzCNjY1Go5HL5TIMo9frpVIpwzDbxfQPHz5sbW2dmppaWFhobm7ezdVg2c+OgJvTE5eyn6y9Haf/15/j9DQBewkhKpXKbDbn5eWxO9JFIpHT6WQYhhAil8vb2toIIaGhoXa7/YcffiCEZGRkDA8Pg9O/fv0aouFLly4tLi7S2wJ6il9//ZWm2U4vFArNZjMhRCwW63S606dPE0Jqamrq6+sJIREREVNTUxcuXCCE5OXlQUQeGBj4+vXrmJgYQohCoRgfH//22299fX0nJyfDwsLoWQghnk5fW1tbXFxMCFGr1dBRf+HChRcvXsB52TF9U1OTTCYjhJw6dcput9PbFKg/KCjIbrc3NzfHx8fDsZD/+vVrtwGCyspK2rev0+mSk5PZLcQ0EvAeAhyWrFYrwzBg7c9cAuNnGMZqtbIKHqTTMwcms9k8wBKYMTi9UCjU6/WiDXV2dsIo/sLCwpUrVxiGSU9PNxgM0LT6+nq5XM4wzNDQUEpKChwkFosHBgbA6WEvwzAVFRV1dXU7OL1IJEpPT2cYhsvlGgwGmUx2YFePFR96Als6/Vurdtk8c/qff+S8jSnhlbAUHR3d0NAwMzMzNDQEriYSiTo6OqAIl8uFSFcul9+7d48et7Cw8CbCPn/+/OrqKs2sqakBN6U5Z86cef78Od10OBy9Lv38889LS0sQ8up0OpivRwj57rvvnE4nIaS2tpb2+b9x7qWlpbNnzwYGBs7NzUFteXl5CoUC0t3d3QKBgJ5lS6cvKyujvvv1119fuXIlISHB6XTCvQvb6aGe0NDQW7dumc3m6Ohods2EkNOnT+fm5vb19a2srFRXVxNCvv7667W1NbdipaWlNPpXKpXvOTrgVgluIoGPQIDD0tF3+u3G6SUSydDQUDtLEIvv7PRjY2OsI94mwenLysoYl97p9FAMXvPz83HMng0E024E2E5/9gqPbAicPtrnS8igiY39f/3NysqCSJ09Th8REQFO39DQkJ2dTUubzeawsLDz58/b7XaaWVxc7Nbd7efnt7S0RAs4HA6eS62trTU1NZD/ZmobHd4mhLx69YoQ0trampqaSg+cnJwMCgoKDAycnZ2FzN06vVqthmlxNTU1DodDq9VWVFTMzMx4On1eXp7D4eju7r5//77BYPB0etqqs2fP/vzzz7dv337T57G4uAhjH3RvU1NTQUEBbKpUKnR6SgYT3kaAw5JX9N4zB6Ydxun5fL7FYqFnpjcEOzu9Xq/PyMiAo2JjYyMiInbr9I2NjYmJiVCDVCqFewXaDEwgATYBttNDKJ+mNNCY/q9Q/sQJmr5165ZWqyUbCgkJgYh5S6cvKCigMTQhZGVlxdfX9/z5869fvz5z5gzUoVKpJBLJRn1//l1bW6Pd2rT3Pigo6PXr1zBkoFarMzP/nD949epVq9UK0wPv378PVfj4+KysrBBC9uz0QUFBa2tr58+fP3Xq1OvXr2mvu8Ph8HT61dVVOgYxPDzs5vQdHR0pKSn0GqmdNzc3V1RU0HwOh7OyskLHRPR6vdsoPi2JCSTwyQlwWDr6M/KyWRKJROyn7Do6OlpbW0UikVQqnZ2dhSH5nZ1eIpFYLJa8vDwYhqyurt7O6SMjIx0OR05ODrNZlZWVer0+JSUlOzt7cnJSLBZv3o9bSOAvAm5OTwg54eq63zmmh1mlsbGxIpFoZGQE+ue3dPrTp0/Pzs7m5uZyudz29va6ujoYp19aWlKr1ZcuXUpPT3c6nW6Pkr/p62aH7NTpoX8eZtJFREQsLi4mJye/Gfk2mUwZGRlQs8PhyMrKioyM1Gq10FWwW6cXuHTnzp35+XkaXttsNolEEh4eXltbu7i4CE5/9+7d1tZWMOOBgYGSkpLw8HCpVGqxWNycXiwWz8/Pi8XimJiYsrKyxcXFgIAAQgiHw5mZmampqYmJiUlJSRkbGysrKyMbcjqd9KG7jTz8iwS8hQBns47yU3aazSotLWUYRqPR0Kfs7t27p9FoFAqFQCBgXNJoNHScnk6+q6uroyPxqampLS0tarUa5ugxDNPQ0MDuva+trYWqCgsLOzs7U1NTYZO+ymSy3t5erVabmZlJMzGBBDwJeDo9YYnn86Ux+u3stv/NeDuljurcuXNyuVyr1apUKpFIBPkikai5uRnSERERMCOPEHLx4sXq6uq2tjbaEX3+/PmFhQWBQNDT06NSqdwmr0ENJSUlP/30E6Tb2tpouHzu3Lm2tjaY98flchUKhVKpFAqFUJIQ8sMPP9TU1LS1tdGH0QMDA1UqFRTIy8traGiAtFKp9Bynb3NJpVJVVlZeu3aNVhsSEtLc3NzV1ZWYmFhVVUXD7gcPHqjVavDsurq6rq6u7OzsqqqqGzdu0GMhwefzW1patFptdXU1PZwQcu7cuerqaoPB0NnZmZSURI8KDw+nT9zRTEwgAe8hwPHQJ/7lHAaFBJDAVgR2dnpyMAKn37luHx+fycnJncsc7b0PHz5MTEw82teIV3eoCXD2pAN8yo5BIQEksBWBT7LCzfs4PSFEIBDQ3+chn59whP7ze88P2RVz9iRc4YZBIYGPTMDX1/eES+Tj6iP8gv3HvSA8GxL47Ahw9iRctZZBIYGPT8DX1/f48eP/QCEBJIAEDpLA8ePHfX19Q0ND6bfcsWPH/D30N4+cnTKOHTtGq8MEEkACSAAJIAEk4FUE0Om96u3AxiABJIAEkAAS2GcC6PT7DBSrQwJIAAkgASTgVQTQ6b3q7cDGIAEkgASQABLYZwLo9PsMFKtDAtsR8PHxOchZOFg3EkACSOAtAZiRx/4iQqdn08A0EjgoAj4+Pl999RVBIQEkgAR2SYCzJ+FTdgwKCXxkAp/kl3MICgkggcNPgLMn4S/nMCgk8JEJfJJfwyUoJIAEDj8Bzp50KH8NN3yzGJfCw8Mh8Qlfo6Oj4+PjP2ED8NSHgsCWTl8487v8X3/I/+MPso18NkQXlt2m4B6zo6KiiouLCSEb5/GhK8buscb3OIye6z3K7qVIUFDQlldx4cIFWNeOViqVSumKPjQTE0jA2whwPPSJV7hJ2lHMB8hsNk+ylJ+fz1619gMqfvehN2/erKqq2rKcSqWyWCxDLvF4vC3LYCYSYBjGzenTdDOwXi1xqdj537IX/4Y0+3Vqasrh0uLiotFovHDh7Xp3+6jh4eHAwEBCSHNzM5zI4XDYbLYDXfHFbrfDuV68eDEwMBAeHr7DFXG5XJlMtkMB9q43S0o+f/7cZDI9ffpUq9XSXeHh4RaLZWFhYX5+3mq1xsXFwa7o6OiOjg5aDBNIwDsJcDbrKK9aazabk5KSmM0aHx+nq9Zu3rOfW3w+32QyedZYXFzc0dEB+bB8p2cZzEECQIDt9H6Xrl5OzCQeurf+f255U1NTYWFhkCmTyVpaWtwKfMgml8sdGBiAGpqbm+kK8W+6z1ZXVw+oF4EQYrfbf/zxRzhvSkrK0tLSDncwN27c0Ol073OZAQEBq6urdJna5uZmuVxOCDlz5szTp0/T09OhEoFAsLKyQhtgs9l++GHTSsHvcy4sgwQ+JgEOS/Hx8WNjY8HBwaw8TnBw8NjYWHx8PDvzUPbe7+z0QqHw8ePHExMTo6Ojubm5jEtWq7W2ttZqtY6OjgoEAoPBYLPZent7YS/DMAqFwmazTU1NKZVKyGxsbJTJZCaTyWazabVahmGioqIsFsuzZ88sFktcXBw9lmGY/v5+uPm4cuUKwzAxMTHsvZhGAmwCbKc/dy36Wnbp25j+5EniUtHcf0qf/w87yod8ttNHRkZSYxaJRDMzM3Nzc0ajMSQkBAoXFhba7faZmZnu7m7IuXHjxtjY2MzMjMViuXLlCmTSV7lcTsNlttMTQiYmJqB8YmKizWabm5sbHByk9xxcLtdkMs3NzbHj48nJyezsbLtLsbGxXV1dDofjzb+Sp4uznZ4QUlVVVV1dDa1SqVROp9NutyuVSkLI1atXp6enX758OT09DR3ytbW1CwsLT58+7enpcVu859q1a2NjY/TqTp06dfHiRUKITCZ7+PAhzSeElJeX19fXQ45CoSgsLGTvxTQS8DYCHJY6OjoyMzM5HI6/v3+mS/7+/hwOJzMzs6Ojg1WQc4BOv2PnvXtEzuxGZrM5JSUlYUNwKI3pnzx5kp2dzTCMUCicmZmBQH9hYaG4uJhhmPLycpvNBk7c09Nz584dhmHkcrlarYZ62traKisrGYZpbGw0Go1cLpdhGL1eL5VKGYbZLqafmpoqLS212WzT09OdnZ27uRos+9kRcHN64lL2k7W34/T/+nOcniZgLyFkamqKx+Ndv349Li5ueHg4NTWVEBIYGLiyshIaGkoISUpKmpiYIIRwOByn03n27FlCSE1NDYy+j4+P83g8WJfWsz9Ap9MJBAI4F9vpORzO2tqan5+fv7//8vIyWL5QKKTL2M/NzfH5fEIIl8tdWVnx9fV904DJycmysjJCSEJCwurqKtwW1NfXQ2BNr8gtpieE8Hg8o9FICJHL5bSRer0+KSmJEMKO6TMzM/V6/TfffEMIUSgUUqmUXS0hpLe312AwiMVif39/uqunpweqojlwpwKbubm5cFdB92ICCXgbAQ5LVquVYRiw9mcugfEzDGO1WlkFD9LpmQOT2WweYAnMGJxeKBTq9XrRhjo7O2EUf2FhAaLt9PR0g8EATYOvHoZhhoaGUlJS4CCxWDwwMABOL5fLoWRFRUVdXd0OTm+326nBq1QqhUJxYFePFR96Als6/Vt7c9k8c/qff+S87dCGV7Khqampbpd6e3vHx8eFQiEhpKioqLa2dqPIW4sNCwv75ptvVlZWJBIJe9LZwMAA3MLSwuyEyWSKiIiAnObm5r6+vt7eXp1O9+zZM/DsvLy8xsZGeojFYgkPD+dyuY8fP6aZarUaOsYnJyehdyEgIMBut0MBiUSiUChoYUi4xfTh4eFms5mW+fHHH+Pi4jo6OvLy8tycHsoEBgZGR0ffv3//wYMH9CiaSExMVCqVTqezu7sb7nsMBgMdmIdiDMNMT09DOjk5ube3lx6OCSTghQQ4LB19p99unF4ikQwNDbWzBLH4zk4/NjbGOuJtEpy+rKyMcemdTj89PS0QCKAwn8+fnJyENL4iAU8CbKc/e+VtnA0Cp4/2+RI2aQI22b33YWFhi4uLEPuyw9mBgQEI3K9du9bc3Dw1NWU2m8F0/fz8KisrR0ZGFhYWoD/gz7O6/phMJi6XCzkQ0/N4vJSUFOgkIITcdYke0tfXFxsbm5SU1N7eTjNramqg93tycvLSpUuEkN06fUpKSldXF3QG2O323t7eurq6+vp6T6fncrk2m81gMDQ2NhYXF2/p9LRhcrlcpVIRQlQqVU5ODs0nhAiFQuhFgE4RdHo2HEx7IQEOS17Re88cmHYYp+fz+RaLhZ6Z3hDs7PR6vT4jIwOOio2NjYiI2K3Ts2t4E9b8/PPPtA2YQAJuBNhOD6F8mtJAY/q/QvkTJ/5Ku3rv6ej4m3HrlZUVPz+/9PR0jUZDNvTs2TOI4yMjIyFPKpVCLE6H8LlcrsPh2Djiz7/d3d10jj27995kMkkkEkKISCRiz2B/MwQfFBQUFhZms9loVQaDIT4+Hnrv9+b0RqNRLBYTQgwGAwwKwLMAnk7/8OFDyITRdzenLyoqAmuHtgkEgsHBQUJIYmLiyMgIbTB08ufm5kJOYWFhc3Mzey+mkYC3EeCwdPRn5GWzJBKJ2E/ZdXR0tLa2ikQiqVQ6OzsLQ/I7O71EIrFYLHl5eWKxWKfTVVdXb+f0kZGRDocjJyeH2aysrCyz2Zzu0sjISElJyeb9uIUE/iLg5vSEkBOurvt3xvQCl4RCYX19PVgXzJgrKiricrlKlwghoaGhi4uLAoEgMjLy8ePH4IgTExN5eXmRkZG1tbVszyYuyWSy8vJySLOdns/n0+730dHRkpISLpfb1NSkVquhcHd3d11dHY/Hu3v3LjXRXcX0cFEwakYb1tjY2NDQEBERkZWVNTAwAJcQFhZmt9thPkFxcbFWqw0PDxeJRHq93s3pYfrCTz/9dPPmzczMzPn5edqNodVqdTodn8+Pjo7u7OzU6/VwIYSQ1tZWuK2hOZhAAt5GgLNZR/kpO81mlZaWMgyj0WjoU3b37t3TaDQKhYL2qGs0GjpOTyff1dXV0ZH41NTUlpYWtVoNc/QYhmloaGD33tfW1jIuFRYWdnZ2pqamwiZ9zcvL6+7uprP8aD4mkIAbAU+nJyzxfL40Rr99Vv5/MzY98dW2odbWVqlUSmebnzt3rrKyUq1W00fjYEj74cOHKpUqLS0N6g4ICKiurtZoNOzefnray5cvm0wm2FQoFOyq2tra4BA/Pz+Yu1pUVEQPJIQUFxdrNJq7d+/S36hRqVQ0pqextUQiobPc6eEb19TW0NBAOxVgr1wu12q1paWlZWVl2dnZkJmbm9vZ2QmPz4HZV1ZW5ubmes71Cw4Orqmp0Wq1zc3NMTEx9IyEkNzcXJiFAHMV6a75+fnz58/TTUwgAS8kwPHQJ/7lHAaFBJDAVgR2dnryiaTT6WAO/yc6/yc+bUJCgtsDeJ+4QXh6JLAVAc6edIBP2TEoJIAEtiLgnSvchISEJCQkkM9VCQkJZ86c+VyvHq/70BDg7Em4wg2DQgIfmYCvr+8JlwgKCSABJLAbApw9CVetZVBI4OMT8PX1PX78+D9QSAAJIIGDJHD8+HFfX9/Q0FD6LXfs2DF/D/3NI2enjGPHjtHqMIEEkAASQAJIAAl4FQF0eq96O7AxSAAJIAEkgAT2mcA+OP0XX3xx6dKlfW4XVocEkAASQAJIAAl8MIHg4OC///3vnj3zu+u9P3HixMmTJ9lDAh/cMKwACSABJIAEkAAS+FACoaGhJ0+ePHHixIc6vb+//1dfffXFF18cQyEBJIAEkAASQAJeQ+CLL77Y0ub9/f13F9P7o5AAEkACSAAJHDkCXj7ffMvR9/d/E9Dp358VlkQCSAAJIIGjSQCd/mi+r3hVSAAJIAEkgASAADo9fhKQABJAAkgACRxlAuj0R/ndxWtDAkgACSABJIBOj58BJIAEkAASQAJHmQA6/VF+d/HakAASQAJIAAmg0+NnAAkgASSABJDAUSawK6dvculDf+lmN8fjU3ZH+cOH14YEkAASQAIfgcD7O31ERMS///3v//f//t9unPpDy6LTf4TPAJ4CCSABJIAEjjIBdPqj/O7itSEBJIAEkAASeKfTR0ZG3nIpMTERYnqhUAg5uwrYCz30PodjTI8fUSSABJAAEkACH0TgnU7f2Nj472109+7d93FrKPP777+zq/n999/f51h0+g96d/FgJIAEkAASQALv4/SvNgRWvbH1aldO3+chdHr8+CEBJIAEkAASOHAC73R66sc4I+/A3ww8ARJAAkgACSCBfSeATr/vSLFCJIAEkAASQAJeRGC3Tv9f//VfNMr/CAkcp/eizwo2BQkgASSABA4jgfd3eoZhhC59BIOnp0CnP4wfKmwzEkACSAAJeBGBXTk9NeCPlkCn96LPCjYFCSABJIAEDiMBdPrD+K5hm5EAEkACSAAJvC+BL7744tKlSx8tRt/ViYKDg//+97+/75VsVe5vW2ViHhJAAkgACSCBz4jAiRMnTp48GRoauisP/giFQ0NDT548eeLEiQ95M9DpP4QeHosEkAASQAJHhMBXX331xRdfHPMyffHFFx9o8/7+/uj0R+QzipeBBJAAEkACSGBLAuj0W2LBTCSABJAAEkACR4QAOv0ReSPxMpAAEkACSAAJbEkAnX5LLJiJBJAAEkACSOCIEECnPyJvJF4GEkACSAAJIIEtCaDTb4kFM5EAEkACSAAJHBEC6PRH5I3Ey0ACSAAJIAEksCWBvx1DIQEkgASQABJAAkeXAMb0/igkgASQABJAAkeYADr9EX5z8dKQABJAAkgACeBv5OFnAAkgASSABJDAkSaAMf2Rfnvx4pAAEkACSOCzJ4BO/9l/BBAAEkACSAAJHGkC6PRH+u3Fi0MCSAAJIIHPngA6/Wf/EUAASAAJIAEkcKQJoNMf6bcXLw4JIAEkgAQ+ewLo9J/9R8CLAZw9e9YXhQS8nsDZs2e9+N8Im4YE8Ck7/Ax4K4GzZ88GBQXFxMTwUUjAiwnExMQEBQWh2XvrFwm26y0BjOnxc+ClBHx9fdHmvdjgsGl/EYiJifH19fXSfyRsFhJAp8fPgNcS8PX1/eurFFNIwLsJoNN77TcJNgxjevwMeC8BdHrvtjZs3SYC6PTe+1WCLcOYHj8DXksAnX6Tk+CGdxNAp/fabxJsGMb0+BnwXgJH1ekFAsEOniUUCj33xsfHb5kPJW/fvr3DXs/aMOcgCKDTe+9XCbYMY3r8DHgtgSPp9JmZmU+fPu3o6NjSbAQCwezsbF1dndve1tbW8fFxt0w+n19fXz81NfXixQun09nd3Z2SkuJZxgtz6uvr796964UN+5AmodN77TcJNgxjevwMeC+BI+n0jY2Nc3Nz8/PziYmJnr4iEAjm5ube0+kVCsX6+rpKpZLJZA8ePLDZbD///LNnnV6YY7VaFQqFFzbsQ5qETu+9XyXYMozp8TPgtQSOpNObzeaOjo4XL15UVFRQX6mqqrJYLDMzMx0dHdTp09LSent7p6enR0dHPWP6xMREu92uVCppJaWlpb/++mtxcTGfzy8vLx8ZGZmZmTEajQUFBXw+Pz8/32KxKJVKm81mMpkKCgqMRuP09LROp4N7jqGhIY1GYzKZpqene3t7U1NToeaamhqLxTI9Pd3f3y+RSPh8vkwms1gsbW1tU1NTo6OjcrkcSpaWlg4PD8/Ozg4PD0ulUj6fX1paarFYVCrV1NSUxWKBkmaz2el0TkxMjIyM0MYfgcfQTZgAAAV4SURBVAQ6vdd+k2DDMKbHz4D3Ejh6Tl9YWPjq1auSkpKBgQG9Xg/2dufOnZWVFY1GI5fL9Xr94uIixPSPHz8eHx+vrKxUKBRTU1NuvfdSqXR9fT0vL4/tkRkZGXw+v7CwcHl5WaPRVFRUGAwGq9WamJiYn5//+vVro9FYWVlpsVjGxsaam5sfPHiwuLgI4fXQ0ND4+Hhzc3NVVdX4+LjBYODz+Xfv3n358mVLS0tFRcUvv/xiNpvB6V++fKnX66uqqgwGw/z8fHx8fGZmpt1u12q1crm8q6trYWEhLS2ttLR0fX19YGCgqqqqv79/fn7+1q1blZWVENNXVlayG3/Y0+j03vtVgi3DmB4/A15L4Og5vVqtnpyc5PP5lZWVS0tLYrGYz+drNBrq4llZWS9evKirq8vMzFxfX6eD2T09PbQMOKJcLl9aWqKRN9smNRrN6Ogo5IjF4uXlZblcDk4P8X1TU9Ps7CwUGBwc1Gq1fD5/aGjIaDRC5k8//fTy5cuMjIy+vj6aWVBQ8PLly5KSEplM9vLly6ysLLirWF9fz8jIUCgUVqs1b0MOh+P+/fvg9NnZ2eySfD4fe++99p8OG3ZUCeBv5B3Vd/bQX9cRc/r4+HibzWbY0PPnzyF21+l0NL6Pj4+H3vvi4uLffvstJycHrLelpcXN6cFEoTsdyvD5fJFIxOfz+/v7dTodzbTZbAqFIj8//7fffoM+gKamJpvNBgV+/vln6vSPHj2CzKysrJcvXxYVFf3yyy/t7e2QmZCQ8PTp06qqKplMtrq6mpaWxufzCwoKwOk7OztfvHixtKHV1VWFQlFaWrq6ugo3NHl5eevr65mZmej0h/4/Ey/gEBJApz+Eb9rn0eQj5vQymey3337r3JBOpzOZTHw+v6Oj48mTJ+Cm6enpv/76K8T0L1++lMlkkN/V1eXm9MnJyU+fPm1qaoICfD6/pKRkcXFRKpV2dnZCzeD9i4uL1dXV7+P0/f39UFtxcfH6+np2drbBYKCZmZmZr169krnk6fRKpXJ8fDwtLS3VJYlEkpiYiE7/efyn4lUeAgLo9IfgTfo8m3jEnL6np4c6OgyBv3r1qqCgAKJzhUKRm5v76NEj6L3n8/m//PLL8PDwnTt35HK5w+Fwc3o+n9/c3Ly6utrU1FRYWFhWVjYxMQEG/9NPP7169aquri47O/vRo0fz8/Opqanv4/TPnj0rKyvLzc0dGBiAplZVVa2trVVVVRUWFvb29lqt1vj4+C1j+vz8/JWVlZaWluzs7Pr6erhN2c7pJyYm2traYNYevVM57Akcp/88v6YOy1Wj0x+Wd+qza+dRcvrk5GSHw8F+tEwoFM7NzbW2tvL5fIVCYbfbl5aWBgYGpqamoFc/Ly/PZDItLy/Pzs42Nzd7Oj2fz1cqlQ6HY319fWVlxWAwQN84n8+vq6ubnZ1dWloaHx+Hwf78/PylpaWde+87OzuhtvHx8Tt37oD1NjU1QduePHkCmTKZ7Pnz57T3/vnz5zAT8P79+1NTU8vLy3a7HTobSktLFxcXae/98+fPoYV1dXVOp3PLKzq8fo9O/9l9Qx2qC0anP1Rv1+fU2KPk9HQQne1kycnJt27dghyBQLDlE/aJiYnx8fHso9zSCQkJGRkZt2/fdsu/deuWW2ZycjKUuXXrFk0nJSVBG4aGhjo7O5OTk+ntAq1QIBBsVxWfz6dVQXmRSEQvym0vu2RiYiJ7k57r8CbQ6T+nL6fDd63o9IfvPftMWnzEnN7LPQyc3ssb6c3NQ6f/TL6XDullotMf0jfu6Dcbnf5jGltDQ0NNTc3HPOMROxc6/dH/SjrMV4hOf5jfvSPddnT6I+aFR/ty0OmP9LfRob+4/w8XRHrVdRjF+QAAAABJRU5ErkJggg==;" parent="9mYQ2G0g4DRSTcGuNHDm-41" vertex="1">
          <mxGeometry x="65" y="490" width="675" height="519" as="geometry" />
        </mxCell>
        <mxCell id="Qk1EgtEmgazbAcCYcNBb-29" value="存储生成的地图信息，在切换场景后重新绘制，保证地图一致" style="shape=note;size=20;whiteSpace=wrap;html=1;" parent="9mYQ2G0g4DRSTcGuNHDm-41" vertex="1">
          <mxGeometry x="1160" y="548" width="100" height="100" as="geometry" />
        </mxCell>
        <mxCell id="9mYQ2G0g4DRSTcGuNHDm-49" value="BaseEventSO" style="swimlane;fontStyle=0;childLayout=stackLayout;horizontal=1;startSize=30;horizontalStack=0;resizeParent=1;resizeParentMax=0;resizeLast=0;collapsible=1;marginBottom=0;whiteSpace=wrap;html=1;" parent="WIyWlLk6GJQsqaUBKTNV-1" vertex="1">
          <mxGeometry x="1530" y="450" width="210" height="150" as="geometry" />
        </mxCell>
        <mxCell id="9mYQ2G0g4DRSTcGuNHDm-50" value="+ description:string" style="text;strokeColor=none;fillColor=none;align=left;verticalAlign=middle;spacingLeft=4;spacingRight=4;overflow=hidden;points=[[0,0.5],[1,0.5]];portConstraint=eastwest;rotatable=0;whiteSpace=wrap;html=1;" parent="9mYQ2G0g4DRSTcGuNHDm-49" vertex="1">
          <mxGeometry y="30" width="210" height="30" as="geometry" />
        </mxCell>
        <mxCell id="9mYQ2G0g4DRSTcGuNHDm-51" value="+ OnEventRaised:UnityAction&amp;lt;T&amp;gt;" style="text;strokeColor=none;fillColor=none;align=left;verticalAlign=middle;spacingLeft=4;spacingRight=4;overflow=hidden;points=[[0,0.5],[1,0.5]];portConstraint=eastwest;rotatable=0;whiteSpace=wrap;html=1;" parent="9mYQ2G0g4DRSTcGuNHDm-49" vertex="1">
          <mxGeometry y="60" width="210" height="30" as="geometry" />
        </mxCell>
        <mxCell id="9mYQ2G0g4DRSTcGuNHDm-52" value="+ lastSender:string" style="text;strokeColor=none;fillColor=none;align=left;verticalAlign=middle;spacingLeft=4;spacingRight=4;overflow=hidden;points=[[0,0.5],[1,0.5]];portConstraint=eastwest;rotatable=0;whiteSpace=wrap;html=1;" parent="9mYQ2G0g4DRSTcGuNHDm-49" vertex="1">
          <mxGeometry y="90" width="210" height="30" as="geometry" />
        </mxCell>
        <mxCell id="9mYQ2G0g4DRSTcGuNHDm-53" value="+ RaiseEvent():void&amp;nbsp;" style="text;strokeColor=none;fillColor=none;align=left;verticalAlign=middle;spacingLeft=4;spacingRight=4;overflow=hidden;points=[[0,0.5],[1,0.5]];portConstraint=eastwest;rotatable=0;whiteSpace=wrap;html=1;" parent="9mYQ2G0g4DRSTcGuNHDm-49" vertex="1">
          <mxGeometry y="120" width="210" height="30" as="geometry" />
        </mxCell>
        <mxCell id="9mYQ2G0g4DRSTcGuNHDm-85" style="edgeStyle=orthogonalEdgeStyle;rounded=0;orthogonalLoop=1;jettySize=auto;html=1;endArrow=block;endFill=0;" parent="WIyWlLk6GJQsqaUBKTNV-1" source="9mYQ2G0g4DRSTcGuNHDm-54" target="9mYQ2G0g4DRSTcGuNHDm-49" edge="1">
          <mxGeometry relative="1" as="geometry" />
        </mxCell>
        <mxCell id="9mYQ2G0g4DRSTcGuNHDm-54" value="ObjectEventSO" style="swimlane;fontStyle=0;childLayout=stackLayout;horizontal=1;startSize=30;horizontalStack=0;resizeParent=1;resizeParentMax=0;resizeLast=0;collapsible=1;marginBottom=0;whiteSpace=wrap;html=1;" parent="WIyWlLk6GJQsqaUBKTNV-1" vertex="1">
          <mxGeometry x="1550" y="690" width="140" height="60" as="geometry" />
        </mxCell>
        <mxCell id="9mYQ2G0g4DRSTcGuNHDm-60" value="BaseEventListener" style="swimlane;fontStyle=0;childLayout=stackLayout;horizontal=1;startSize=30;horizontalStack=0;resizeParent=1;resizeParentMax=0;resizeLast=0;collapsible=1;marginBottom=0;whiteSpace=wrap;html=1;" parent="WIyWlLk6GJQsqaUBKTNV-1" vertex="1">
          <mxGeometry x="1830" y="450" width="140" height="90" as="geometry" />
        </mxCell>
        <mxCell id="9mYQ2G0g4DRSTcGuNHDm-61" value="eventSO" style="text;strokeColor=none;fillColor=none;align=left;verticalAlign=middle;spacingLeft=4;spacingRight=4;overflow=hidden;points=[[0,0.5],[1,0.5]];portConstraint=eastwest;rotatable=0;whiteSpace=wrap;html=1;" parent="9mYQ2G0g4DRSTcGuNHDm-60" vertex="1">
          <mxGeometry y="30" width="140" height="30" as="geometry" />
        </mxCell>
        <mxCell id="9mYQ2G0g4DRSTcGuNHDm-62" value="response" style="text;strokeColor=none;fillColor=none;align=left;verticalAlign=middle;spacingLeft=4;spacingRight=4;overflow=hidden;points=[[0,0.5],[1,0.5]];portConstraint=eastwest;rotatable=0;whiteSpace=wrap;html=1;" parent="9mYQ2G0g4DRSTcGuNHDm-60" vertex="1">
          <mxGeometry y="60" width="140" height="30" as="geometry" />
        </mxCell>
        <mxCell id="9mYQ2G0g4DRSTcGuNHDm-86" style="edgeStyle=orthogonalEdgeStyle;rounded=0;orthogonalLoop=1;jettySize=auto;html=1;endArrow=block;endFill=0;" parent="WIyWlLk6GJQsqaUBKTNV-1" source="9mYQ2G0g4DRSTcGuNHDm-64" target="9mYQ2G0g4DRSTcGuNHDm-60" edge="1">
          <mxGeometry relative="1" as="geometry" />
        </mxCell>
        <mxCell id="9mYQ2G0g4DRSTcGuNHDm-64" value="ObjectEventListener" style="swimlane;fontStyle=0;childLayout=stackLayout;horizontal=1;startSize=30;horizontalStack=0;resizeParent=1;resizeParentMax=0;resizeLast=0;collapsible=1;marginBottom=0;whiteSpace=wrap;html=1;" parent="WIyWlLk6GJQsqaUBKTNV-1" vertex="1">
          <mxGeometry x="1830" y="680" width="140" height="60" as="geometry" />
        </mxCell>
        <mxCell id="9mYQ2G0g4DRSTcGuNHDm-89" value="" style="edgeStyle=orthogonalEdgeStyle;rounded=0;orthogonalLoop=1;jettySize=auto;html=1;" parent="WIyWlLk6GJQsqaUBKTNV-1" source="9mYQ2G0g4DRSTcGuNHDm-72" target="9mYQ2G0g4DRSTcGuNHDm-88" edge="1">
          <mxGeometry relative="1" as="geometry" />
        </mxCell>
        <mxCell id="9mYQ2G0g4DRSTcGuNHDm-72" value="Room" style="rounded=1;whiteSpace=wrap;html=1;" parent="WIyWlLk6GJQsqaUBKTNV-1" vertex="1">
          <mxGeometry x="1580" y="892" width="120" height="48" as="geometry" />
        </mxCell>
        <mxCell id="9mYQ2G0g4DRSTcGuNHDm-87" style="edgeStyle=orthogonalEdgeStyle;rounded=0;orthogonalLoop=1;jettySize=auto;html=1;exitX=0;exitY=0.5;exitDx=0;exitDy=0;entryX=1;entryY=0.25;entryDx=0;entryDy=0;endArrow=open;endFill=0;" parent="WIyWlLk6GJQsqaUBKTNV-1" source="9mYQ2G0g4DRSTcGuNHDm-61" target="9mYQ2G0g4DRSTcGuNHDm-54" edge="1">
          <mxGeometry relative="1" as="geometry" />
        </mxCell>
        <mxCell id="9mYQ2G0g4DRSTcGuNHDm-91" value="" style="edgeStyle=orthogonalEdgeStyle;rounded=0;orthogonalLoop=1;jettySize=auto;html=1;entryX=0;entryY=0.5;entryDx=0;entryDy=0;" parent="WIyWlLk6GJQsqaUBKTNV-1" source="9mYQ2G0g4DRSTcGuNHDm-88" target="9mYQ2G0g4DRSTcGuNHDm-93" edge="1">
          <mxGeometry relative="1" as="geometry">
            <mxPoint x="1770" y="1014.0434782608697" as="targetPoint" />
          </mxGeometry>
        </mxCell>
        <mxCell id="9mYQ2G0g4DRSTcGuNHDm-92" value="发送事件" style="edgeLabel;html=1;align=center;verticalAlign=middle;resizable=0;points=[];" parent="9mYQ2G0g4DRSTcGuNHDm-91" vertex="1" connectable="0">
          <mxGeometry x="-0.1098" y="-3" relative="1" as="geometry">
            <mxPoint as="offset" />
          </mxGeometry>
        </mxCell>
        <mxCell id="9mYQ2G0g4DRSTcGuNHDm-88" value="被点击" style="rounded=1;whiteSpace=wrap;html=1;" parent="WIyWlLk6GJQsqaUBKTNV-1" vertex="1">
          <mxGeometry x="1580" y="1020" width="120" height="48" as="geometry" />
        </mxCell>
        <mxCell id="9mYQ2G0g4DRSTcGuNHDm-93" value="RaiseEvent：loadRoomEvent" style="ellipse;whiteSpace=wrap;html=1;aspect=fixed;" parent="WIyWlLk6GJQsqaUBKTNV-1" vertex="1">
          <mxGeometry x="1810" y="958" width="110" height="110" as="geometry" />
        </mxCell>
        <mxCell id="9mYQ2G0g4DRSTcGuNHDm-103" value="" style="edgeStyle=orthogonalEdgeStyle;rounded=0;orthogonalLoop=1;jettySize=auto;html=1;" parent="WIyWlLk6GJQsqaUBKTNV-1" source="9mYQ2G0g4DRSTcGuNHDm-94" target="9mYQ2G0g4DRSTcGuNHDm-102" edge="1">
          <mxGeometry relative="1" as="geometry" />
        </mxCell>
        <mxCell id="9mYQ2G0g4DRSTcGuNHDm-94" value="SceneLoadManager" style="swimlane;fontStyle=0;childLayout=stackLayout;horizontal=1;startSize=30;horizontalStack=0;resizeParent=1;resizeParentMax=0;resizeLast=0;collapsible=1;marginBottom=0;whiteSpace=wrap;html=1;" parent="WIyWlLk6GJQsqaUBKTNV-1" vertex="1">
          <mxGeometry x="2040" y="958" width="260" height="210" as="geometry" />
        </mxCell>
        <mxCell id="bwuRHdogZFhXZ-GJFVj6-4" value="ObjectEventListener：LoadRoom" style="text;strokeColor=none;fillColor=none;align=left;verticalAlign=middle;spacingLeft=4;spacingRight=4;overflow=hidden;points=[[0,0.5],[1,0.5]];portConstraint=eastwest;rotatable=0;whiteSpace=wrap;html=1;" parent="9mYQ2G0g4DRSTcGuNHDm-94" vertex="1">
          <mxGeometry y="30" width="260" height="30" as="geometry" />
        </mxCell>
        <mxCell id="bwuRHdogZFhXZ-GJFVj6-11" value="ObjectEventListener：LoadMap" style="text;strokeColor=none;fillColor=none;align=left;verticalAlign=middle;spacingLeft=4;spacingRight=4;overflow=hidden;points=[[0,0.5],[1,0.5]];portConstraint=eastwest;rotatable=0;whiteSpace=wrap;html=1;" parent="9mYQ2G0g4DRSTcGuNHDm-94" vertex="1">
          <mxGeometry y="60" width="260" height="30" as="geometry" />
        </mxCell>
        <mxCell id="9mYQ2G0g4DRSTcGuNHDm-95" value="-&amp;nbsp;_currentScene:AssetReference" style="text;strokeColor=none;fillColor=none;align=left;verticalAlign=middle;spacingLeft=4;spacingRight=4;overflow=hidden;points=[[0,0.5],[1,0.5]];portConstraint=eastwest;rotatable=0;whiteSpace=wrap;html=1;" parent="9mYQ2G0g4DRSTcGuNHDm-94" vertex="1">
          <mxGeometry y="90" width="260" height="30" as="geometry" />
        </mxCell>
        <mxCell id="bwuRHdogZFhXZ-GJFVj6-5" value="+ map:AssetReference" style="text;strokeColor=none;fillColor=none;align=left;verticalAlign=middle;spacingLeft=4;spacingRight=4;overflow=hidden;points=[[0,0.5],[1,0.5]];portConstraint=eastwest;rotatable=0;whiteSpace=wrap;html=1;" parent="9mYQ2G0g4DRSTcGuNHDm-94" vertex="1">
          <mxGeometry y="120" width="260" height="30" as="geometry" />
        </mxCell>
        <mxCell id="bwuRHdogZFhXZ-GJFVj6-8" style="edgeStyle=orthogonalEdgeStyle;rounded=0;orthogonalLoop=1;jettySize=auto;html=1;exitX=1;exitY=0.5;exitDx=0;exitDy=0;entryX=1;entryY=0.5;entryDx=0;entryDy=0;" parent="9mYQ2G0g4DRSTcGuNHDm-94" source="bwuRHdogZFhXZ-GJFVj6-6" target="bwuRHdogZFhXZ-GJFVj6-7" edge="1">
          <mxGeometry relative="1" as="geometry">
            <mxPoint x="340" y="172" as="targetPoint" />
            <Array as="points">
              <mxPoint x="350" y="135" />
              <mxPoint x="350" y="165" />
            </Array>
          </mxGeometry>
        </mxCell>
        <mxCell id="bwuRHdogZFhXZ-GJFVj6-9" value="触发事件后，加载房间" style="edgeLabel;html=1;align=center;verticalAlign=middle;resizable=0;points=[];" parent="bwuRHdogZFhXZ-GJFVj6-8" vertex="1" connectable="0">
          <mxGeometry x="-0.5429" y="-3" relative="1" as="geometry">
            <mxPoint x="12" y="-18" as="offset" />
          </mxGeometry>
        </mxCell>
        <mxCell id="bwuRHdogZFhXZ-GJFVj6-6" value="+&amp;nbsp;OnLoadRoomEvent(object value): void" style="text;strokeColor=none;fillColor=none;align=left;verticalAlign=middle;spacingLeft=4;spacingRight=4;overflow=hidden;points=[[0,0.5],[1,0.5]];portConstraint=eastwest;rotatable=0;whiteSpace=wrap;html=1;" parent="9mYQ2G0g4DRSTcGuNHDm-94" vertex="1">
          <mxGeometry y="150" width="260" height="30" as="geometry" />
        </mxCell>
        <mxCell id="bwuRHdogZFhXZ-GJFVj6-7" value="-&amp;nbsp;LoadSceneTask(): Awaitable" style="text;strokeColor=none;fillColor=none;align=left;verticalAlign=middle;spacingLeft=4;spacingRight=4;overflow=hidden;points=[[0,0.5],[1,0.5]];portConstraint=eastwest;rotatable=0;whiteSpace=wrap;html=1;" parent="9mYQ2G0g4DRSTcGuNHDm-94" vertex="1">
          <mxGeometry y="180" width="260" height="30" as="geometry" />
        </mxCell>
        <mxCell id="9mYQ2G0g4DRSTcGuNHDm-98" style="edgeStyle=orthogonalEdgeStyle;rounded=0;orthogonalLoop=1;jettySize=auto;html=1;entryX=1;entryY=0.25;entryDx=0;entryDy=0;dashed=1;exitX=1;exitY=0.5;exitDx=0;exitDy=0;" parent="WIyWlLk6GJQsqaUBKTNV-1" source="bwuRHdogZFhXZ-GJFVj6-4" target="9mYQ2G0g4DRSTcGuNHDm-64" edge="1">
          <mxGeometry relative="1" as="geometry">
            <Array as="points">
              <mxPoint x="2320" y="1003" />
              <mxPoint x="2320" y="940" />
              <mxPoint x="1995" y="940" />
              <mxPoint x="1995" y="695" />
            </Array>
          </mxGeometry>
        </mxCell>
        <mxCell id="9mYQ2G0g4DRSTcGuNHDm-100" style="edgeStyle=orthogonalEdgeStyle;rounded=0;orthogonalLoop=1;jettySize=auto;html=1;entryX=1;entryY=0.5;entryDx=0;entryDy=0;" parent="WIyWlLk6GJQsqaUBKTNV-1" source="9mYQ2G0g4DRSTcGuNHDm-95" target="9mYQ2G0g4DRSTcGuNHDm-93" edge="1">
          <mxGeometry relative="1" as="geometry" />
        </mxCell>
        <mxCell id="9mYQ2G0g4DRSTcGuNHDm-101" value="监听事件" style="edgeLabel;html=1;align=center;verticalAlign=middle;resizable=0;points=[];" parent="9mYQ2G0g4DRSTcGuNHDm-100" vertex="1" connectable="0">
          <mxGeometry x="0.2024" y="4" relative="1" as="geometry">
            <mxPoint as="offset" />
          </mxGeometry>
        </mxCell>
        <mxCell id="9mYQ2G0g4DRSTcGuNHDm-105" value="" style="edgeStyle=orthogonalEdgeStyle;rounded=0;orthogonalLoop=1;jettySize=auto;html=1;" parent="WIyWlLk6GJQsqaUBKTNV-1" source="9mYQ2G0g4DRSTcGuNHDm-102" target="9mYQ2G0g4DRSTcGuNHDm-104" edge="1">
          <mxGeometry relative="1" as="geometry" />
        </mxCell>
        <mxCell id="9mYQ2G0g4DRSTcGuNHDm-102" value="EventSO触发？" style="rhombus;whiteSpace=wrap;html=1;fontStyle=0;startSize=30;horizontal=1;" parent="WIyWlLk6GJQsqaUBKTNV-1" vertex="1">
          <mxGeometry x="2090" y="1240" width="110" height="80" as="geometry" />
        </mxCell>
        <mxCell id="9mYQ2G0g4DRSTcGuNHDm-104" value="执行Response中的所有操作" style="whiteSpace=wrap;html=1;fontStyle=0;startSize=30;horizontal=1;" parent="WIyWlLk6GJQsqaUBKTNV-1" vertex="1">
          <mxGeometry x="2085" y="1410" width="120" height="60" as="geometry" />
        </mxCell>
        <mxCell id="9mYQ2G0g4DRSTcGuNHDm-106" value="yes" style="text;html=1;align=center;verticalAlign=middle;resizable=0;points=[];autosize=1;strokeColor=none;fillColor=none;" parent="WIyWlLk6GJQsqaUBKTNV-1" vertex="1">
          <mxGeometry x="2100" y="1198" width="40" height="30" as="geometry" />
        </mxCell>
        <mxCell id="bwuRHdogZFhXZ-GJFVj6-12" value="&lt;span style=&quot;font-weight: 400;&quot;&gt;SceneLoadManager 加载房间&lt;/span&gt;" style="swimlane;whiteSpace=wrap;html=1;" parent="WIyWlLk6GJQsqaUBKTNV-1" vertex="1">
          <mxGeometry x="2490" y="29" width="1330" height="1281" as="geometry" />
        </mxCell>
        <mxCell id="bwuRHdogZFhXZ-GJFVj6-13" value="&lt;span style=&quot;text-align: left;&quot;&gt;ObjectEventListener：LoadRoom&lt;/span&gt;" style="rounded=1;whiteSpace=wrap;html=1;" parent="bwuRHdogZFhXZ-GJFVj6-12" vertex="1">
          <mxGeometry x="100" y="130" width="120" height="60" as="geometry" />
        </mxCell>
        <mxCell id="bwuRHdogZFhXZ-GJFVj6-14" value="&lt;span style=&quot;text-align: left;&quot;&gt;ObjectEventListener：LoadMap&lt;/span&gt;" style="rounded=1;whiteSpace=wrap;html=1;" parent="bwuRHdogZFhXZ-GJFVj6-12" vertex="1">
          <mxGeometry x="280" y="130" width="120" height="60" as="geometry" />
        </mxCell>
        <mxCell id="bwuRHdogZFhXZ-GJFVj6-15" value="SceneLoadManager" style="rounded=1;whiteSpace=wrap;html=1;" parent="bwuRHdogZFhXZ-GJFVj6-12" vertex="1">
          <mxGeometry x="450" y="130" width="120" height="60" as="geometry" />
        </mxCell>
        <mxCell id="bwuRHdogZFhXZ-GJFVj6-16" value="" style="ellipse;html=1;shape=startState;fillColor=#000000;strokeColor=#ff0000;" parent="bwuRHdogZFhXZ-GJFVj6-12" vertex="1">
          <mxGeometry x="710" y="70" width="30" height="30" as="geometry" />
        </mxCell>
        <mxCell id="bwuRHdogZFhXZ-GJFVj6-17" value="" style="edgeStyle=orthogonalEdgeStyle;html=1;verticalAlign=bottom;endArrow=open;endSize=8;strokeColor=#ff0000;rounded=0;entryX=0.5;entryY=0;entryDx=0;entryDy=0;" parent="bwuRHdogZFhXZ-GJFVj6-12" source="bwuRHdogZFhXZ-GJFVj6-16" target="bwuRHdogZFhXZ-GJFVj6-27" edge="1">
          <mxGeometry relative="1" as="geometry">
            <mxPoint x="725" y="160" as="targetPoint" />
          </mxGeometry>
        </mxCell>
        <mxCell id="bwuRHdogZFhXZ-GJFVj6-25" value="等待事件触发" style="rounded=1;whiteSpace=wrap;html=1;" parent="bwuRHdogZFhXZ-GJFVj6-12" vertex="1">
          <mxGeometry x="665" y="311" width="120" height="60" as="geometry" />
        </mxCell>
        <mxCell id="bwuRHdogZFhXZ-GJFVj6-28" style="edgeStyle=orthogonalEdgeStyle;rounded=0;orthogonalLoop=1;jettySize=auto;html=1;" parent="bwuRHdogZFhXZ-GJFVj6-12" source="bwuRHdogZFhXZ-GJFVj6-27" target="bwuRHdogZFhXZ-GJFVj6-25" edge="1">
          <mxGeometry relative="1" as="geometry" />
        </mxCell>
        <mxCell id="bwuRHdogZFhXZ-GJFVj6-82" style="edgeStyle=orthogonalEdgeStyle;rounded=0;orthogonalLoop=1;jettySize=auto;html=1;entryX=1;entryY=0.5;entryDx=0;entryDy=0;dashed=1;dashPattern=8 8;" parent="bwuRHdogZFhXZ-GJFVj6-12" source="bwuRHdogZFhXZ-GJFVj6-27" target="bwuRHdogZFhXZ-GJFVj6-60" edge="1">
          <mxGeometry relative="1" as="geometry" />
        </mxCell>
        <mxCell id="bwuRHdogZFhXZ-GJFVj6-27" value="配置地图Scene" style="rounded=1;whiteSpace=wrap;html=1;" parent="bwuRHdogZFhXZ-GJFVj6-12" vertex="1">
          <mxGeometry x="665" y="180" width="120" height="60" as="geometry" />
        </mxCell>
        <mxCell id="bwuRHdogZFhXZ-GJFVj6-30" style="edgeStyle=orthogonalEdgeStyle;rounded=0;orthogonalLoop=1;jettySize=auto;html=1;exitX=0.5;exitY=1;exitDx=0;exitDy=0;entryX=0.5;entryY=0;entryDx=0;entryDy=0;entryPerimeter=0;" parent="bwuRHdogZFhXZ-GJFVj6-12" source="bwuRHdogZFhXZ-GJFVj6-25" edge="1">
          <mxGeometry relative="1" as="geometry">
            <mxPoint x="725" y="421" as="targetPoint" />
          </mxGeometry>
        </mxCell>
        <mxCell id="bwuRHdogZFhXZ-GJFVj6-38" value="" style="edgeStyle=orthogonalEdgeStyle;rounded=0;orthogonalLoop=1;jettySize=auto;html=1;" parent="bwuRHdogZFhXZ-GJFVj6-12" source="bwuRHdogZFhXZ-GJFVj6-31" target="bwuRHdogZFhXZ-GJFVj6-37" edge="1">
          <mxGeometry relative="1" as="geometry" />
        </mxCell>
        <mxCell id="bwuRHdogZFhXZ-GJFVj6-31" value="设置_currentScene为房间的Scene" style="rounded=1;whiteSpace=wrap;html=1;" parent="bwuRHdogZFhXZ-GJFVj6-12" vertex="1">
          <mxGeometry x="390" y="631" width="120" height="60" as="geometry" />
        </mxCell>
        <mxCell id="bwuRHdogZFhXZ-GJFVj6-35" style="edgeStyle=orthogonalEdgeStyle;rounded=0;orthogonalLoop=1;jettySize=auto;html=1;entryX=0.5;entryY=0;entryDx=0;entryDy=0;" parent="bwuRHdogZFhXZ-GJFVj6-12" source="bwuRHdogZFhXZ-GJFVj6-34" target="bwuRHdogZFhXZ-GJFVj6-72" edge="1">
          <mxGeometry relative="1" as="geometry">
            <Array as="points">
              <mxPoint x="650" y="491" />
              <mxPoint x="450" y="491" />
            </Array>
          </mxGeometry>
        </mxCell>
        <mxCell id="bwuRHdogZFhXZ-GJFVj6-61" style="edgeStyle=orthogonalEdgeStyle;rounded=0;orthogonalLoop=1;jettySize=auto;html=1;entryX=0.5;entryY=0;entryDx=0;entryDy=0;" parent="bwuRHdogZFhXZ-GJFVj6-12" source="bwuRHdogZFhXZ-GJFVj6-34" target="bwuRHdogZFhXZ-GJFVj6-76" edge="1">
          <mxGeometry relative="1" as="geometry">
            <mxPoint x="990" y="511" as="targetPoint" />
            <Array as="points">
              <mxPoint x="800" y="491" />
              <mxPoint x="990" y="491" />
            </Array>
          </mxGeometry>
        </mxCell>
        <mxCell id="bwuRHdogZFhXZ-GJFVj6-34" value="" style="line;strokeWidth=10;fillColor=none;align=left;verticalAlign=middle;spacingTop=-1;spacingLeft=3;spacingRight=3;rotatable=0;labelPosition=right;points=[];portConstraint=eastwest;strokeColor=inherit;" parent="bwuRHdogZFhXZ-GJFVj6-12" vertex="1">
          <mxGeometry x="610" y="421" width="220" height="8" as="geometry" />
        </mxCell>
        <mxCell id="bwuRHdogZFhXZ-GJFVj6-40" value="" style="edgeStyle=orthogonalEdgeStyle;rounded=0;orthogonalLoop=1;jettySize=auto;html=1;" parent="bwuRHdogZFhXZ-GJFVj6-12" source="bwuRHdogZFhXZ-GJFVj6-37" target="bwuRHdogZFhXZ-GJFVj6-39" edge="1">
          <mxGeometry relative="1" as="geometry" />
        </mxCell>
        <mxCell id="bwuRHdogZFhXZ-GJFVj6-37" value="卸载ActiveScene" style="rounded=1;whiteSpace=wrap;html=1;" parent="bwuRHdogZFhXZ-GJFVj6-12" vertex="1">
          <mxGeometry x="660" y="821" width="120" height="60" as="geometry" />
        </mxCell>
        <mxCell id="bwuRHdogZFhXZ-GJFVj6-65" style="edgeStyle=orthogonalEdgeStyle;rounded=0;orthogonalLoop=1;jettySize=auto;html=1;entryX=0.5;entryY=0;entryDx=0;entryDy=0;" parent="bwuRHdogZFhXZ-GJFVj6-12" source="bwuRHdogZFhXZ-GJFVj6-39" target="bwuRHdogZFhXZ-GJFVj6-64" edge="1">
          <mxGeometry relative="1" as="geometry" />
        </mxCell>
        <mxCell id="bwuRHdogZFhXZ-GJFVj6-39" value="加载_currentScene" style="rounded=1;whiteSpace=wrap;html=1;" parent="bwuRHdogZFhXZ-GJFVj6-12" vertex="1">
          <mxGeometry x="660" y="1001" width="120" height="60" as="geometry" />
        </mxCell>
        <mxCell id="bwuRHdogZFhXZ-GJFVj6-63" style="edgeStyle=orthogonalEdgeStyle;rounded=0;orthogonalLoop=1;jettySize=auto;html=1;" parent="bwuRHdogZFhXZ-GJFVj6-12" source="bwuRHdogZFhXZ-GJFVj6-60" target="bwuRHdogZFhXZ-GJFVj6-37" edge="1">
          <mxGeometry relative="1" as="geometry" />
        </mxCell>
        <mxCell id="bwuRHdogZFhXZ-GJFVj6-60" value="设置_currentScene为map" style="rounded=1;whiteSpace=wrap;html=1;" parent="bwuRHdogZFhXZ-GJFVj6-12" vertex="1">
          <mxGeometry x="930" y="631" width="120" height="60" as="geometry" />
        </mxCell>
        <mxCell id="bwuRHdogZFhXZ-GJFVj6-64" value="" style="ellipse;html=1;shape=endState;fillColor=#000000;strokeColor=#ff0000;" parent="bwuRHdogZFhXZ-GJFVj6-12" vertex="1">
          <mxGeometry x="705" y="1140" width="30" height="30" as="geometry" />
        </mxCell>
        <mxCell id="bwuRHdogZFhXZ-GJFVj6-68" value="" style="edgeStyle=orthogonalEdgeStyle;rounded=0;orthogonalLoop=1;jettySize=auto;html=1;" parent="bwuRHdogZFhXZ-GJFVj6-12" source="bwuRHdogZFhXZ-GJFVj6-66" target="bwuRHdogZFhXZ-GJFVj6-67" edge="1">
          <mxGeometry relative="1" as="geometry" />
        </mxCell>
        <mxCell id="bwuRHdogZFhXZ-GJFVj6-66" value="Room" style="rounded=1;whiteSpace=wrap;html=1;" parent="bwuRHdogZFhXZ-GJFVj6-12" vertex="1">
          <mxGeometry x="120" y="281" width="120" height="60" as="geometry" />
        </mxCell>
        <mxCell id="bwuRHdogZFhXZ-GJFVj6-70" value="" style="edgeStyle=orthogonalEdgeStyle;rounded=0;orthogonalLoop=1;jettySize=auto;html=1;" parent="bwuRHdogZFhXZ-GJFVj6-12" source="bwuRHdogZFhXZ-GJFVj6-67" target="bwuRHdogZFhXZ-GJFVj6-69" edge="1">
          <mxGeometry relative="1" as="geometry" />
        </mxCell>
        <mxCell id="bwuRHdogZFhXZ-GJFVj6-67" value="被点击" style="rounded=1;whiteSpace=wrap;html=1;" parent="bwuRHdogZFhXZ-GJFVj6-12" vertex="1">
          <mxGeometry x="120" y="421" width="120" height="60" as="geometry" />
        </mxCell>
        <mxCell id="bwuRHdogZFhXZ-GJFVj6-69" value="触发加载房间事件&lt;br&gt;事件中传递RoomData" style="rounded=1;whiteSpace=wrap;html=1;" parent="bwuRHdogZFhXZ-GJFVj6-12" vertex="1">
          <mxGeometry x="120" y="561" width="120" height="60" as="geometry" />
        </mxCell>
        <mxCell id="bwuRHdogZFhXZ-GJFVj6-71" style="edgeStyle=orthogonalEdgeStyle;rounded=0;orthogonalLoop=1;jettySize=auto;html=1;entryX=0;entryY=0.5;entryDx=0;entryDy=0;" parent="bwuRHdogZFhXZ-GJFVj6-12" source="bwuRHdogZFhXZ-GJFVj6-69" target="bwuRHdogZFhXZ-GJFVj6-72" edge="1">
          <mxGeometry relative="1" as="geometry" />
        </mxCell>
        <mxCell id="bwuRHdogZFhXZ-GJFVj6-73" value="触发" style="edgeLabel;html=1;align=center;verticalAlign=middle;resizable=0;points=[];" parent="bwuRHdogZFhXZ-GJFVj6-71" vertex="1" connectable="0">
          <mxGeometry x="0.2766" y="2" relative="1" as="geometry">
            <mxPoint as="offset" />
          </mxGeometry>
        </mxCell>
        <mxCell id="bwuRHdogZFhXZ-GJFVj6-74" style="edgeStyle=orthogonalEdgeStyle;rounded=0;orthogonalLoop=1;jettySize=auto;html=1;exitX=0.5;exitY=1;exitDx=0;exitDy=0;entryX=0.5;entryY=0;entryDx=0;entryDy=0;" parent="bwuRHdogZFhXZ-GJFVj6-12" source="bwuRHdogZFhXZ-GJFVj6-72" target="bwuRHdogZFhXZ-GJFVj6-31" edge="1">
          <mxGeometry relative="1" as="geometry" />
        </mxCell>
        <mxCell id="bwuRHdogZFhXZ-GJFVj6-75" value="响应" style="edgeLabel;html=1;align=center;verticalAlign=middle;resizable=0;points=[];" parent="bwuRHdogZFhXZ-GJFVj6-74" vertex="1" connectable="0">
          <mxGeometry x="-0.0032" y="1" relative="1" as="geometry">
            <mxPoint as="offset" />
          </mxGeometry>
        </mxCell>
        <mxCell id="bwuRHdogZFhXZ-GJFVj6-72" value="&lt;span style=&quot;font-size: 11px; text-wrap-mode: nowrap; background-color: rgb(255, 255, 255);&quot;&gt;加载房间事件&lt;/span&gt;" style="rounded=1;whiteSpace=wrap;html=1;" parent="bwuRHdogZFhXZ-GJFVj6-12" vertex="1">
          <mxGeometry x="390" y="526" width="120" height="60" as="geometry" />
        </mxCell>
        <mxCell id="bwuRHdogZFhXZ-GJFVj6-77" style="edgeStyle=orthogonalEdgeStyle;rounded=0;orthogonalLoop=1;jettySize=auto;html=1;entryX=0.5;entryY=0;entryDx=0;entryDy=0;" parent="bwuRHdogZFhXZ-GJFVj6-12" source="bwuRHdogZFhXZ-GJFVj6-76" target="bwuRHdogZFhXZ-GJFVj6-60" edge="1">
          <mxGeometry relative="1" as="geometry" />
        </mxCell>
        <mxCell id="bwuRHdogZFhXZ-GJFVj6-78" value="响应" style="edgeLabel;html=1;align=center;verticalAlign=middle;resizable=0;points=[];" parent="bwuRHdogZFhXZ-GJFVj6-77" vertex="1" connectable="0">
          <mxGeometry x="-0.1048" relative="1" as="geometry">
            <mxPoint as="offset" />
          </mxGeometry>
        </mxCell>
        <mxCell id="bwuRHdogZFhXZ-GJFVj6-76" value="&lt;span style=&quot;font-size: 11px; text-wrap-mode: nowrap; background-color: rgb(255, 255, 255);&quot;&gt;加载地图事件&lt;/span&gt;" style="rounded=1;whiteSpace=wrap;html=1;" parent="bwuRHdogZFhXZ-GJFVj6-12" vertex="1">
          <mxGeometry x="930" y="526" width="120" height="60" as="geometry" />
        </mxCell>
        <mxCell id="bwuRHdogZFhXZ-GJFVj6-80" style="edgeStyle=orthogonalEdgeStyle;rounded=0;orthogonalLoop=1;jettySize=auto;html=1;exitX=0.5;exitY=1;exitDx=0;exitDy=0;entryX=1;entryY=0.5;entryDx=0;entryDy=0;" parent="bwuRHdogZFhXZ-GJFVj6-12" source="bwuRHdogZFhXZ-GJFVj6-79" target="bwuRHdogZFhXZ-GJFVj6-76" edge="1">
          <mxGeometry relative="1" as="geometry" />
        </mxCell>
        <mxCell id="bwuRHdogZFhXZ-GJFVj6-81" value="触发" style="edgeLabel;html=1;align=center;verticalAlign=middle;resizable=0;points=[];" parent="bwuRHdogZFhXZ-GJFVj6-80" vertex="1" connectable="0">
          <mxGeometry x="0.2713" y="-2" relative="1" as="geometry">
            <mxPoint as="offset" />
          </mxGeometry>
        </mxCell>
        <mxCell id="bwuRHdogZFhXZ-GJFVj6-79" value="点击地图按钮" style="rounded=1;whiteSpace=wrap;html=1;" parent="bwuRHdogZFhXZ-GJFVj6-12" vertex="1">
          <mxGeometry x="1150" y="411" width="120" height="60" as="geometry" />
        </mxCell>
        <mxCell id="Qk1EgtEmgazbAcCYcNBb-30" value="" style="ellipse;html=1;shape=startState;fillColor=#000000;strokeColor=#ff0000;" parent="WIyWlLk6GJQsqaUBKTNV-1" vertex="1">
          <mxGeometry x="280" y="1600" width="30" height="30" as="geometry" />
        </mxCell>
        <mxCell id="Qk1EgtEmgazbAcCYcNBb-31" value="" style="edgeStyle=orthogonalEdgeStyle;html=1;verticalAlign=bottom;endArrow=open;endSize=8;strokeColor=#ff0000;rounded=0;entryX=0.5;entryY=0;entryDx=0;entryDy=0;" parent="WIyWlLk6GJQsqaUBKTNV-1" source="Qk1EgtEmgazbAcCYcNBb-30" target="Qk1EgtEmgazbAcCYcNBb-32" edge="1">
          <mxGeometry relative="1" as="geometry">
            <mxPoint x="295" y="1690" as="targetPoint" />
          </mxGeometry>
        </mxCell>
        <mxCell id="Qk1EgtEmgazbAcCYcNBb-44" style="edgeStyle=orthogonalEdgeStyle;rounded=0;orthogonalLoop=1;jettySize=auto;html=1;exitX=0.5;exitY=1;exitDx=0;exitDy=0;" parent="WIyWlLk6GJQsqaUBKTNV-1" source="Qk1EgtEmgazbAcCYcNBb-32" target="Qk1EgtEmgazbAcCYcNBb-34" edge="1">
          <mxGeometry relative="1" as="geometry" />
        </mxCell>
        <mxCell id="Qk1EgtEmgazbAcCYcNBb-32" value="初始化" style="rounded=1;whiteSpace=wrap;html=1;" parent="WIyWlLk6GJQsqaUBKTNV-1" vertex="1">
          <mxGeometry x="235" y="1680" width="120" height="60" as="geometry" />
        </mxCell>
        <mxCell id="Qk1EgtEmgazbAcCYcNBb-36" value="" style="edgeStyle=orthogonalEdgeStyle;rounded=0;orthogonalLoop=1;jettySize=auto;html=1;" parent="WIyWlLk6GJQsqaUBKTNV-1" source="Qk1EgtEmgazbAcCYcNBb-34" target="Qk1EgtEmgazbAcCYcNBb-35" edge="1">
          <mxGeometry relative="1" as="geometry" />
        </mxCell>
        <mxCell id="Qk1EgtEmgazbAcCYcNBb-37" value="Yes" style="edgeLabel;html=1;align=center;verticalAlign=middle;resizable=0;points=[];" parent="Qk1EgtEmgazbAcCYcNBb-36" vertex="1" connectable="0">
          <mxGeometry x="-0.303" y="5" relative="1" as="geometry">
            <mxPoint as="offset" />
          </mxGeometry>
        </mxCell>
        <mxCell id="Qk1EgtEmgazbAcCYcNBb-39" value="" style="edgeStyle=orthogonalEdgeStyle;rounded=0;orthogonalLoop=1;jettySize=auto;html=1;" parent="WIyWlLk6GJQsqaUBKTNV-1" source="Qk1EgtEmgazbAcCYcNBb-34" target="Qk1EgtEmgazbAcCYcNBb-38" edge="1">
          <mxGeometry relative="1" as="geometry" />
        </mxCell>
        <mxCell id="Qk1EgtEmgazbAcCYcNBb-41" value="No" style="edgeLabel;html=1;align=center;verticalAlign=middle;resizable=0;points=[];" parent="Qk1EgtEmgazbAcCYcNBb-39" vertex="1" connectable="0">
          <mxGeometry x="0.0128" y="-6" relative="1" as="geometry">
            <mxPoint as="offset" />
          </mxGeometry>
        </mxCell>
        <mxCell id="Qk1EgtEmgazbAcCYcNBb-34" value="存在MapLayoutSO数据？" style="shape=rhombus;perimeter=rhombusPerimeter;whiteSpace=wrap;html=1;align=center;" parent="WIyWlLk6GJQsqaUBKTNV-1" vertex="1">
          <mxGeometry x="202.5" y="1800" width="185" height="90" as="geometry" />
        </mxCell>
        <mxCell id="Qk1EgtEmgazbAcCYcNBb-47" style="edgeStyle=orthogonalEdgeStyle;rounded=0;orthogonalLoop=1;jettySize=auto;html=1;exitX=0.5;exitY=1;exitDx=0;exitDy=0;entryX=1;entryY=0.5;entryDx=0;entryDy=0;" parent="WIyWlLk6GJQsqaUBKTNV-1" source="Qk1EgtEmgazbAcCYcNBb-35" target="Qk1EgtEmgazbAcCYcNBb-45" edge="1">
          <mxGeometry relative="1" as="geometry">
            <mxPoint x="289.99999999999955" y="2149.9999999999995" as="targetPoint" />
          </mxGeometry>
        </mxCell>
        <mxCell id="Qk1EgtEmgazbAcCYcNBb-35" value="LoadMap()" style="rounded=1;whiteSpace=wrap;html=1;" parent="WIyWlLk6GJQsqaUBKTNV-1" vertex="1">
          <mxGeometry x="500" y="1815" width="120" height="60" as="geometry" />
        </mxCell>
        <mxCell id="Qk1EgtEmgazbAcCYcNBb-43" value="" style="edgeStyle=orthogonalEdgeStyle;rounded=0;orthogonalLoop=1;jettySize=auto;html=1;" parent="WIyWlLk6GJQsqaUBKTNV-1" source="Qk1EgtEmgazbAcCYcNBb-38" target="Qk1EgtEmgazbAcCYcNBb-42" edge="1">
          <mxGeometry relative="1" as="geometry" />
        </mxCell>
        <mxCell id="Qk1EgtEmgazbAcCYcNBb-38" value="CreateMap()" style="rounded=1;whiteSpace=wrap;html=1;" parent="WIyWlLk6GJQsqaUBKTNV-1" vertex="1">
          <mxGeometry x="-30" y="1815" width="120" height="60" as="geometry" />
        </mxCell>
        <mxCell id="Qk1EgtEmgazbAcCYcNBb-46" style="edgeStyle=orthogonalEdgeStyle;rounded=0;orthogonalLoop=1;jettySize=auto;html=1;exitX=0.5;exitY=1;exitDx=0;exitDy=0;entryX=0;entryY=0.5;entryDx=0;entryDy=0;" parent="WIyWlLk6GJQsqaUBKTNV-1" source="Qk1EgtEmgazbAcCYcNBb-42" target="Qk1EgtEmgazbAcCYcNBb-45" edge="1">
          <mxGeometry relative="1" as="geometry" />
        </mxCell>
        <mxCell id="Qk1EgtEmgazbAcCYcNBb-42" value="SaveMap()" style="rounded=1;whiteSpace=wrap;html=1;" parent="WIyWlLk6GJQsqaUBKTNV-1" vertex="1">
          <mxGeometry x="-30" y="1955" width="120" height="60" as="geometry" />
        </mxCell>
        <mxCell id="Qk1EgtEmgazbAcCYcNBb-45" value="" style="ellipse;html=1;shape=endState;fillColor=#000000;strokeColor=#ff0000;" parent="WIyWlLk6GJQsqaUBKTNV-1" vertex="1">
          <mxGeometry x="280" y="2150" width="30" height="30" as="geometry" />
        </mxCell>
        <mxCell id="Qk1EgtEmgazbAcCYcNBb-51" style="edgeStyle=orthogonalEdgeStyle;rounded=0;orthogonalLoop=1;jettySize=auto;html=1;exitX=1;exitY=0.5;exitDx=0;exitDy=0;exitPerimeter=0;entryX=0;entryY=0.75;entryDx=0;entryDy=0;" parent="WIyWlLk6GJQsqaUBKTNV-1" source="Qk1EgtEmgazbAcCYcNBb-48" target="Qk1EgtEmgazbAcCYcNBb-35" edge="1">
          <mxGeometry relative="1" as="geometry" />
        </mxCell>
        <mxCell id="Qk1EgtEmgazbAcCYcNBb-52" value="获取当前数据" style="edgeLabel;html=1;align=center;verticalAlign=middle;resizable=0;points=[];" parent="Qk1EgtEmgazbAcCYcNBb-51" vertex="1" connectable="0">
          <mxGeometry x="-0.6003" y="4" relative="1" as="geometry">
            <mxPoint as="offset" />
          </mxGeometry>
        </mxCell>
        <mxCell id="Qk1EgtEmgazbAcCYcNBb-48" value="MapLayoutSO" style="shape=cylinder3;whiteSpace=wrap;html=1;boundedLbl=1;backgroundOutline=1;size=15;" parent="WIyWlLk6GJQsqaUBKTNV-1" vertex="1">
          <mxGeometry x="220" y="1945" width="120" height="80" as="geometry" />
        </mxCell>
        <mxCell id="Qk1EgtEmgazbAcCYcNBb-49" style="edgeStyle=orthogonalEdgeStyle;rounded=0;orthogonalLoop=1;jettySize=auto;html=1;exitX=1;exitY=0.5;exitDx=0;exitDy=0;entryX=0;entryY=0.5;entryDx=0;entryDy=0;entryPerimeter=0;" parent="WIyWlLk6GJQsqaUBKTNV-1" source="Qk1EgtEmgazbAcCYcNBb-42" target="Qk1EgtEmgazbAcCYcNBb-48" edge="1">
          <mxGeometry relative="1" as="geometry" />
        </mxCell>
        <mxCell id="Qk1EgtEmgazbAcCYcNBb-50" value="写入当前数据" style="edgeLabel;html=1;align=center;verticalAlign=middle;resizable=0;points=[];" parent="Qk1EgtEmgazbAcCYcNBb-49" vertex="1" connectable="0">
          <mxGeometry x="-0.1501" y="5" relative="1" as="geometry">
            <mxPoint as="offset" />
          </mxGeometry>
        </mxCell>
        <mxCell id="BGNMVXmJKXSBRrtzB01C-2" value="&lt;span style=&quot;font-weight: 400;&quot;&gt;加载房间完成&lt;/span&gt;" style="swimlane;whiteSpace=wrap;html=1;" vertex="1" parent="WIyWlLk6GJQsqaUBKTNV-1">
          <mxGeometry x="2481" y="1360" width="1330" height="990" as="geometry" />
        </mxCell>
        <mxCell id="BGNMVXmJKXSBRrtzB01C-9" value="&lt;span style=&quot;font-weight: 400;&quot;&gt;SceneLoadManager&lt;/span&gt;" style="swimlane;whiteSpace=wrap;html=1;" vertex="1" parent="BGNMVXmJKXSBRrtzB01C-2">
          <mxGeometry y="30" width="390" height="960" as="geometry" />
        </mxCell>
        <mxCell id="BGNMVXmJKXSBRrtzB01C-3" value="触发事件afterRoomLoadEvent&lt;div&gt;传入房间坐标&lt;/div&gt;" style="rounded=1;whiteSpace=wrap;html=1;" vertex="1" parent="BGNMVXmJKXSBRrtzB01C-9">
          <mxGeometry x="109" y="291" width="140" height="100" as="geometry" />
        </mxCell>
        <mxCell id="BGNMVXmJKXSBRrtzB01C-7" style="edgeStyle=orthogonalEdgeStyle;rounded=0;orthogonalLoop=1;jettySize=auto;html=1;exitX=0.5;exitY=1;exitDx=0;exitDy=0;entryX=0.5;entryY=0;entryDx=0;entryDy=0;" edge="1" parent="BGNMVXmJKXSBRrtzB01C-9" source="BGNMVXmJKXSBRrtzB01C-4" target="BGNMVXmJKXSBRrtzB01C-3">
          <mxGeometry relative="1" as="geometry" />
        </mxCell>
        <mxCell id="BGNMVXmJKXSBRrtzB01C-4" value="房间加载完成" style="rounded=1;whiteSpace=wrap;html=1;" vertex="1" parent="BGNMVXmJKXSBRrtzB01C-9">
          <mxGeometry x="119" y="151" width="120" height="60" as="geometry" />
        </mxCell>
        <mxCell id="BGNMVXmJKXSBRrtzB01C-6" value="" style="edgeStyle=orthogonalEdgeStyle;html=1;verticalAlign=bottom;endArrow=open;endSize=8;strokeColor=#ff0000;rounded=0;entryX=0.5;entryY=0;entryDx=0;entryDy=0;" edge="1" source="BGNMVXmJKXSBRrtzB01C-5" parent="BGNMVXmJKXSBRrtzB01C-9" target="BGNMVXmJKXSBRrtzB01C-4">
          <mxGeometry relative="1" as="geometry">
            <mxPoint x="179" y="140" as="targetPoint" />
          </mxGeometry>
        </mxCell>
        <mxCell id="BGNMVXmJKXSBRrtzB01C-5" value="" style="ellipse;html=1;shape=startState;fillColor=#000000;strokeColor=#ff0000;" vertex="1" parent="BGNMVXmJKXSBRrtzB01C-9">
          <mxGeometry x="164" y="50" width="30" height="30" as="geometry" />
        </mxCell>
        <mxCell id="BGNMVXmJKXSBRrtzB01C-22" value="重新加载地图" style="rounded=1;whiteSpace=wrap;html=1;" vertex="1" parent="BGNMVXmJKXSBRrtzB01C-9">
          <mxGeometry x="119" y="450" width="120" height="60" as="geometry" />
        </mxCell>
        <mxCell id="BGNMVXmJKXSBRrtzB01C-17" value="&lt;span style=&quot;font-weight: 400;&quot;&gt;GameManager&lt;/span&gt;" style="swimlane;whiteSpace=wrap;html=1;" vertex="1" parent="BGNMVXmJKXSBRrtzB01C-2">
          <mxGeometry x="470" y="30" width="390" height="960" as="geometry" />
        </mxCell>
        <mxCell id="BGNMVXmJKXSBRrtzB01C-21" value="" style="edgeStyle=orthogonalEdgeStyle;rounded=0;orthogonalLoop=1;jettySize=auto;html=1;" edge="1" parent="BGNMVXmJKXSBRrtzB01C-17" source="BGNMVXmJKXSBRrtzB01C-19" target="BGNMVXmJKXSBRrtzB01C-20">
          <mxGeometry relative="1" as="geometry" />
        </mxCell>
        <mxCell id="BGNMVXmJKXSBRrtzB01C-19" value="更新地图信息" style="rounded=1;whiteSpace=wrap;html=1;" vertex="1" parent="BGNMVXmJKXSBRrtzB01C-17">
          <mxGeometry x="99" y="311" width="120" height="60" as="geometry" />
        </mxCell>
        <mxCell id="BGNMVXmJKXSBRrtzB01C-20" value="保存地图信息" style="rounded=1;whiteSpace=wrap;html=1;" vertex="1" parent="BGNMVXmJKXSBRrtzB01C-17">
          <mxGeometry x="99" y="451" width="120" height="60" as="geometry" />
        </mxCell>
        <mxCell id="BGNMVXmJKXSBRrtzB01C-18" style="edgeStyle=orthogonalEdgeStyle;rounded=0;orthogonalLoop=1;jettySize=auto;html=1;entryX=0;entryY=0.5;entryDx=0;entryDy=0;" edge="1" parent="BGNMVXmJKXSBRrtzB01C-2" source="BGNMVXmJKXSBRrtzB01C-3" target="BGNMVXmJKXSBRrtzB01C-19">
          <mxGeometry relative="1" as="geometry">
            <mxPoint x="599" y="371" as="targetPoint" />
          </mxGeometry>
        </mxCell>
        <mxCell id="BGNMVXmJKXSBRrtzB01C-23" value="" style="edgeStyle=orthogonalEdgeStyle;rounded=0;orthogonalLoop=1;jettySize=auto;html=1;" edge="1" parent="BGNMVXmJKXSBRrtzB01C-2" source="BGNMVXmJKXSBRrtzB01C-20" target="BGNMVXmJKXSBRrtzB01C-22">
          <mxGeometry relative="1" as="geometry" />
        </mxCell>
      </root>
    </mxGraphModel>
  </diagram>
  <diagram id="3RboSJWNe_og5PJdLl0s" name="CardManager">
    <mxGraphModel dx="2893" dy="1201" grid="1" gridSize="10" guides="1" tooltips="1" connect="1" arrows="1" fold="1" page="1" pageScale="1" pageWidth="827" pageHeight="1169" math="0" shadow="0">
      <root>
        <mxCell id="0" />
        <mxCell id="1" parent="0" />
        <mxCell id="NRUXG8Hy5QKnfdxEjri1-1" value="" style="ellipse;html=1;shape=startState;fillColor=#000000;strokeColor=#ff0000;" parent="1" vertex="1">
          <mxGeometry x="250" y="40" width="30" height="30" as="geometry" />
        </mxCell>
        <mxCell id="NRUXG8Hy5QKnfdxEjri1-2" value="" style="edgeStyle=orthogonalEdgeStyle;html=1;verticalAlign=bottom;endArrow=open;endSize=8;strokeColor=#ff0000;rounded=0;entryX=0.5;entryY=0;entryDx=0;entryDy=0;" parent="1" source="NRUXG8Hy5QKnfdxEjri1-1" target="NRUXG8Hy5QKnfdxEjri1-4" edge="1">
          <mxGeometry relative="1" as="geometry">
            <mxPoint x="265" y="130" as="targetPoint" />
          </mxGeometry>
        </mxCell>
        <mxCell id="NRUXG8Hy5QKnfdxEjri1-4" value="使用Addressables获取所有CardData" style="rounded=1;whiteSpace=wrap;html=1;" parent="1" vertex="1">
          <mxGeometry x="205" y="170" width="120" height="60" as="geometry" />
        </mxCell>
        <mxCell id="NRUXG8Hy5QKnfdxEjri1-6" value="Card Manager(Game Obj)" style="swimlane;whiteSpace=wrap;html=1;" parent="1" vertex="1">
          <mxGeometry x="220" y="380" width="200" height="200" as="geometry" />
        </mxCell>
        <mxCell id="NRUXG8Hy5QKnfdxEjri1-5" value="卡牌对象池" style="rounded=1;whiteSpace=wrap;html=1;" parent="NRUXG8Hy5QKnfdxEjri1-6" vertex="1">
          <mxGeometry x="30" y="30" width="120" height="60" as="geometry" />
        </mxCell>
        <mxCell id="NRUXG8Hy5QKnfdxEjri1-7" value="所有卡牌数据&lt;br&gt;CardDataSO" style="rounded=1;whiteSpace=wrap;html=1;" parent="NRUXG8Hy5QKnfdxEjri1-6" vertex="1">
          <mxGeometry x="30" y="110" width="120" height="60" as="geometry" />
        </mxCell>
        <mxCell id="NRUXG8Hy5QKnfdxEjri1-12" value="PoolTool(Game Obj)" style="swimlane;whiteSpace=wrap;html=1;" parent="1" vertex="1">
          <mxGeometry x="560" y="380" width="200" height="200" as="geometry" />
        </mxCell>
        <mxCell id="NRUXG8Hy5QKnfdxEjri1-13" value="卡牌Prefab" style="rounded=1;whiteSpace=wrap;html=1;" parent="NRUXG8Hy5QKnfdxEjri1-12" vertex="1">
          <mxGeometry x="40" y="40" width="120" height="60" as="geometry" />
        </mxCell>
        <mxCell id="NRUXG8Hy5QKnfdxEjri1-14" style="edgeStyle=orthogonalEdgeStyle;rounded=0;orthogonalLoop=1;jettySize=auto;html=1;exitX=1;exitY=0.5;exitDx=0;exitDy=0;" parent="1" source="NRUXG8Hy5QKnfdxEjri1-5" target="NRUXG8Hy5QKnfdxEjri1-12" edge="1">
          <mxGeometry relative="1" as="geometry" />
        </mxCell>
        <mxCell id="a9kNAM0KzyCTf_bj8Ip--3" style="edgeStyle=orthogonalEdgeStyle;rounded=0;orthogonalLoop=1;jettySize=auto;html=1;exitX=0.96;exitY=0.7;exitDx=0;exitDy=0;exitPerimeter=0;entryX=0;entryY=0.5;entryDx=0;entryDy=0;endArrow=none;startFill=0;dashed=1;" edge="1" parent="1" source="a9kNAM0KzyCTf_bj8Ip--2" target="NRUXG8Hy5QKnfdxEjri1-5">
          <mxGeometry relative="1" as="geometry" />
        </mxCell>
        <mxCell id="a9kNAM0KzyCTf_bj8Ip--2" value="对象池只用来存储Prefab，优化性能。具体使用哪张卡牌，需要从对象池中弹出prefab后再初始化" style="ellipse;shape=cloud;whiteSpace=wrap;html=1;" vertex="1" parent="1">
          <mxGeometry x="-50" y="270" width="210" height="170" as="geometry" />
        </mxCell>
      </root>
    </mxGraphModel>
  </diagram>
</mxfile>
